G04 #@! TF.GenerationSoftware,KiCad,Pcbnew,5.1.12-5.1.12*
G04 #@! TF.CreationDate,2021-12-20T18:48:56+11:00*
G04 #@! TF.ProjectId,ttlclock3,74746c63-6c6f-4636-9b33-2e6b69636164,rev?*
G04 #@! TF.SameCoordinates,Original*
G04 #@! TF.FileFunction,Legend,Top*
G04 #@! TF.FilePolarity,Positive*
%FSLAX46Y46*%
G04 Gerber Fmt 4.6, Leading zero omitted, Abs format (unit mm)*
G04 Created by KiCad (PCBNEW 5.1.12-5.1.12) date 2021-12-20 18:48:56*
%MOMM*%
%LPD*%
G01*
G04 APERTURE LIST*
%ADD10C,0.150000*%
%ADD11C,0.120000*%
%ADD12C,0.010000*%
%ADD13C,0.203200*%
%ADD14C,0.127000*%
G04 APERTURE END LIST*
D10*
X201382380Y-63690476D02*
X201382380Y-64166666D01*
X201858571Y-64214285D01*
X201810952Y-64166666D01*
X201763333Y-64071428D01*
X201763333Y-63833333D01*
X201810952Y-63738095D01*
X201858571Y-63690476D01*
X201953809Y-63642857D01*
X202191904Y-63642857D01*
X202287142Y-63690476D01*
X202334761Y-63738095D01*
X202382380Y-63833333D01*
X202382380Y-64071428D01*
X202334761Y-64166666D01*
X202287142Y-64214285D01*
X201382380Y-63357142D02*
X202382380Y-63023809D01*
X201382380Y-62690476D01*
X201430000Y-54101904D02*
X201382380Y-54197142D01*
X201382380Y-54340000D01*
X201430000Y-54482857D01*
X201525238Y-54578095D01*
X201620476Y-54625714D01*
X201810952Y-54673333D01*
X201953809Y-54673333D01*
X202144285Y-54625714D01*
X202239523Y-54578095D01*
X202334761Y-54482857D01*
X202382380Y-54340000D01*
X202382380Y-54244761D01*
X202334761Y-54101904D01*
X202287142Y-54054285D01*
X201953809Y-54054285D01*
X201953809Y-54244761D01*
X202382380Y-53625714D02*
X201382380Y-53625714D01*
X202382380Y-53054285D01*
X201382380Y-53054285D01*
X202382380Y-52578095D02*
X201382380Y-52578095D01*
X201382380Y-52340000D01*
X201430000Y-52197142D01*
X201525238Y-52101904D01*
X201620476Y-52054285D01*
X201810952Y-52006666D01*
X201953809Y-52006666D01*
X202144285Y-52054285D01*
X202239523Y-52101904D01*
X202334761Y-52197142D01*
X202382380Y-52340000D01*
X202382380Y-52578095D01*
X205668571Y-75930000D02*
X205668571Y-76263333D01*
X206192380Y-76263333D02*
X205192380Y-76263333D01*
X205192380Y-75787142D01*
X206192380Y-74977619D02*
X205668571Y-74977619D01*
X205573333Y-75025238D01*
X205525714Y-75120476D01*
X205525714Y-75310952D01*
X205573333Y-75406190D01*
X206144761Y-74977619D02*
X206192380Y-75072857D01*
X206192380Y-75310952D01*
X206144761Y-75406190D01*
X206049523Y-75453809D01*
X205954285Y-75453809D01*
X205859047Y-75406190D01*
X205811428Y-75310952D01*
X205811428Y-75072857D01*
X205763809Y-74977619D01*
X206144761Y-74549047D02*
X206192380Y-74453809D01*
X206192380Y-74263333D01*
X206144761Y-74168095D01*
X206049523Y-74120476D01*
X206001904Y-74120476D01*
X205906666Y-74168095D01*
X205859047Y-74263333D01*
X205859047Y-74406190D01*
X205811428Y-74501428D01*
X205716190Y-74549047D01*
X205668571Y-74549047D01*
X205573333Y-74501428D01*
X205525714Y-74406190D01*
X205525714Y-74263333D01*
X205573333Y-74168095D01*
X205525714Y-73834761D02*
X205525714Y-73453809D01*
X205192380Y-73691904D02*
X206049523Y-73691904D01*
X206144761Y-73644285D01*
X206192380Y-73549047D01*
X206192380Y-73453809D01*
X206144761Y-89153809D02*
X206192380Y-89010952D01*
X206192380Y-88772857D01*
X206144761Y-88677619D01*
X206097142Y-88630000D01*
X206001904Y-88582380D01*
X205906666Y-88582380D01*
X205811428Y-88630000D01*
X205763809Y-88677619D01*
X205716190Y-88772857D01*
X205668571Y-88963333D01*
X205620952Y-89058571D01*
X205573333Y-89106190D01*
X205478095Y-89153809D01*
X205382857Y-89153809D01*
X205287619Y-89106190D01*
X205240000Y-89058571D01*
X205192380Y-88963333D01*
X205192380Y-88725238D01*
X205240000Y-88582380D01*
X206192380Y-88010952D02*
X206144761Y-88106190D01*
X206049523Y-88153809D01*
X205192380Y-88153809D01*
X206192380Y-87487142D02*
X206144761Y-87582380D01*
X206097142Y-87630000D01*
X206001904Y-87677619D01*
X205716190Y-87677619D01*
X205620952Y-87630000D01*
X205573333Y-87582380D01*
X205525714Y-87487142D01*
X205525714Y-87344285D01*
X205573333Y-87249047D01*
X205620952Y-87201428D01*
X205716190Y-87153809D01*
X206001904Y-87153809D01*
X206097142Y-87201428D01*
X206144761Y-87249047D01*
X206192380Y-87344285D01*
X206192380Y-87487142D01*
X205525714Y-86820476D02*
X206192380Y-86630000D01*
X205716190Y-86439523D01*
X206192380Y-86249047D01*
X205525714Y-86058571D01*
X206192380Y-101782380D02*
X205192380Y-101782380D01*
X205668571Y-101782380D02*
X205668571Y-101210952D01*
X206192380Y-101210952D02*
X205192380Y-101210952D01*
X206192380Y-100591904D02*
X206144761Y-100687142D01*
X206097142Y-100734761D01*
X206001904Y-100782380D01*
X205716190Y-100782380D01*
X205620952Y-100734761D01*
X205573333Y-100687142D01*
X205525714Y-100591904D01*
X205525714Y-100449047D01*
X205573333Y-100353809D01*
X205620952Y-100306190D01*
X205716190Y-100258571D01*
X206001904Y-100258571D01*
X206097142Y-100306190D01*
X206144761Y-100353809D01*
X206192380Y-100449047D01*
X206192380Y-100591904D01*
X206192380Y-99687142D02*
X206144761Y-99782380D01*
X206049523Y-99830000D01*
X205192380Y-99830000D01*
X206192380Y-98877619D02*
X205192380Y-98877619D01*
X206144761Y-98877619D02*
X206192380Y-98972857D01*
X206192380Y-99163333D01*
X206144761Y-99258571D01*
X206097142Y-99306190D01*
X206001904Y-99353809D01*
X205716190Y-99353809D01*
X205620952Y-99306190D01*
X205573333Y-99258571D01*
X205525714Y-99163333D01*
X205525714Y-98972857D01*
X205573333Y-98877619D01*
X187412380Y-82628571D02*
X187412380Y-82057142D01*
X188412380Y-82342857D02*
X187412380Y-82342857D01*
X187412380Y-81866666D02*
X187412380Y-81295238D01*
X188412380Y-81580952D02*
X187412380Y-81580952D01*
X188412380Y-80485714D02*
X188412380Y-80961904D01*
X187412380Y-80961904D01*
X187745714Y-79533333D02*
X187745714Y-79152380D01*
X187412380Y-79390476D02*
X188269523Y-79390476D01*
X188364761Y-79342857D01*
X188412380Y-79247619D01*
X188412380Y-79152380D01*
X188364761Y-78438095D02*
X188412380Y-78533333D01*
X188412380Y-78723809D01*
X188364761Y-78819047D01*
X188269523Y-78866666D01*
X187888571Y-78866666D01*
X187793333Y-78819047D01*
X187745714Y-78723809D01*
X187745714Y-78533333D01*
X187793333Y-78438095D01*
X187888571Y-78390476D01*
X187983809Y-78390476D01*
X188079047Y-78866666D01*
X188412380Y-77961904D02*
X187745714Y-77961904D01*
X187936190Y-77961904D02*
X187840952Y-77914285D01*
X187793333Y-77866666D01*
X187745714Y-77771428D01*
X187745714Y-77676190D01*
X187745714Y-77342857D02*
X188412380Y-77342857D01*
X187840952Y-77342857D02*
X187793333Y-77295238D01*
X187745714Y-77200000D01*
X187745714Y-77057142D01*
X187793333Y-76961904D01*
X187888571Y-76914285D01*
X188412380Y-76914285D01*
X188412380Y-76009523D02*
X187888571Y-76009523D01*
X187793333Y-76057142D01*
X187745714Y-76152380D01*
X187745714Y-76342857D01*
X187793333Y-76438095D01*
X188364761Y-76009523D02*
X188412380Y-76104761D01*
X188412380Y-76342857D01*
X188364761Y-76438095D01*
X188269523Y-76485714D01*
X188174285Y-76485714D01*
X188079047Y-76438095D01*
X188031428Y-76342857D01*
X188031428Y-76104761D01*
X187983809Y-76009523D01*
X188412380Y-75533333D02*
X187745714Y-75533333D01*
X187936190Y-75533333D02*
X187840952Y-75485714D01*
X187793333Y-75438095D01*
X187745714Y-75342857D01*
X187745714Y-75247619D01*
X187745714Y-75009523D02*
X188412380Y-74771428D01*
X187745714Y-74533333D02*
X188412380Y-74771428D01*
X188650476Y-74866666D01*
X188698095Y-74914285D01*
X188745714Y-75009523D01*
X188364761Y-72961904D02*
X188412380Y-73057142D01*
X188412380Y-73247619D01*
X188364761Y-73342857D01*
X188317142Y-73390476D01*
X188221904Y-73438095D01*
X187936190Y-73438095D01*
X187840952Y-73390476D01*
X187793333Y-73342857D01*
X187745714Y-73247619D01*
X187745714Y-73057142D01*
X187793333Y-72961904D01*
X188412380Y-72390476D02*
X188364761Y-72485714D01*
X188269523Y-72533333D01*
X187412380Y-72533333D01*
X188412380Y-71866666D02*
X188364761Y-71961904D01*
X188317142Y-72009523D01*
X188221904Y-72057142D01*
X187936190Y-72057142D01*
X187840952Y-72009523D01*
X187793333Y-71961904D01*
X187745714Y-71866666D01*
X187745714Y-71723809D01*
X187793333Y-71628571D01*
X187840952Y-71580952D01*
X187936190Y-71533333D01*
X188221904Y-71533333D01*
X188317142Y-71580952D01*
X188364761Y-71628571D01*
X188412380Y-71723809D01*
X188412380Y-71866666D01*
X188364761Y-70676190D02*
X188412380Y-70771428D01*
X188412380Y-70961904D01*
X188364761Y-71057142D01*
X188317142Y-71104761D01*
X188221904Y-71152380D01*
X187936190Y-71152380D01*
X187840952Y-71104761D01*
X187793333Y-71057142D01*
X187745714Y-70961904D01*
X187745714Y-70771428D01*
X187793333Y-70676190D01*
X188412380Y-70247619D02*
X187412380Y-70247619D01*
X188031428Y-70152380D02*
X188412380Y-69866666D01*
X187745714Y-69866666D02*
X188126666Y-70247619D01*
D11*
G04 #@! TO.C,C6*
X204570000Y-49400000D02*
X201830000Y-49400000D01*
X204570000Y-41960000D02*
X201830000Y-41960000D01*
X201830000Y-41960000D02*
X201830000Y-49400000D01*
X204570000Y-41960000D02*
X204570000Y-49400000D01*
G04 #@! TO.C,U6*
X181550000Y-44340000D02*
X181550000Y-45990000D01*
X199450000Y-44340000D02*
X181550000Y-44340000D01*
X199450000Y-49640000D02*
X199450000Y-44340000D01*
X181550000Y-49640000D02*
X199450000Y-49640000D01*
X181550000Y-47990000D02*
X181550000Y-49640000D01*
X181550000Y-45990000D02*
G75*
G02*
X181550000Y-47990000I0J-1000000D01*
G01*
D12*
G04 #@! TO.C,REF\u002A\u002A*
G36*
X185154533Y-69971177D02*
G01*
X185176776Y-69939798D01*
X185204485Y-69912089D01*
X185513920Y-69912089D01*
X185605799Y-69912162D01*
X185677840Y-69912505D01*
X185732780Y-69913308D01*
X185773360Y-69914759D01*
X185802317Y-69917048D01*
X185822391Y-69920364D01*
X185836321Y-69924895D01*
X185846845Y-69930831D01*
X185853100Y-69935486D01*
X185877673Y-69966217D01*
X185880341Y-70001504D01*
X185865271Y-70033755D01*
X185856374Y-70044412D01*
X185844557Y-70051536D01*
X185825526Y-70055833D01*
X185794992Y-70058009D01*
X185748662Y-70058772D01*
X185712871Y-70058845D01*
X185578045Y-70058845D01*
X185578045Y-70555556D01*
X185700700Y-70555556D01*
X185756787Y-70556069D01*
X185795333Y-70558124D01*
X185821361Y-70562492D01*
X185839897Y-70569944D01*
X185853100Y-70578953D01*
X185877604Y-70609856D01*
X185880506Y-70644804D01*
X185863089Y-70678262D01*
X185853959Y-70687396D01*
X185841855Y-70693848D01*
X185823001Y-70698103D01*
X185793620Y-70700648D01*
X185749937Y-70701971D01*
X185688175Y-70702557D01*
X185674000Y-70702625D01*
X185557631Y-70703109D01*
X185461727Y-70703359D01*
X185384177Y-70703277D01*
X185322869Y-70702769D01*
X185275690Y-70701738D01*
X185240530Y-70700087D01*
X185215276Y-70697721D01*
X185197817Y-70694543D01*
X185186041Y-70690456D01*
X185177835Y-70685366D01*
X185171645Y-70679734D01*
X185151844Y-70647872D01*
X185154533Y-70614643D01*
X185176776Y-70583265D01*
X185191126Y-70570567D01*
X185206978Y-70562474D01*
X185229554Y-70557958D01*
X185264078Y-70555994D01*
X185315776Y-70555556D01*
X185431289Y-70555556D01*
X185431289Y-70058845D01*
X185312756Y-70058845D01*
X185258148Y-70058338D01*
X185221275Y-70056302D01*
X185197307Y-70051965D01*
X185181415Y-70044553D01*
X185171645Y-70036267D01*
X185151844Y-70004406D01*
X185154533Y-69971177D01*
G37*
X185154533Y-69971177D02*
X185176776Y-69939798D01*
X185204485Y-69912089D01*
X185513920Y-69912089D01*
X185605799Y-69912162D01*
X185677840Y-69912505D01*
X185732780Y-69913308D01*
X185773360Y-69914759D01*
X185802317Y-69917048D01*
X185822391Y-69920364D01*
X185836321Y-69924895D01*
X185846845Y-69930831D01*
X185853100Y-69935486D01*
X185877673Y-69966217D01*
X185880341Y-70001504D01*
X185865271Y-70033755D01*
X185856374Y-70044412D01*
X185844557Y-70051536D01*
X185825526Y-70055833D01*
X185794992Y-70058009D01*
X185748662Y-70058772D01*
X185712871Y-70058845D01*
X185578045Y-70058845D01*
X185578045Y-70555556D01*
X185700700Y-70555556D01*
X185756787Y-70556069D01*
X185795333Y-70558124D01*
X185821361Y-70562492D01*
X185839897Y-70569944D01*
X185853100Y-70578953D01*
X185877604Y-70609856D01*
X185880506Y-70644804D01*
X185863089Y-70678262D01*
X185853959Y-70687396D01*
X185841855Y-70693848D01*
X185823001Y-70698103D01*
X185793620Y-70700648D01*
X185749937Y-70701971D01*
X185688175Y-70702557D01*
X185674000Y-70702625D01*
X185557631Y-70703109D01*
X185461727Y-70703359D01*
X185384177Y-70703277D01*
X185322869Y-70702769D01*
X185275690Y-70701738D01*
X185240530Y-70700087D01*
X185215276Y-70697721D01*
X185197817Y-70694543D01*
X185186041Y-70690456D01*
X185177835Y-70685366D01*
X185171645Y-70679734D01*
X185151844Y-70647872D01*
X185154533Y-70614643D01*
X185176776Y-70583265D01*
X185191126Y-70570567D01*
X185206978Y-70562474D01*
X185229554Y-70557958D01*
X185264078Y-70555994D01*
X185315776Y-70555556D01*
X185431289Y-70555556D01*
X185431289Y-70058845D01*
X185312756Y-70058845D01*
X185258148Y-70058338D01*
X185221275Y-70056302D01*
X185197307Y-70051965D01*
X185181415Y-70044553D01*
X185171645Y-70036267D01*
X185151844Y-70004406D01*
X185154533Y-69971177D01*
G36*
X185149163Y-71236935D02*
G01*
X185149542Y-71158228D01*
X185150333Y-71097137D01*
X185151670Y-71051183D01*
X185153683Y-71017886D01*
X185156506Y-70994764D01*
X185160269Y-70979338D01*
X185165105Y-70969129D01*
X185168822Y-70964187D01*
X185201358Y-70938543D01*
X185235138Y-70935441D01*
X185265826Y-70951289D01*
X185278089Y-70961652D01*
X185286450Y-70972804D01*
X185291657Y-70988965D01*
X185294457Y-71014358D01*
X185295596Y-71053202D01*
X185295821Y-71109720D01*
X185295822Y-71120820D01*
X185295822Y-71266756D01*
X185566756Y-71266756D01*
X185652154Y-71266852D01*
X185717864Y-71267289D01*
X185766774Y-71268288D01*
X185801773Y-71270072D01*
X185825749Y-71272863D01*
X185841593Y-71276883D01*
X185852191Y-71282355D01*
X185860267Y-71289334D01*
X185880112Y-71322266D01*
X185878548Y-71356646D01*
X185855906Y-71387824D01*
X185853100Y-71390114D01*
X185842492Y-71397571D01*
X185830081Y-71403253D01*
X185812850Y-71407399D01*
X185787784Y-71410250D01*
X185751867Y-71412046D01*
X185702083Y-71413028D01*
X185635417Y-71413436D01*
X185559589Y-71413511D01*
X185295822Y-71413511D01*
X185295822Y-71552873D01*
X185295418Y-71612678D01*
X185293840Y-71654082D01*
X185290547Y-71681252D01*
X185284992Y-71698354D01*
X185276631Y-71709557D01*
X185275178Y-71710917D01*
X185241939Y-71727275D01*
X185204362Y-71725828D01*
X185171645Y-71707022D01*
X185165298Y-71699750D01*
X185160266Y-71690373D01*
X185156396Y-71676391D01*
X185153537Y-71655304D01*
X185151535Y-71624611D01*
X185150239Y-71581811D01*
X185149498Y-71524405D01*
X185149158Y-71449890D01*
X185149068Y-71355767D01*
X185149067Y-71335740D01*
X185149163Y-71236935D01*
G37*
X185149163Y-71236935D02*
X185149542Y-71158228D01*
X185150333Y-71097137D01*
X185151670Y-71051183D01*
X185153683Y-71017886D01*
X185156506Y-70994764D01*
X185160269Y-70979338D01*
X185165105Y-70969129D01*
X185168822Y-70964187D01*
X185201358Y-70938543D01*
X185235138Y-70935441D01*
X185265826Y-70951289D01*
X185278089Y-70961652D01*
X185286450Y-70972804D01*
X185291657Y-70988965D01*
X185294457Y-71014358D01*
X185295596Y-71053202D01*
X185295821Y-71109720D01*
X185295822Y-71120820D01*
X185295822Y-71266756D01*
X185566756Y-71266756D01*
X185652154Y-71266852D01*
X185717864Y-71267289D01*
X185766774Y-71268288D01*
X185801773Y-71270072D01*
X185825749Y-71272863D01*
X185841593Y-71276883D01*
X185852191Y-71282355D01*
X185860267Y-71289334D01*
X185880112Y-71322266D01*
X185878548Y-71356646D01*
X185855906Y-71387824D01*
X185853100Y-71390114D01*
X185842492Y-71397571D01*
X185830081Y-71403253D01*
X185812850Y-71407399D01*
X185787784Y-71410250D01*
X185751867Y-71412046D01*
X185702083Y-71413028D01*
X185635417Y-71413436D01*
X185559589Y-71413511D01*
X185295822Y-71413511D01*
X185295822Y-71552873D01*
X185295418Y-71612678D01*
X185293840Y-71654082D01*
X185290547Y-71681252D01*
X185284992Y-71698354D01*
X185276631Y-71709557D01*
X185275178Y-71710917D01*
X185241939Y-71727275D01*
X185204362Y-71725828D01*
X185171645Y-71707022D01*
X185165298Y-71699750D01*
X185160266Y-71690373D01*
X185156396Y-71676391D01*
X185153537Y-71655304D01*
X185151535Y-71624611D01*
X185150239Y-71581811D01*
X185149498Y-71524405D01*
X185149158Y-71449890D01*
X185149068Y-71355767D01*
X185149067Y-71335740D01*
X185149163Y-71236935D01*
G36*
X185155877Y-72011386D02*
G01*
X185170647Y-71987673D01*
X185192227Y-71961022D01*
X185513773Y-71961022D01*
X185607830Y-71961107D01*
X185681932Y-71961471D01*
X185738704Y-71962276D01*
X185780768Y-71963687D01*
X185810748Y-71965867D01*
X185831267Y-71968979D01*
X185844949Y-71973186D01*
X185854416Y-71978652D01*
X185859082Y-71982528D01*
X185879575Y-72013966D01*
X185878739Y-72049767D01*
X185861264Y-72081127D01*
X185839684Y-72107778D01*
X185192227Y-72107778D01*
X185170647Y-72081127D01*
X185154949Y-72055406D01*
X185149067Y-72034400D01*
X185155877Y-72011386D01*
G37*
X185155877Y-72011386D02*
X185170647Y-71987673D01*
X185192227Y-71961022D01*
X185513773Y-71961022D01*
X185607830Y-71961107D01*
X185681932Y-71961471D01*
X185738704Y-71962276D01*
X185780768Y-71963687D01*
X185810748Y-71965867D01*
X185831267Y-71968979D01*
X185844949Y-71973186D01*
X185854416Y-71978652D01*
X185859082Y-71982528D01*
X185879575Y-72013966D01*
X185878739Y-72049767D01*
X185861264Y-72081127D01*
X185839684Y-72107778D01*
X185192227Y-72107778D01*
X185170647Y-72081127D01*
X185154949Y-72055406D01*
X185149067Y-72034400D01*
X185155877Y-72011386D01*
G36*
X185151034Y-72455335D02*
G01*
X185158035Y-72435745D01*
X185158377Y-72434990D01*
X185178678Y-72408387D01*
X185199561Y-72393730D01*
X185209352Y-72390862D01*
X185222361Y-72391004D01*
X185240895Y-72395039D01*
X185267257Y-72403854D01*
X185303752Y-72418331D01*
X185352687Y-72439355D01*
X185416365Y-72467812D01*
X185497093Y-72504585D01*
X185541216Y-72524825D01*
X185619985Y-72561375D01*
X185692423Y-72595685D01*
X185755880Y-72626448D01*
X185807708Y-72652352D01*
X185845259Y-72672090D01*
X185865884Y-72684350D01*
X185868733Y-72686776D01*
X185881302Y-72717817D01*
X185879619Y-72752879D01*
X185864332Y-72781000D01*
X185863089Y-72782146D01*
X185846154Y-72793332D01*
X185813170Y-72812096D01*
X185768380Y-72836125D01*
X185716032Y-72863103D01*
X185696742Y-72872799D01*
X185550150Y-72945986D01*
X185709393Y-73025760D01*
X185764415Y-73054233D01*
X185812132Y-73080650D01*
X185848893Y-73102852D01*
X185871044Y-73118681D01*
X185875741Y-73124046D01*
X185882102Y-73165743D01*
X185868733Y-73200151D01*
X185854446Y-73210272D01*
X185822692Y-73227786D01*
X185776597Y-73251265D01*
X185719285Y-73279280D01*
X185653880Y-73310401D01*
X185583507Y-73343201D01*
X185511291Y-73376250D01*
X185440355Y-73408119D01*
X185373825Y-73437381D01*
X185314826Y-73462605D01*
X185266481Y-73482364D01*
X185231915Y-73495228D01*
X185214253Y-73499769D01*
X185213613Y-73499723D01*
X185191388Y-73488674D01*
X185168753Y-73466590D01*
X185167768Y-73465290D01*
X185152425Y-73438147D01*
X185152574Y-73413042D01*
X185155466Y-73403632D01*
X185161718Y-73392166D01*
X185174014Y-73379990D01*
X185194908Y-73365643D01*
X185226949Y-73347664D01*
X185272688Y-73324593D01*
X185334677Y-73294970D01*
X185391898Y-73268255D01*
X185458226Y-73237520D01*
X185517874Y-73209979D01*
X185567725Y-73187062D01*
X185604664Y-73170202D01*
X185625573Y-73160827D01*
X185628845Y-73159460D01*
X185623497Y-73153311D01*
X185601109Y-73139178D01*
X185564946Y-73118943D01*
X185518277Y-73094485D01*
X185499022Y-73084752D01*
X185434004Y-73051783D01*
X185386654Y-73026357D01*
X185354219Y-73006388D01*
X185333946Y-72989790D01*
X185323082Y-72974476D01*
X185318875Y-72958360D01*
X185318400Y-72947857D01*
X185320042Y-72929330D01*
X185326831Y-72913096D01*
X185341566Y-72896965D01*
X185367044Y-72878749D01*
X185406061Y-72856261D01*
X185461414Y-72827311D01*
X185492903Y-72811338D01*
X185543087Y-72785430D01*
X185584704Y-72762833D01*
X185614242Y-72745542D01*
X185628189Y-72735550D01*
X185628770Y-72734191D01*
X185617793Y-72727739D01*
X185589290Y-72713292D01*
X185546244Y-72692297D01*
X185491638Y-72666203D01*
X185428454Y-72636454D01*
X185397071Y-72621820D01*
X185316078Y-72583750D01*
X185253756Y-72553095D01*
X185208071Y-72528263D01*
X185176989Y-72507663D01*
X185158478Y-72489702D01*
X185150504Y-72472790D01*
X185151034Y-72455335D01*
G37*
X185151034Y-72455335D02*
X185158035Y-72435745D01*
X185158377Y-72434990D01*
X185178678Y-72408387D01*
X185199561Y-72393730D01*
X185209352Y-72390862D01*
X185222361Y-72391004D01*
X185240895Y-72395039D01*
X185267257Y-72403854D01*
X185303752Y-72418331D01*
X185352687Y-72439355D01*
X185416365Y-72467812D01*
X185497093Y-72504585D01*
X185541216Y-72524825D01*
X185619985Y-72561375D01*
X185692423Y-72595685D01*
X185755880Y-72626448D01*
X185807708Y-72652352D01*
X185845259Y-72672090D01*
X185865884Y-72684350D01*
X185868733Y-72686776D01*
X185881302Y-72717817D01*
X185879619Y-72752879D01*
X185864332Y-72781000D01*
X185863089Y-72782146D01*
X185846154Y-72793332D01*
X185813170Y-72812096D01*
X185768380Y-72836125D01*
X185716032Y-72863103D01*
X185696742Y-72872799D01*
X185550150Y-72945986D01*
X185709393Y-73025760D01*
X185764415Y-73054233D01*
X185812132Y-73080650D01*
X185848893Y-73102852D01*
X185871044Y-73118681D01*
X185875741Y-73124046D01*
X185882102Y-73165743D01*
X185868733Y-73200151D01*
X185854446Y-73210272D01*
X185822692Y-73227786D01*
X185776597Y-73251265D01*
X185719285Y-73279280D01*
X185653880Y-73310401D01*
X185583507Y-73343201D01*
X185511291Y-73376250D01*
X185440355Y-73408119D01*
X185373825Y-73437381D01*
X185314826Y-73462605D01*
X185266481Y-73482364D01*
X185231915Y-73495228D01*
X185214253Y-73499769D01*
X185213613Y-73499723D01*
X185191388Y-73488674D01*
X185168753Y-73466590D01*
X185167768Y-73465290D01*
X185152425Y-73438147D01*
X185152574Y-73413042D01*
X185155466Y-73403632D01*
X185161718Y-73392166D01*
X185174014Y-73379990D01*
X185194908Y-73365643D01*
X185226949Y-73347664D01*
X185272688Y-73324593D01*
X185334677Y-73294970D01*
X185391898Y-73268255D01*
X185458226Y-73237520D01*
X185517874Y-73209979D01*
X185567725Y-73187062D01*
X185604664Y-73170202D01*
X185625573Y-73160827D01*
X185628845Y-73159460D01*
X185623497Y-73153311D01*
X185601109Y-73139178D01*
X185564946Y-73118943D01*
X185518277Y-73094485D01*
X185499022Y-73084752D01*
X185434004Y-73051783D01*
X185386654Y-73026357D01*
X185354219Y-73006388D01*
X185333946Y-72989790D01*
X185323082Y-72974476D01*
X185318875Y-72958360D01*
X185318400Y-72947857D01*
X185320042Y-72929330D01*
X185326831Y-72913096D01*
X185341566Y-72896965D01*
X185367044Y-72878749D01*
X185406061Y-72856261D01*
X185461414Y-72827311D01*
X185492903Y-72811338D01*
X185543087Y-72785430D01*
X185584704Y-72762833D01*
X185614242Y-72745542D01*
X185628189Y-72735550D01*
X185628770Y-72734191D01*
X185617793Y-72727739D01*
X185589290Y-72713292D01*
X185546244Y-72692297D01*
X185491638Y-72666203D01*
X185428454Y-72636454D01*
X185397071Y-72621820D01*
X185316078Y-72583750D01*
X185253756Y-72553095D01*
X185208071Y-72528263D01*
X185176989Y-72507663D01*
X185158478Y-72489702D01*
X185150504Y-72472790D01*
X185151034Y-72455335D01*
G36*
X185149275Y-75181691D02*
G01*
X185153636Y-75052712D01*
X185166861Y-74943009D01*
X185189741Y-74850774D01*
X185223070Y-74774198D01*
X185267638Y-74711473D01*
X185324236Y-74660788D01*
X185393658Y-74620337D01*
X185395351Y-74619541D01*
X185457483Y-74595399D01*
X185512509Y-74586797D01*
X185567887Y-74593769D01*
X185631073Y-74616346D01*
X185640689Y-74620628D01*
X185696966Y-74649828D01*
X185740451Y-74682644D01*
X185777417Y-74724998D01*
X185814135Y-74782810D01*
X185816052Y-74786169D01*
X185840227Y-74836496D01*
X185858282Y-74893379D01*
X185870839Y-74960473D01*
X185878522Y-75041435D01*
X185881953Y-75139918D01*
X185882251Y-75174714D01*
X185882845Y-75340406D01*
X185853100Y-75363803D01*
X185843319Y-75370743D01*
X185831897Y-75376158D01*
X185816095Y-75380235D01*
X185793175Y-75383163D01*
X185760396Y-75385133D01*
X185736089Y-75385775D01*
X185736089Y-75229156D01*
X185736089Y-75135274D01*
X185734483Y-75080336D01*
X185730255Y-75023940D01*
X185724292Y-74977655D01*
X185723790Y-74974861D01*
X185701736Y-74892652D01*
X185668600Y-74828886D01*
X185622847Y-74781548D01*
X185562939Y-74748618D01*
X185547061Y-74742892D01*
X185522333Y-74737279D01*
X185497902Y-74739709D01*
X185465400Y-74751533D01*
X185449434Y-74758660D01*
X185407006Y-74782000D01*
X185377240Y-74810120D01*
X185356511Y-74841060D01*
X185329537Y-74903034D01*
X185309998Y-74982349D01*
X185298746Y-75074747D01*
X185296270Y-75141667D01*
X185295822Y-75229156D01*
X185736089Y-75229156D01*
X185736089Y-75385775D01*
X185715021Y-75386332D01*
X185654311Y-75386950D01*
X185575526Y-75387175D01*
X185513920Y-75387200D01*
X185204485Y-75387200D01*
X185176776Y-75359491D01*
X185165544Y-75347194D01*
X185157853Y-75333897D01*
X185153040Y-75315328D01*
X185150446Y-75287214D01*
X185149410Y-75245283D01*
X185149270Y-75185263D01*
X185149275Y-75181691D01*
G37*
X185149275Y-75181691D02*
X185153636Y-75052712D01*
X185166861Y-74943009D01*
X185189741Y-74850774D01*
X185223070Y-74774198D01*
X185267638Y-74711473D01*
X185324236Y-74660788D01*
X185393658Y-74620337D01*
X185395351Y-74619541D01*
X185457483Y-74595399D01*
X185512509Y-74586797D01*
X185567887Y-74593769D01*
X185631073Y-74616346D01*
X185640689Y-74620628D01*
X185696966Y-74649828D01*
X185740451Y-74682644D01*
X185777417Y-74724998D01*
X185814135Y-74782810D01*
X185816052Y-74786169D01*
X185840227Y-74836496D01*
X185858282Y-74893379D01*
X185870839Y-74960473D01*
X185878522Y-75041435D01*
X185881953Y-75139918D01*
X185882251Y-75174714D01*
X185882845Y-75340406D01*
X185853100Y-75363803D01*
X185843319Y-75370743D01*
X185831897Y-75376158D01*
X185816095Y-75380235D01*
X185793175Y-75383163D01*
X185760396Y-75385133D01*
X185736089Y-75385775D01*
X185736089Y-75229156D01*
X185736089Y-75135274D01*
X185734483Y-75080336D01*
X185730255Y-75023940D01*
X185724292Y-74977655D01*
X185723790Y-74974861D01*
X185701736Y-74892652D01*
X185668600Y-74828886D01*
X185622847Y-74781548D01*
X185562939Y-74748618D01*
X185547061Y-74742892D01*
X185522333Y-74737279D01*
X185497902Y-74739709D01*
X185465400Y-74751533D01*
X185449434Y-74758660D01*
X185407006Y-74782000D01*
X185377240Y-74810120D01*
X185356511Y-74841060D01*
X185329537Y-74903034D01*
X185309998Y-74982349D01*
X185298746Y-75074747D01*
X185296270Y-75141667D01*
X185295822Y-75229156D01*
X185736089Y-75229156D01*
X185736089Y-75385775D01*
X185715021Y-75386332D01*
X185654311Y-75386950D01*
X185575526Y-75387175D01*
X185513920Y-75387200D01*
X185204485Y-75387200D01*
X185176776Y-75359491D01*
X185165544Y-75347194D01*
X185157853Y-75333897D01*
X185153040Y-75315328D01*
X185150446Y-75287214D01*
X185149410Y-75245283D01*
X185149270Y-75185263D01*
X185149275Y-75181691D01*
G36*
X185149260Y-75969657D02*
G01*
X185150174Y-75893299D01*
X185152311Y-75834783D01*
X185156175Y-75791745D01*
X185162267Y-75761817D01*
X185171090Y-75742632D01*
X185183146Y-75731824D01*
X185198939Y-75727027D01*
X185218970Y-75725873D01*
X185221335Y-75725867D01*
X185243992Y-75726869D01*
X185261503Y-75731604D01*
X185274574Y-75742667D01*
X185283913Y-75762652D01*
X185290227Y-75794154D01*
X185294222Y-75839768D01*
X185296606Y-75902087D01*
X185298086Y-75983707D01*
X185298414Y-76008723D01*
X185301467Y-76250800D01*
X185366378Y-76254186D01*
X185431289Y-76257571D01*
X185431289Y-76089424D01*
X185431531Y-76023734D01*
X185432556Y-75976828D01*
X185434811Y-75944917D01*
X185438742Y-75924209D01*
X185444798Y-75910916D01*
X185453424Y-75901245D01*
X185453493Y-75901183D01*
X185487112Y-75883644D01*
X185523448Y-75884278D01*
X185554423Y-75902686D01*
X185557607Y-75906329D01*
X185565812Y-75919259D01*
X185571521Y-75936976D01*
X185575162Y-75963430D01*
X185577167Y-76002568D01*
X185577964Y-76058338D01*
X185578045Y-76094006D01*
X185578045Y-76256445D01*
X185736089Y-76256445D01*
X185736089Y-76009839D01*
X185736231Y-75928420D01*
X185736814Y-75866590D01*
X185738068Y-75821363D01*
X185740227Y-75789752D01*
X185743523Y-75768769D01*
X185748189Y-75755427D01*
X185754457Y-75746739D01*
X185756733Y-75744550D01*
X185788280Y-75728386D01*
X185824168Y-75727203D01*
X185855285Y-75740464D01*
X185865271Y-75750957D01*
X185870769Y-75761871D01*
X185875022Y-75778783D01*
X185878180Y-75804367D01*
X185880392Y-75841299D01*
X185881806Y-75892254D01*
X185882572Y-75959906D01*
X185882838Y-76046931D01*
X185882845Y-76066606D01*
X185882787Y-76155089D01*
X185882467Y-76223773D01*
X185881667Y-76275436D01*
X185880167Y-76312855D01*
X185877749Y-76338810D01*
X185874194Y-76356078D01*
X185869282Y-76367438D01*
X185862795Y-76375668D01*
X185858138Y-76380183D01*
X185849889Y-76386979D01*
X185839669Y-76392288D01*
X185824800Y-76396294D01*
X185802602Y-76399179D01*
X185770393Y-76401126D01*
X185725496Y-76402319D01*
X185665228Y-76402939D01*
X185586911Y-76403171D01*
X185520994Y-76403200D01*
X185428628Y-76403129D01*
X185356117Y-76402792D01*
X185300737Y-76402002D01*
X185259765Y-76400574D01*
X185230478Y-76398321D01*
X185210153Y-76395057D01*
X185196066Y-76390596D01*
X185185495Y-76384752D01*
X185178811Y-76379803D01*
X185149067Y-76356406D01*
X185149067Y-76066226D01*
X185149260Y-75969657D01*
G37*
X185149260Y-75969657D02*
X185150174Y-75893299D01*
X185152311Y-75834783D01*
X185156175Y-75791745D01*
X185162267Y-75761817D01*
X185171090Y-75742632D01*
X185183146Y-75731824D01*
X185198939Y-75727027D01*
X185218970Y-75725873D01*
X185221335Y-75725867D01*
X185243992Y-75726869D01*
X185261503Y-75731604D01*
X185274574Y-75742667D01*
X185283913Y-75762652D01*
X185290227Y-75794154D01*
X185294222Y-75839768D01*
X185296606Y-75902087D01*
X185298086Y-75983707D01*
X185298414Y-76008723D01*
X185301467Y-76250800D01*
X185366378Y-76254186D01*
X185431289Y-76257571D01*
X185431289Y-76089424D01*
X185431531Y-76023734D01*
X185432556Y-75976828D01*
X185434811Y-75944917D01*
X185438742Y-75924209D01*
X185444798Y-75910916D01*
X185453424Y-75901245D01*
X185453493Y-75901183D01*
X185487112Y-75883644D01*
X185523448Y-75884278D01*
X185554423Y-75902686D01*
X185557607Y-75906329D01*
X185565812Y-75919259D01*
X185571521Y-75936976D01*
X185575162Y-75963430D01*
X185577167Y-76002568D01*
X185577964Y-76058338D01*
X185578045Y-76094006D01*
X185578045Y-76256445D01*
X185736089Y-76256445D01*
X185736089Y-76009839D01*
X185736231Y-75928420D01*
X185736814Y-75866590D01*
X185738068Y-75821363D01*
X185740227Y-75789752D01*
X185743523Y-75768769D01*
X185748189Y-75755427D01*
X185754457Y-75746739D01*
X185756733Y-75744550D01*
X185788280Y-75728386D01*
X185824168Y-75727203D01*
X185855285Y-75740464D01*
X185865271Y-75750957D01*
X185870769Y-75761871D01*
X185875022Y-75778783D01*
X185878180Y-75804367D01*
X185880392Y-75841299D01*
X185881806Y-75892254D01*
X185882572Y-75959906D01*
X185882838Y-76046931D01*
X185882845Y-76066606D01*
X185882787Y-76155089D01*
X185882467Y-76223773D01*
X185881667Y-76275436D01*
X185880167Y-76312855D01*
X185877749Y-76338810D01*
X185874194Y-76356078D01*
X185869282Y-76367438D01*
X185862795Y-76375668D01*
X185858138Y-76380183D01*
X185849889Y-76386979D01*
X185839669Y-76392288D01*
X185824800Y-76396294D01*
X185802602Y-76399179D01*
X185770393Y-76401126D01*
X185725496Y-76402319D01*
X185665228Y-76402939D01*
X185586911Y-76403171D01*
X185520994Y-76403200D01*
X185428628Y-76403129D01*
X185356117Y-76402792D01*
X185300737Y-76402002D01*
X185259765Y-76400574D01*
X185230478Y-76398321D01*
X185210153Y-76395057D01*
X185196066Y-76390596D01*
X185185495Y-76384752D01*
X185178811Y-76379803D01*
X185149067Y-76356406D01*
X185149067Y-76066226D01*
X185149260Y-75969657D01*
G36*
X185153448Y-77500114D02*
G01*
X185167273Y-77476548D01*
X185189881Y-77445735D01*
X185222338Y-77406078D01*
X185265708Y-77355980D01*
X185321058Y-77293843D01*
X185389451Y-77218072D01*
X185468084Y-77131334D01*
X185631878Y-76950711D01*
X185412029Y-76945067D01*
X185336351Y-76943029D01*
X185279994Y-76941063D01*
X185239706Y-76938734D01*
X185212235Y-76935606D01*
X185194329Y-76931245D01*
X185182737Y-76925216D01*
X185174208Y-76917084D01*
X185170623Y-76912772D01*
X185151670Y-76878241D01*
X185154441Y-76845383D01*
X185170633Y-76819318D01*
X185192199Y-76792667D01*
X185507151Y-76789352D01*
X185599779Y-76788435D01*
X185672544Y-76787968D01*
X185728161Y-76788113D01*
X185769342Y-76789032D01*
X185798803Y-76790887D01*
X185819255Y-76793839D01*
X185833413Y-76798050D01*
X185843991Y-76803682D01*
X185852474Y-76809927D01*
X185868207Y-76823439D01*
X185878636Y-76836883D01*
X185882639Y-76852124D01*
X185879094Y-76871026D01*
X185866879Y-76895455D01*
X185844871Y-76927273D01*
X185811949Y-76968348D01*
X185766991Y-77020542D01*
X185708875Y-77085722D01*
X185642099Y-77159556D01*
X185401458Y-77424845D01*
X185620589Y-77430489D01*
X185696128Y-77432531D01*
X185752354Y-77434502D01*
X185792524Y-77436839D01*
X185819896Y-77439981D01*
X185837728Y-77444364D01*
X185849279Y-77450424D01*
X185857807Y-77458600D01*
X185861282Y-77462784D01*
X185880372Y-77499765D01*
X185877493Y-77534708D01*
X185853100Y-77565136D01*
X185843286Y-77572097D01*
X185831826Y-77577523D01*
X185815968Y-77581603D01*
X185792963Y-77584529D01*
X185760062Y-77586492D01*
X185714516Y-77587683D01*
X185653573Y-77588292D01*
X185574486Y-77588511D01*
X185515956Y-77588534D01*
X185424407Y-77588460D01*
X185352687Y-77588113D01*
X185298045Y-77587301D01*
X185257732Y-77585833D01*
X185228998Y-77583519D01*
X185209093Y-77580167D01*
X185195268Y-77575588D01*
X185184772Y-77569589D01*
X185178811Y-77565136D01*
X185164691Y-77553850D01*
X185154029Y-77543301D01*
X185147892Y-77531893D01*
X185147343Y-77518030D01*
X185153448Y-77500114D01*
G37*
X185153448Y-77500114D02*
X185167273Y-77476548D01*
X185189881Y-77445735D01*
X185222338Y-77406078D01*
X185265708Y-77355980D01*
X185321058Y-77293843D01*
X185389451Y-77218072D01*
X185468084Y-77131334D01*
X185631878Y-76950711D01*
X185412029Y-76945067D01*
X185336351Y-76943029D01*
X185279994Y-76941063D01*
X185239706Y-76938734D01*
X185212235Y-76935606D01*
X185194329Y-76931245D01*
X185182737Y-76925216D01*
X185174208Y-76917084D01*
X185170623Y-76912772D01*
X185151670Y-76878241D01*
X185154441Y-76845383D01*
X185170633Y-76819318D01*
X185192199Y-76792667D01*
X185507151Y-76789352D01*
X185599779Y-76788435D01*
X185672544Y-76787968D01*
X185728161Y-76788113D01*
X185769342Y-76789032D01*
X185798803Y-76790887D01*
X185819255Y-76793839D01*
X185833413Y-76798050D01*
X185843991Y-76803682D01*
X185852474Y-76809927D01*
X185868207Y-76823439D01*
X185878636Y-76836883D01*
X185882639Y-76852124D01*
X185879094Y-76871026D01*
X185866879Y-76895455D01*
X185844871Y-76927273D01*
X185811949Y-76968348D01*
X185766991Y-77020542D01*
X185708875Y-77085722D01*
X185642099Y-77159556D01*
X185401458Y-77424845D01*
X185620589Y-77430489D01*
X185696128Y-77432531D01*
X185752354Y-77434502D01*
X185792524Y-77436839D01*
X185819896Y-77439981D01*
X185837728Y-77444364D01*
X185849279Y-77450424D01*
X185857807Y-77458600D01*
X185861282Y-77462784D01*
X185880372Y-77499765D01*
X185877493Y-77534708D01*
X185853100Y-77565136D01*
X185843286Y-77572097D01*
X185831826Y-77577523D01*
X185815968Y-77581603D01*
X185792963Y-77584529D01*
X185760062Y-77586492D01*
X185714516Y-77587683D01*
X185653573Y-77588292D01*
X185574486Y-77588511D01*
X185515956Y-77588534D01*
X185424407Y-77588460D01*
X185352687Y-77588113D01*
X185298045Y-77587301D01*
X185257732Y-77585833D01*
X185228998Y-77583519D01*
X185209093Y-77580167D01*
X185195268Y-77575588D01*
X185184772Y-77569589D01*
X185178811Y-77565136D01*
X185164691Y-77553850D01*
X185154029Y-77543301D01*
X185147892Y-77531893D01*
X185147343Y-77518030D01*
X185153448Y-77500114D01*
G36*
X185154599Y-78150081D02*
G01*
X185166095Y-78081565D01*
X185183967Y-78028943D01*
X185207499Y-77994708D01*
X185220924Y-77985379D01*
X185252148Y-77975893D01*
X185280395Y-77982277D01*
X185307182Y-78002430D01*
X185319713Y-78033745D01*
X185318696Y-78079183D01*
X185311906Y-78114326D01*
X185298971Y-78192419D01*
X185297742Y-78272226D01*
X185308241Y-78361555D01*
X185312690Y-78386229D01*
X185336108Y-78469291D01*
X185370945Y-78534273D01*
X185416604Y-78580461D01*
X185472494Y-78607145D01*
X185501388Y-78612663D01*
X185560012Y-78609051D01*
X185611879Y-78585729D01*
X185655978Y-78544824D01*
X185691299Y-78488459D01*
X185716829Y-78418760D01*
X185731559Y-78337852D01*
X185734478Y-78247860D01*
X185724575Y-78150910D01*
X185723641Y-78145436D01*
X185716459Y-78106875D01*
X185709521Y-78085494D01*
X185699227Y-78076227D01*
X185681976Y-78074006D01*
X185672841Y-78073956D01*
X185634489Y-78073956D01*
X185634489Y-78142431D01*
X185630347Y-78202900D01*
X185617147Y-78244165D01*
X185593730Y-78268175D01*
X185558936Y-78276877D01*
X185554394Y-78276983D01*
X185524654Y-78271892D01*
X185503419Y-78254433D01*
X185489366Y-78221939D01*
X185481173Y-78171743D01*
X185478161Y-78123123D01*
X185476433Y-78052456D01*
X185479070Y-78001198D01*
X185488800Y-77966239D01*
X185508353Y-77944470D01*
X185540456Y-77932780D01*
X185587838Y-77928060D01*
X185650071Y-77927200D01*
X185719535Y-77928609D01*
X185766786Y-77932848D01*
X185792012Y-77939936D01*
X185793988Y-77941311D01*
X185825508Y-77980228D01*
X185850470Y-78037286D01*
X185868340Y-78108869D01*
X185878586Y-78191358D01*
X185880673Y-78281139D01*
X185874068Y-78374592D01*
X185865956Y-78429556D01*
X185841554Y-78515766D01*
X185801662Y-78595892D01*
X185749887Y-78662977D01*
X185739539Y-78673173D01*
X185696035Y-78706302D01*
X185642118Y-78736194D01*
X185585592Y-78759357D01*
X185534259Y-78772298D01*
X185514544Y-78773858D01*
X185473419Y-78767218D01*
X185422252Y-78749568D01*
X185368394Y-78724297D01*
X185319195Y-78694789D01*
X185286334Y-78668719D01*
X185237452Y-78607765D01*
X185198545Y-78528969D01*
X185170494Y-78435157D01*
X185154179Y-78329150D01*
X185150192Y-78232000D01*
X185154599Y-78150081D01*
G37*
X185154599Y-78150081D02*
X185166095Y-78081565D01*
X185183967Y-78028943D01*
X185207499Y-77994708D01*
X185220924Y-77985379D01*
X185252148Y-77975893D01*
X185280395Y-77982277D01*
X185307182Y-78002430D01*
X185319713Y-78033745D01*
X185318696Y-78079183D01*
X185311906Y-78114326D01*
X185298971Y-78192419D01*
X185297742Y-78272226D01*
X185308241Y-78361555D01*
X185312690Y-78386229D01*
X185336108Y-78469291D01*
X185370945Y-78534273D01*
X185416604Y-78580461D01*
X185472494Y-78607145D01*
X185501388Y-78612663D01*
X185560012Y-78609051D01*
X185611879Y-78585729D01*
X185655978Y-78544824D01*
X185691299Y-78488459D01*
X185716829Y-78418760D01*
X185731559Y-78337852D01*
X185734478Y-78247860D01*
X185724575Y-78150910D01*
X185723641Y-78145436D01*
X185716459Y-78106875D01*
X185709521Y-78085494D01*
X185699227Y-78076227D01*
X185681976Y-78074006D01*
X185672841Y-78073956D01*
X185634489Y-78073956D01*
X185634489Y-78142431D01*
X185630347Y-78202900D01*
X185617147Y-78244165D01*
X185593730Y-78268175D01*
X185558936Y-78276877D01*
X185554394Y-78276983D01*
X185524654Y-78271892D01*
X185503419Y-78254433D01*
X185489366Y-78221939D01*
X185481173Y-78171743D01*
X185478161Y-78123123D01*
X185476433Y-78052456D01*
X185479070Y-78001198D01*
X185488800Y-77966239D01*
X185508353Y-77944470D01*
X185540456Y-77932780D01*
X185587838Y-77928060D01*
X185650071Y-77927200D01*
X185719535Y-77928609D01*
X185766786Y-77932848D01*
X185792012Y-77939936D01*
X185793988Y-77941311D01*
X185825508Y-77980228D01*
X185850470Y-78037286D01*
X185868340Y-78108869D01*
X185878586Y-78191358D01*
X185880673Y-78281139D01*
X185874068Y-78374592D01*
X185865956Y-78429556D01*
X185841554Y-78515766D01*
X185801662Y-78595892D01*
X185749887Y-78662977D01*
X185739539Y-78673173D01*
X185696035Y-78706302D01*
X185642118Y-78736194D01*
X185585592Y-78759357D01*
X185534259Y-78772298D01*
X185514544Y-78773858D01*
X185473419Y-78767218D01*
X185422252Y-78749568D01*
X185368394Y-78724297D01*
X185319195Y-78694789D01*
X185286334Y-78668719D01*
X185237452Y-78607765D01*
X185198545Y-78528969D01*
X185170494Y-78435157D01*
X185154179Y-78329150D01*
X185150192Y-78232000D01*
X185154599Y-78150081D01*
G36*
X185171645Y-79123822D02*
G01*
X185179218Y-79117242D01*
X185188987Y-79112079D01*
X185203571Y-79108164D01*
X185225585Y-79105324D01*
X185257648Y-79103387D01*
X185302375Y-79102183D01*
X185362385Y-79101539D01*
X185440294Y-79101284D01*
X185515956Y-79101245D01*
X185609802Y-79101314D01*
X185683689Y-79101638D01*
X185740232Y-79102386D01*
X185782049Y-79103732D01*
X185811757Y-79105846D01*
X185831973Y-79108900D01*
X185845314Y-79113066D01*
X185854398Y-79118516D01*
X185860267Y-79123822D01*
X185879947Y-79156826D01*
X185878181Y-79191991D01*
X185856717Y-79223455D01*
X185848337Y-79230684D01*
X185838614Y-79236334D01*
X185824861Y-79240599D01*
X185804389Y-79243673D01*
X185774512Y-79245752D01*
X185732541Y-79247030D01*
X185675789Y-79247701D01*
X185601567Y-79247959D01*
X185517537Y-79248000D01*
X185204485Y-79248000D01*
X185176776Y-79220291D01*
X185153463Y-79186137D01*
X185152623Y-79153006D01*
X185171645Y-79123822D01*
G37*
X185171645Y-79123822D02*
X185179218Y-79117242D01*
X185188987Y-79112079D01*
X185203571Y-79108164D01*
X185225585Y-79105324D01*
X185257648Y-79103387D01*
X185302375Y-79102183D01*
X185362385Y-79101539D01*
X185440294Y-79101284D01*
X185515956Y-79101245D01*
X185609802Y-79101314D01*
X185683689Y-79101638D01*
X185740232Y-79102386D01*
X185782049Y-79103732D01*
X185811757Y-79105846D01*
X185831973Y-79108900D01*
X185845314Y-79113066D01*
X185854398Y-79118516D01*
X185860267Y-79123822D01*
X185879947Y-79156826D01*
X185878181Y-79191991D01*
X185856717Y-79223455D01*
X185848337Y-79230684D01*
X185838614Y-79236334D01*
X185824861Y-79240599D01*
X185804389Y-79243673D01*
X185774512Y-79245752D01*
X185732541Y-79247030D01*
X185675789Y-79247701D01*
X185601567Y-79247959D01*
X185517537Y-79248000D01*
X185204485Y-79248000D01*
X185176776Y-79220291D01*
X185153463Y-79186137D01*
X185152623Y-79153006D01*
X185171645Y-79123822D01*
G36*
X185150351Y-79891703D02*
G01*
X185155581Y-79816888D01*
X185163750Y-79747306D01*
X185174550Y-79687002D01*
X185187673Y-79640020D01*
X185202813Y-79610406D01*
X185207269Y-79605860D01*
X185241850Y-79590054D01*
X185277351Y-79594847D01*
X185307725Y-79619364D01*
X185308596Y-79620534D01*
X185317954Y-79634954D01*
X185322876Y-79650008D01*
X185323473Y-79671005D01*
X185319861Y-79703257D01*
X185312154Y-79752073D01*
X185311505Y-79756000D01*
X185302569Y-79828739D01*
X185298161Y-79907217D01*
X185298119Y-79985927D01*
X185302279Y-80059361D01*
X185310479Y-80122011D01*
X185322557Y-80168370D01*
X185323771Y-80171416D01*
X185342615Y-80205048D01*
X185361685Y-80216864D01*
X185380439Y-80207614D01*
X185398337Y-80178047D01*
X185414837Y-80128911D01*
X185429396Y-80060957D01*
X185436406Y-80015645D01*
X185449889Y-79921456D01*
X185462214Y-79846544D01*
X185474449Y-79787717D01*
X185487661Y-79741785D01*
X185502917Y-79705555D01*
X185521285Y-79675838D01*
X185543831Y-79649442D01*
X185565971Y-79628230D01*
X185596819Y-79603065D01*
X185623345Y-79590681D01*
X185656026Y-79586808D01*
X185667995Y-79586667D01*
X185707712Y-79589576D01*
X185737259Y-79601202D01*
X185763486Y-79621323D01*
X185803576Y-79662216D01*
X185834149Y-79707817D01*
X185856203Y-79761513D01*
X185870735Y-79826692D01*
X185878741Y-79906744D01*
X185881218Y-80005057D01*
X185881177Y-80021289D01*
X185879818Y-80086849D01*
X185876730Y-80151866D01*
X185872356Y-80209252D01*
X185867140Y-80251922D01*
X185866541Y-80255372D01*
X185856491Y-80297796D01*
X185843796Y-80333780D01*
X185832190Y-80354150D01*
X185801572Y-80373107D01*
X185765918Y-80374427D01*
X185734144Y-80358085D01*
X185730551Y-80354429D01*
X185719876Y-80339315D01*
X185715276Y-80320415D01*
X185716059Y-80291162D01*
X185720127Y-80255651D01*
X185723762Y-80215970D01*
X185726828Y-80160345D01*
X185729053Y-80095406D01*
X185730164Y-80027785D01*
X185730237Y-80010000D01*
X185729964Y-79942128D01*
X185728646Y-79892454D01*
X185725827Y-79856610D01*
X185721050Y-79830224D01*
X185713857Y-79808926D01*
X185707867Y-79796126D01*
X185691233Y-79768000D01*
X185676168Y-79750068D01*
X185671897Y-79747447D01*
X185654263Y-79752976D01*
X185637192Y-79779260D01*
X185621458Y-79824478D01*
X185607838Y-79886808D01*
X185604804Y-79905171D01*
X185589738Y-80001090D01*
X185577146Y-80077641D01*
X185566111Y-80137780D01*
X185555720Y-80184460D01*
X185545056Y-80220637D01*
X185533205Y-80249265D01*
X185519251Y-80273298D01*
X185502281Y-80295692D01*
X185481378Y-80319402D01*
X185474049Y-80327380D01*
X185446699Y-80355353D01*
X185425029Y-80370160D01*
X185400232Y-80375952D01*
X185368983Y-80376889D01*
X185307705Y-80366575D01*
X185255640Y-80335752D01*
X185212958Y-80284595D01*
X185179825Y-80213283D01*
X185164964Y-80162400D01*
X185155366Y-80107100D01*
X185149936Y-80040853D01*
X185148367Y-79967706D01*
X185150351Y-79891703D01*
G37*
X185150351Y-79891703D02*
X185155581Y-79816888D01*
X185163750Y-79747306D01*
X185174550Y-79687002D01*
X185187673Y-79640020D01*
X185202813Y-79610406D01*
X185207269Y-79605860D01*
X185241850Y-79590054D01*
X185277351Y-79594847D01*
X185307725Y-79619364D01*
X185308596Y-79620534D01*
X185317954Y-79634954D01*
X185322876Y-79650008D01*
X185323473Y-79671005D01*
X185319861Y-79703257D01*
X185312154Y-79752073D01*
X185311505Y-79756000D01*
X185302569Y-79828739D01*
X185298161Y-79907217D01*
X185298119Y-79985927D01*
X185302279Y-80059361D01*
X185310479Y-80122011D01*
X185322557Y-80168370D01*
X185323771Y-80171416D01*
X185342615Y-80205048D01*
X185361685Y-80216864D01*
X185380439Y-80207614D01*
X185398337Y-80178047D01*
X185414837Y-80128911D01*
X185429396Y-80060957D01*
X185436406Y-80015645D01*
X185449889Y-79921456D01*
X185462214Y-79846544D01*
X185474449Y-79787717D01*
X185487661Y-79741785D01*
X185502917Y-79705555D01*
X185521285Y-79675838D01*
X185543831Y-79649442D01*
X185565971Y-79628230D01*
X185596819Y-79603065D01*
X185623345Y-79590681D01*
X185656026Y-79586808D01*
X185667995Y-79586667D01*
X185707712Y-79589576D01*
X185737259Y-79601202D01*
X185763486Y-79621323D01*
X185803576Y-79662216D01*
X185834149Y-79707817D01*
X185856203Y-79761513D01*
X185870735Y-79826692D01*
X185878741Y-79906744D01*
X185881218Y-80005057D01*
X185881177Y-80021289D01*
X185879818Y-80086849D01*
X185876730Y-80151866D01*
X185872356Y-80209252D01*
X185867140Y-80251922D01*
X185866541Y-80255372D01*
X185856491Y-80297796D01*
X185843796Y-80333780D01*
X185832190Y-80354150D01*
X185801572Y-80373107D01*
X185765918Y-80374427D01*
X185734144Y-80358085D01*
X185730551Y-80354429D01*
X185719876Y-80339315D01*
X185715276Y-80320415D01*
X185716059Y-80291162D01*
X185720127Y-80255651D01*
X185723762Y-80215970D01*
X185726828Y-80160345D01*
X185729053Y-80095406D01*
X185730164Y-80027785D01*
X185730237Y-80010000D01*
X185729964Y-79942128D01*
X185728646Y-79892454D01*
X185725827Y-79856610D01*
X185721050Y-79830224D01*
X185713857Y-79808926D01*
X185707867Y-79796126D01*
X185691233Y-79768000D01*
X185676168Y-79750068D01*
X185671897Y-79747447D01*
X185654263Y-79752976D01*
X185637192Y-79779260D01*
X185621458Y-79824478D01*
X185607838Y-79886808D01*
X185604804Y-79905171D01*
X185589738Y-80001090D01*
X185577146Y-80077641D01*
X185566111Y-80137780D01*
X185555720Y-80184460D01*
X185545056Y-80220637D01*
X185533205Y-80249265D01*
X185519251Y-80273298D01*
X185502281Y-80295692D01*
X185481378Y-80319402D01*
X185474049Y-80327380D01*
X185446699Y-80355353D01*
X185425029Y-80370160D01*
X185400232Y-80375952D01*
X185368983Y-80376889D01*
X185307705Y-80366575D01*
X185255640Y-80335752D01*
X185212958Y-80284595D01*
X185179825Y-80213283D01*
X185164964Y-80162400D01*
X185155366Y-80107100D01*
X185149936Y-80040853D01*
X185148367Y-79967706D01*
X185150351Y-79891703D01*
G36*
X185149146Y-80912794D02*
G01*
X185149518Y-80843386D01*
X185150385Y-80790997D01*
X185151946Y-80752847D01*
X185154403Y-80726159D01*
X185157957Y-80708153D01*
X185162810Y-80696049D01*
X185169161Y-80687069D01*
X185172084Y-80683818D01*
X185203142Y-80664043D01*
X185238828Y-80660482D01*
X185270510Y-80673491D01*
X185276913Y-80679506D01*
X185283121Y-80689235D01*
X185287910Y-80704901D01*
X185291514Y-80729408D01*
X185294164Y-80765661D01*
X185296095Y-80816565D01*
X185297539Y-80885026D01*
X185298418Y-80947617D01*
X185301467Y-81195334D01*
X185366378Y-81198719D01*
X185431289Y-81202105D01*
X185431289Y-81033958D01*
X185431919Y-80960959D01*
X185434553Y-80907517D01*
X185440309Y-80870628D01*
X185450304Y-80847288D01*
X185465656Y-80834494D01*
X185487482Y-80829242D01*
X185507738Y-80828445D01*
X185532592Y-80830923D01*
X185550906Y-80840277D01*
X185563637Y-80859383D01*
X185571741Y-80891118D01*
X185576176Y-80938359D01*
X185577899Y-81003983D01*
X185578045Y-81039801D01*
X185578045Y-81200978D01*
X185736089Y-81200978D01*
X185736089Y-80952622D01*
X185736202Y-80871213D01*
X185736712Y-80809342D01*
X185737870Y-80763968D01*
X185739930Y-80732054D01*
X185743146Y-80710559D01*
X185747772Y-80696443D01*
X185754059Y-80686668D01*
X185758667Y-80681689D01*
X185785560Y-80664610D01*
X185809467Y-80659111D01*
X185838667Y-80666963D01*
X185860267Y-80681689D01*
X185867066Y-80689546D01*
X185872346Y-80699688D01*
X185876298Y-80714844D01*
X185879113Y-80737741D01*
X185880982Y-80771109D01*
X185882098Y-80817675D01*
X185882651Y-80880167D01*
X185882833Y-80961314D01*
X185882845Y-81003422D01*
X185882765Y-81093598D01*
X185882398Y-81163924D01*
X185881552Y-81217129D01*
X185880036Y-81255940D01*
X185877659Y-81283087D01*
X185874229Y-81301298D01*
X185869554Y-81313300D01*
X185863444Y-81321822D01*
X185860267Y-81325156D01*
X185852670Y-81331755D01*
X185842870Y-81336927D01*
X185828239Y-81340846D01*
X185806152Y-81343684D01*
X185773982Y-81345615D01*
X185729103Y-81346812D01*
X185668889Y-81347448D01*
X185590713Y-81347697D01*
X185517923Y-81347734D01*
X185424707Y-81347700D01*
X185351431Y-81347465D01*
X185295458Y-81346830D01*
X185254151Y-81345594D01*
X185224872Y-81343556D01*
X185204984Y-81340517D01*
X185191850Y-81336277D01*
X185182832Y-81330635D01*
X185175293Y-81323391D01*
X185173612Y-81321606D01*
X185166172Y-81312945D01*
X185160409Y-81302882D01*
X185156112Y-81288625D01*
X185153064Y-81267383D01*
X185151051Y-81236364D01*
X185149860Y-81192777D01*
X185149275Y-81133831D01*
X185149083Y-81056734D01*
X185149067Y-81002001D01*
X185149146Y-80912794D01*
G37*
X185149146Y-80912794D02*
X185149518Y-80843386D01*
X185150385Y-80790997D01*
X185151946Y-80752847D01*
X185154403Y-80726159D01*
X185157957Y-80708153D01*
X185162810Y-80696049D01*
X185169161Y-80687069D01*
X185172084Y-80683818D01*
X185203142Y-80664043D01*
X185238828Y-80660482D01*
X185270510Y-80673491D01*
X185276913Y-80679506D01*
X185283121Y-80689235D01*
X185287910Y-80704901D01*
X185291514Y-80729408D01*
X185294164Y-80765661D01*
X185296095Y-80816565D01*
X185297539Y-80885026D01*
X185298418Y-80947617D01*
X185301467Y-81195334D01*
X185366378Y-81198719D01*
X185431289Y-81202105D01*
X185431289Y-81033958D01*
X185431919Y-80960959D01*
X185434553Y-80907517D01*
X185440309Y-80870628D01*
X185450304Y-80847288D01*
X185465656Y-80834494D01*
X185487482Y-80829242D01*
X185507738Y-80828445D01*
X185532592Y-80830923D01*
X185550906Y-80840277D01*
X185563637Y-80859383D01*
X185571741Y-80891118D01*
X185576176Y-80938359D01*
X185577899Y-81003983D01*
X185578045Y-81039801D01*
X185578045Y-81200978D01*
X185736089Y-81200978D01*
X185736089Y-80952622D01*
X185736202Y-80871213D01*
X185736712Y-80809342D01*
X185737870Y-80763968D01*
X185739930Y-80732054D01*
X185743146Y-80710559D01*
X185747772Y-80696443D01*
X185754059Y-80686668D01*
X185758667Y-80681689D01*
X185785560Y-80664610D01*
X185809467Y-80659111D01*
X185838667Y-80666963D01*
X185860267Y-80681689D01*
X185867066Y-80689546D01*
X185872346Y-80699688D01*
X185876298Y-80714844D01*
X185879113Y-80737741D01*
X185880982Y-80771109D01*
X185882098Y-80817675D01*
X185882651Y-80880167D01*
X185882833Y-80961314D01*
X185882845Y-81003422D01*
X185882765Y-81093598D01*
X185882398Y-81163924D01*
X185881552Y-81217129D01*
X185880036Y-81255940D01*
X185877659Y-81283087D01*
X185874229Y-81301298D01*
X185869554Y-81313300D01*
X185863444Y-81321822D01*
X185860267Y-81325156D01*
X185852670Y-81331755D01*
X185842870Y-81336927D01*
X185828239Y-81340846D01*
X185806152Y-81343684D01*
X185773982Y-81345615D01*
X185729103Y-81346812D01*
X185668889Y-81347448D01*
X185590713Y-81347697D01*
X185517923Y-81347734D01*
X185424707Y-81347700D01*
X185351431Y-81347465D01*
X185295458Y-81346830D01*
X185254151Y-81345594D01*
X185224872Y-81343556D01*
X185204984Y-81340517D01*
X185191850Y-81336277D01*
X185182832Y-81330635D01*
X185175293Y-81323391D01*
X185173612Y-81321606D01*
X185166172Y-81312945D01*
X185160409Y-81302882D01*
X185156112Y-81288625D01*
X185153064Y-81267383D01*
X185151051Y-81236364D01*
X185149860Y-81192777D01*
X185149275Y-81133831D01*
X185149083Y-81056734D01*
X185149067Y-81002001D01*
X185149146Y-80912794D01*
G36*
X185149066Y-82321371D02*
G01*
X185149467Y-82281889D01*
X185152259Y-82166200D01*
X185160550Y-82069311D01*
X185175232Y-81987919D01*
X185197193Y-81918723D01*
X185227322Y-81858420D01*
X185266510Y-81803708D01*
X185283532Y-81784167D01*
X185323363Y-81751750D01*
X185377413Y-81722520D01*
X185437323Y-81699991D01*
X185494739Y-81687679D01*
X185515956Y-81686400D01*
X185574769Y-81694417D01*
X185639013Y-81715899D01*
X185699821Y-81746999D01*
X185748330Y-81783866D01*
X185754182Y-81789854D01*
X185795321Y-81840579D01*
X185827435Y-81896125D01*
X185851365Y-81959696D01*
X185867953Y-82034494D01*
X185878041Y-82123722D01*
X185882469Y-82230582D01*
X185882845Y-82279528D01*
X185882545Y-82341762D01*
X185881292Y-82385528D01*
X185878554Y-82414931D01*
X185873801Y-82434079D01*
X185866501Y-82447077D01*
X185860267Y-82454045D01*
X185852694Y-82460626D01*
X185842924Y-82465788D01*
X185828340Y-82469703D01*
X185806326Y-82472543D01*
X185774264Y-82474480D01*
X185729536Y-82475684D01*
X185669526Y-82476328D01*
X185591617Y-82476583D01*
X185515956Y-82476622D01*
X185415041Y-82476870D01*
X185334427Y-82476817D01*
X185295822Y-82475857D01*
X185295822Y-82329867D01*
X185736089Y-82329867D01*
X185736004Y-82236734D01*
X185734396Y-82180693D01*
X185730256Y-82121999D01*
X185724464Y-82073028D01*
X185724226Y-82071538D01*
X185705090Y-81992392D01*
X185675287Y-81931002D01*
X185632878Y-81884305D01*
X185586961Y-81854635D01*
X185536026Y-81836353D01*
X185488200Y-81837771D01*
X185436933Y-81858988D01*
X185383899Y-81900489D01*
X185344600Y-81957998D01*
X185318331Y-82032750D01*
X185309035Y-82082708D01*
X185302507Y-82139416D01*
X185297782Y-82199519D01*
X185295817Y-82250639D01*
X185295808Y-82253667D01*
X185295822Y-82329867D01*
X185295822Y-82475857D01*
X185271851Y-82475260D01*
X185225055Y-82470998D01*
X185191778Y-82462830D01*
X185169759Y-82449556D01*
X185156739Y-82429974D01*
X185150457Y-82402883D01*
X185148653Y-82367082D01*
X185149066Y-82321371D01*
G37*
X185149066Y-82321371D02*
X185149467Y-82281889D01*
X185152259Y-82166200D01*
X185160550Y-82069311D01*
X185175232Y-81987919D01*
X185197193Y-81918723D01*
X185227322Y-81858420D01*
X185266510Y-81803708D01*
X185283532Y-81784167D01*
X185323363Y-81751750D01*
X185377413Y-81722520D01*
X185437323Y-81699991D01*
X185494739Y-81687679D01*
X185515956Y-81686400D01*
X185574769Y-81694417D01*
X185639013Y-81715899D01*
X185699821Y-81746999D01*
X185748330Y-81783866D01*
X185754182Y-81789854D01*
X185795321Y-81840579D01*
X185827435Y-81896125D01*
X185851365Y-81959696D01*
X185867953Y-82034494D01*
X185878041Y-82123722D01*
X185882469Y-82230582D01*
X185882845Y-82279528D01*
X185882545Y-82341762D01*
X185881292Y-82385528D01*
X185878554Y-82414931D01*
X185873801Y-82434079D01*
X185866501Y-82447077D01*
X185860267Y-82454045D01*
X185852694Y-82460626D01*
X185842924Y-82465788D01*
X185828340Y-82469703D01*
X185806326Y-82472543D01*
X185774264Y-82474480D01*
X185729536Y-82475684D01*
X185669526Y-82476328D01*
X185591617Y-82476583D01*
X185515956Y-82476622D01*
X185415041Y-82476870D01*
X185334427Y-82476817D01*
X185295822Y-82475857D01*
X185295822Y-82329867D01*
X185736089Y-82329867D01*
X185736004Y-82236734D01*
X185734396Y-82180693D01*
X185730256Y-82121999D01*
X185724464Y-82073028D01*
X185724226Y-82071538D01*
X185705090Y-81992392D01*
X185675287Y-81931002D01*
X185632878Y-81884305D01*
X185586961Y-81854635D01*
X185536026Y-81836353D01*
X185488200Y-81837771D01*
X185436933Y-81858988D01*
X185383899Y-81900489D01*
X185344600Y-81957998D01*
X185318331Y-82032750D01*
X185309035Y-82082708D01*
X185302507Y-82139416D01*
X185297782Y-82199519D01*
X185295817Y-82250639D01*
X185295808Y-82253667D01*
X185295822Y-82329867D01*
X185295822Y-82475857D01*
X185271851Y-82475260D01*
X185225055Y-82470998D01*
X185191778Y-82462830D01*
X185169759Y-82449556D01*
X185156739Y-82429974D01*
X185150457Y-82402883D01*
X185148653Y-82367082D01*
X185149066Y-82321371D01*
G36*
X179906571Y-78473043D02*
G01*
X179930809Y-78376768D01*
X179973641Y-78290184D01*
X180033419Y-78215373D01*
X180108494Y-78154418D01*
X180197220Y-78109399D01*
X180293530Y-78083136D01*
X180390795Y-78077286D01*
X180484654Y-78092140D01*
X180572511Y-78125840D01*
X180651770Y-78176528D01*
X180719836Y-78242345D01*
X180774112Y-78321434D01*
X180812002Y-78411934D01*
X180824426Y-78463200D01*
X180831947Y-78507698D01*
X180834919Y-78541999D01*
X180833094Y-78574960D01*
X180826225Y-78615434D01*
X180819250Y-78648531D01*
X180787741Y-78741947D01*
X180736617Y-78825619D01*
X180667429Y-78897665D01*
X180581728Y-78956200D01*
X180554489Y-78970148D01*
X180518122Y-78986586D01*
X180487582Y-78996894D01*
X180455450Y-79002460D01*
X180414307Y-79004669D01*
X180368222Y-79004948D01*
X180283865Y-79000861D01*
X180214586Y-78987446D01*
X180153961Y-78962256D01*
X180095567Y-78922846D01*
X180051302Y-78884298D01*
X179985484Y-78812406D01*
X179940053Y-78737313D01*
X179912850Y-78654562D01*
X179902576Y-78576928D01*
X179906571Y-78473043D01*
G37*
X179906571Y-78473043D02*
X179930809Y-78376768D01*
X179973641Y-78290184D01*
X180033419Y-78215373D01*
X180108494Y-78154418D01*
X180197220Y-78109399D01*
X180293530Y-78083136D01*
X180390795Y-78077286D01*
X180484654Y-78092140D01*
X180572511Y-78125840D01*
X180651770Y-78176528D01*
X180719836Y-78242345D01*
X180774112Y-78321434D01*
X180812002Y-78411934D01*
X180824426Y-78463200D01*
X180831947Y-78507698D01*
X180834919Y-78541999D01*
X180833094Y-78574960D01*
X180826225Y-78615434D01*
X180819250Y-78648531D01*
X180787741Y-78741947D01*
X180736617Y-78825619D01*
X180667429Y-78897665D01*
X180581728Y-78956200D01*
X180554489Y-78970148D01*
X180518122Y-78986586D01*
X180487582Y-78996894D01*
X180455450Y-79002460D01*
X180414307Y-79004669D01*
X180368222Y-79004948D01*
X180283865Y-79000861D01*
X180214586Y-78987446D01*
X180153961Y-78962256D01*
X180095567Y-78922846D01*
X180051302Y-78884298D01*
X179985484Y-78812406D01*
X179940053Y-78737313D01*
X179912850Y-78654562D01*
X179902576Y-78576928D01*
X179906571Y-78473043D01*
G36*
X182352245Y-70013493D02*
G01*
X182586662Y-70013474D01*
X182799603Y-70013448D01*
X182992168Y-70013375D01*
X183165459Y-70013218D01*
X183320576Y-70012936D01*
X183458620Y-70012491D01*
X183580692Y-70011844D01*
X183687894Y-70010955D01*
X183781326Y-70009787D01*
X183862090Y-70008299D01*
X183931286Y-70006454D01*
X183990015Y-70004211D01*
X184039379Y-70001531D01*
X184080478Y-69998377D01*
X184114413Y-69994708D01*
X184142286Y-69990487D01*
X184165198Y-69985673D01*
X184184249Y-69980227D01*
X184200540Y-69974112D01*
X184215173Y-69967288D01*
X184229249Y-69959715D01*
X184243868Y-69951355D01*
X184252974Y-69946161D01*
X184313689Y-69911896D01*
X184313689Y-70770045D01*
X184217733Y-70770045D01*
X184174370Y-70770776D01*
X184141205Y-70772728D01*
X184123424Y-70775537D01*
X184121778Y-70776779D01*
X184128662Y-70788201D01*
X184146505Y-70810916D01*
X184165879Y-70833615D01*
X184206614Y-70888200D01*
X184247617Y-70957679D01*
X184285123Y-71034730D01*
X184315364Y-71112035D01*
X184325012Y-71142887D01*
X184339578Y-71211384D01*
X184349539Y-71294236D01*
X184354583Y-71383629D01*
X184354396Y-71471752D01*
X184348666Y-71550793D01*
X184342858Y-71588489D01*
X184304797Y-71726586D01*
X184247073Y-71853887D01*
X184170211Y-71969708D01*
X184074739Y-72073363D01*
X183961179Y-72164167D01*
X183850381Y-72230969D01*
X183733625Y-72285836D01*
X183614276Y-72327837D01*
X183488283Y-72357833D01*
X183351594Y-72376689D01*
X183200158Y-72385268D01*
X183122711Y-72385994D01*
X183065934Y-72383900D01*
X183065934Y-71554783D01*
X183159002Y-71554576D01*
X183246692Y-71551663D01*
X183323772Y-71546000D01*
X183385009Y-71537545D01*
X183397350Y-71534962D01*
X183504633Y-71503160D01*
X183591658Y-71461502D01*
X183658642Y-71409637D01*
X183705805Y-71347219D01*
X183733365Y-71273900D01*
X183741541Y-71189331D01*
X183730551Y-71093165D01*
X183714829Y-71029689D01*
X183696639Y-70980546D01*
X183670791Y-70926417D01*
X183647089Y-70885756D01*
X183600721Y-70815200D01*
X182450530Y-70815200D01*
X182406962Y-70882608D01*
X182366040Y-70961133D01*
X182339389Y-71045319D01*
X182327465Y-71130443D01*
X182330722Y-71211784D01*
X182349615Y-71284620D01*
X182365184Y-71316574D01*
X182408181Y-71374499D01*
X182464953Y-71423456D01*
X182537575Y-71464610D01*
X182628121Y-71499126D01*
X182738666Y-71528167D01*
X182744533Y-71529448D01*
X182806788Y-71539619D01*
X182884594Y-71547261D01*
X182972720Y-71552330D01*
X183065934Y-71554783D01*
X183065934Y-72383900D01*
X182909895Y-72378143D01*
X182714059Y-72356198D01*
X182535332Y-72320214D01*
X182373845Y-72270241D01*
X182229726Y-72206332D01*
X182103106Y-72128538D01*
X181994115Y-72036911D01*
X181902883Y-71931503D01*
X181871932Y-71886338D01*
X181815785Y-71785389D01*
X181776174Y-71682099D01*
X181752014Y-71572011D01*
X181742219Y-71450670D01*
X181743265Y-71358164D01*
X181754231Y-71228510D01*
X181776046Y-71115916D01*
X181809714Y-71017125D01*
X181856236Y-70928879D01*
X181890448Y-70880014D01*
X181912362Y-70850647D01*
X181927333Y-70828957D01*
X181931733Y-70820747D01*
X181920904Y-70819132D01*
X181890251Y-70817841D01*
X181842526Y-70816862D01*
X181780479Y-70816183D01*
X181706862Y-70815790D01*
X181624427Y-70815670D01*
X181535925Y-70815812D01*
X181444107Y-70816203D01*
X181351724Y-70816829D01*
X181261528Y-70817680D01*
X181176271Y-70818740D01*
X181098703Y-70819999D01*
X181031576Y-70821444D01*
X180977641Y-70823062D01*
X180939650Y-70824839D01*
X180932667Y-70825331D01*
X180862251Y-70832908D01*
X180807102Y-70844469D01*
X180759981Y-70862208D01*
X180713647Y-70888318D01*
X180704067Y-70894585D01*
X180667378Y-70919017D01*
X180667378Y-70013689D01*
X182352245Y-70013493D01*
G37*
X182352245Y-70013493D02*
X182586662Y-70013474D01*
X182799603Y-70013448D01*
X182992168Y-70013375D01*
X183165459Y-70013218D01*
X183320576Y-70012936D01*
X183458620Y-70012491D01*
X183580692Y-70011844D01*
X183687894Y-70010955D01*
X183781326Y-70009787D01*
X183862090Y-70008299D01*
X183931286Y-70006454D01*
X183990015Y-70004211D01*
X184039379Y-70001531D01*
X184080478Y-69998377D01*
X184114413Y-69994708D01*
X184142286Y-69990487D01*
X184165198Y-69985673D01*
X184184249Y-69980227D01*
X184200540Y-69974112D01*
X184215173Y-69967288D01*
X184229249Y-69959715D01*
X184243868Y-69951355D01*
X184252974Y-69946161D01*
X184313689Y-69911896D01*
X184313689Y-70770045D01*
X184217733Y-70770045D01*
X184174370Y-70770776D01*
X184141205Y-70772728D01*
X184123424Y-70775537D01*
X184121778Y-70776779D01*
X184128662Y-70788201D01*
X184146505Y-70810916D01*
X184165879Y-70833615D01*
X184206614Y-70888200D01*
X184247617Y-70957679D01*
X184285123Y-71034730D01*
X184315364Y-71112035D01*
X184325012Y-71142887D01*
X184339578Y-71211384D01*
X184349539Y-71294236D01*
X184354583Y-71383629D01*
X184354396Y-71471752D01*
X184348666Y-71550793D01*
X184342858Y-71588489D01*
X184304797Y-71726586D01*
X184247073Y-71853887D01*
X184170211Y-71969708D01*
X184074739Y-72073363D01*
X183961179Y-72164167D01*
X183850381Y-72230969D01*
X183733625Y-72285836D01*
X183614276Y-72327837D01*
X183488283Y-72357833D01*
X183351594Y-72376689D01*
X183200158Y-72385268D01*
X183122711Y-72385994D01*
X183065934Y-72383900D01*
X183065934Y-71554783D01*
X183159002Y-71554576D01*
X183246692Y-71551663D01*
X183323772Y-71546000D01*
X183385009Y-71537545D01*
X183397350Y-71534962D01*
X183504633Y-71503160D01*
X183591658Y-71461502D01*
X183658642Y-71409637D01*
X183705805Y-71347219D01*
X183733365Y-71273900D01*
X183741541Y-71189331D01*
X183730551Y-71093165D01*
X183714829Y-71029689D01*
X183696639Y-70980546D01*
X183670791Y-70926417D01*
X183647089Y-70885756D01*
X183600721Y-70815200D01*
X182450530Y-70815200D01*
X182406962Y-70882608D01*
X182366040Y-70961133D01*
X182339389Y-71045319D01*
X182327465Y-71130443D01*
X182330722Y-71211784D01*
X182349615Y-71284620D01*
X182365184Y-71316574D01*
X182408181Y-71374499D01*
X182464953Y-71423456D01*
X182537575Y-71464610D01*
X182628121Y-71499126D01*
X182738666Y-71528167D01*
X182744533Y-71529448D01*
X182806788Y-71539619D01*
X182884594Y-71547261D01*
X182972720Y-71552330D01*
X183065934Y-71554783D01*
X183065934Y-72383900D01*
X182909895Y-72378143D01*
X182714059Y-72356198D01*
X182535332Y-72320214D01*
X182373845Y-72270241D01*
X182229726Y-72206332D01*
X182103106Y-72128538D01*
X181994115Y-72036911D01*
X181902883Y-71931503D01*
X181871932Y-71886338D01*
X181815785Y-71785389D01*
X181776174Y-71682099D01*
X181752014Y-71572011D01*
X181742219Y-71450670D01*
X181743265Y-71358164D01*
X181754231Y-71228510D01*
X181776046Y-71115916D01*
X181809714Y-71017125D01*
X181856236Y-70928879D01*
X181890448Y-70880014D01*
X181912362Y-70850647D01*
X181927333Y-70828957D01*
X181931733Y-70820747D01*
X181920904Y-70819132D01*
X181890251Y-70817841D01*
X181842526Y-70816862D01*
X181780479Y-70816183D01*
X181706862Y-70815790D01*
X181624427Y-70815670D01*
X181535925Y-70815812D01*
X181444107Y-70816203D01*
X181351724Y-70816829D01*
X181261528Y-70817680D01*
X181176271Y-70818740D01*
X181098703Y-70819999D01*
X181031576Y-70821444D01*
X180977641Y-70823062D01*
X180939650Y-70824839D01*
X180932667Y-70825331D01*
X180862251Y-70832908D01*
X180807102Y-70844469D01*
X180759981Y-70862208D01*
X180713647Y-70888318D01*
X180704067Y-70894585D01*
X180667378Y-70919017D01*
X180667378Y-70013689D01*
X182352245Y-70013493D01*
G36*
X181746552Y-73526426D02*
G01*
X181766567Y-73374508D01*
X181800202Y-73239244D01*
X181847725Y-73119761D01*
X181909405Y-73015185D01*
X181972965Y-72937576D01*
X182047099Y-72868735D01*
X182126871Y-72814994D01*
X182219091Y-72772090D01*
X182262161Y-72756616D01*
X182301142Y-72743756D01*
X182337289Y-72732554D01*
X182372434Y-72722880D01*
X182408410Y-72714604D01*
X182447050Y-72707597D01*
X182490185Y-72701728D01*
X182539649Y-72696869D01*
X182597273Y-72692890D01*
X182664891Y-72689660D01*
X182744334Y-72687051D01*
X182837436Y-72684933D01*
X182946027Y-72683176D01*
X183071942Y-72681651D01*
X183217012Y-72680228D01*
X183359778Y-72678975D01*
X183515968Y-72677649D01*
X183651239Y-72676444D01*
X183767246Y-72675234D01*
X183865645Y-72673894D01*
X183948093Y-72672300D01*
X184016246Y-72670325D01*
X184071760Y-72667844D01*
X184116292Y-72664731D01*
X184151498Y-72660862D01*
X184179034Y-72656111D01*
X184200556Y-72650352D01*
X184217722Y-72643461D01*
X184232186Y-72635311D01*
X184245606Y-72625777D01*
X184259638Y-72614734D01*
X184265071Y-72610434D01*
X184287910Y-72594614D01*
X184303463Y-72587578D01*
X184303922Y-72587556D01*
X184306121Y-72598433D01*
X184308147Y-72629418D01*
X184309942Y-72678043D01*
X184311451Y-72741837D01*
X184312616Y-72818331D01*
X184313380Y-72905056D01*
X184313686Y-72999543D01*
X184313689Y-73010450D01*
X184313689Y-73433343D01*
X184217622Y-73436605D01*
X184121556Y-73439867D01*
X184172543Y-73501956D01*
X184240057Y-73599286D01*
X184294749Y-73709187D01*
X184324978Y-73795651D01*
X184339666Y-73864722D01*
X184349659Y-73948075D01*
X184354646Y-74037841D01*
X184354313Y-74126155D01*
X184348351Y-74205149D01*
X184342638Y-74241378D01*
X184304776Y-74381397D01*
X184249932Y-74507822D01*
X184178924Y-74619740D01*
X184092568Y-74716238D01*
X183991679Y-74796400D01*
X183877076Y-74859313D01*
X183750984Y-74903688D01*
X183694401Y-74916022D01*
X183632202Y-74923632D01*
X183557363Y-74927261D01*
X183523467Y-74927755D01*
X183520282Y-74927690D01*
X183520282Y-74167752D01*
X183595333Y-74158459D01*
X183659160Y-74130272D01*
X183714798Y-74081803D01*
X183719211Y-74076746D01*
X183754037Y-74028452D01*
X183776620Y-73976743D01*
X183788540Y-73916011D01*
X183791383Y-73840648D01*
X183790978Y-73822541D01*
X183788325Y-73768722D01*
X183782909Y-73728692D01*
X183772745Y-73693676D01*
X183755850Y-73654897D01*
X183750672Y-73644255D01*
X183714844Y-73583604D01*
X183672212Y-73536785D01*
X183656973Y-73524048D01*
X183600462Y-73479378D01*
X183404586Y-73479378D01*
X183325939Y-73479914D01*
X183267988Y-73481604D01*
X183228875Y-73484572D01*
X183206741Y-73488943D01*
X183200274Y-73493028D01*
X183197111Y-73508953D01*
X183194488Y-73542736D01*
X183192655Y-73589660D01*
X183191857Y-73645007D01*
X183191842Y-73653894D01*
X183197096Y-73774670D01*
X183213263Y-73877340D01*
X183240961Y-73963894D01*
X183280808Y-74036319D01*
X183327758Y-74091249D01*
X183385645Y-74135796D01*
X183448693Y-74160520D01*
X183520282Y-74167752D01*
X183520282Y-74927690D01*
X183429712Y-74925822D01*
X183350812Y-74917478D01*
X183279590Y-74901232D01*
X183208864Y-74875595D01*
X183156493Y-74851599D01*
X183061196Y-74792980D01*
X182973170Y-74714883D01*
X182894017Y-74619685D01*
X182825340Y-74509762D01*
X182768741Y-74387490D01*
X182725821Y-74255245D01*
X182710882Y-74190578D01*
X182688777Y-74054396D01*
X182674194Y-73905951D01*
X182667813Y-73754495D01*
X182669445Y-73627936D01*
X182676224Y-73466050D01*
X182617245Y-73473470D01*
X182518092Y-73492762D01*
X182437372Y-73523896D01*
X182374466Y-73567731D01*
X182328756Y-73625129D01*
X182299622Y-73696952D01*
X182286447Y-73784059D01*
X182288611Y-73887314D01*
X182292612Y-73925289D01*
X182317780Y-74066480D01*
X182358814Y-74203293D01*
X182396815Y-74297822D01*
X182416190Y-74342982D01*
X182431760Y-74381415D01*
X182441405Y-74407766D01*
X182443452Y-74415454D01*
X182434374Y-74425198D01*
X182405405Y-74441917D01*
X182356217Y-74465768D01*
X182286484Y-74496907D01*
X182195879Y-74535493D01*
X182180089Y-74542090D01*
X182107772Y-74572147D01*
X182042425Y-74599126D01*
X181986906Y-74621864D01*
X181944072Y-74639194D01*
X181916781Y-74649952D01*
X181907942Y-74653059D01*
X181903187Y-74643060D01*
X181897910Y-74616783D01*
X181894231Y-74588511D01*
X181889474Y-74558354D01*
X181880028Y-74510567D01*
X181866820Y-74449388D01*
X181850776Y-74379054D01*
X181832820Y-74303806D01*
X181825797Y-74275245D01*
X181800209Y-74170184D01*
X181780147Y-74082520D01*
X181764969Y-74007932D01*
X181754035Y-73942097D01*
X181746704Y-73880693D01*
X181742335Y-73819398D01*
X181740287Y-73753890D01*
X181739889Y-73695872D01*
X181746552Y-73526426D01*
G37*
X181746552Y-73526426D02*
X181766567Y-73374508D01*
X181800202Y-73239244D01*
X181847725Y-73119761D01*
X181909405Y-73015185D01*
X181972965Y-72937576D01*
X182047099Y-72868735D01*
X182126871Y-72814994D01*
X182219091Y-72772090D01*
X182262161Y-72756616D01*
X182301142Y-72743756D01*
X182337289Y-72732554D01*
X182372434Y-72722880D01*
X182408410Y-72714604D01*
X182447050Y-72707597D01*
X182490185Y-72701728D01*
X182539649Y-72696869D01*
X182597273Y-72692890D01*
X182664891Y-72689660D01*
X182744334Y-72687051D01*
X182837436Y-72684933D01*
X182946027Y-72683176D01*
X183071942Y-72681651D01*
X183217012Y-72680228D01*
X183359778Y-72678975D01*
X183515968Y-72677649D01*
X183651239Y-72676444D01*
X183767246Y-72675234D01*
X183865645Y-72673894D01*
X183948093Y-72672300D01*
X184016246Y-72670325D01*
X184071760Y-72667844D01*
X184116292Y-72664731D01*
X184151498Y-72660862D01*
X184179034Y-72656111D01*
X184200556Y-72650352D01*
X184217722Y-72643461D01*
X184232186Y-72635311D01*
X184245606Y-72625777D01*
X184259638Y-72614734D01*
X184265071Y-72610434D01*
X184287910Y-72594614D01*
X184303463Y-72587578D01*
X184303922Y-72587556D01*
X184306121Y-72598433D01*
X184308147Y-72629418D01*
X184309942Y-72678043D01*
X184311451Y-72741837D01*
X184312616Y-72818331D01*
X184313380Y-72905056D01*
X184313686Y-72999543D01*
X184313689Y-73010450D01*
X184313689Y-73433343D01*
X184217622Y-73436605D01*
X184121556Y-73439867D01*
X184172543Y-73501956D01*
X184240057Y-73599286D01*
X184294749Y-73709187D01*
X184324978Y-73795651D01*
X184339666Y-73864722D01*
X184349659Y-73948075D01*
X184354646Y-74037841D01*
X184354313Y-74126155D01*
X184348351Y-74205149D01*
X184342638Y-74241378D01*
X184304776Y-74381397D01*
X184249932Y-74507822D01*
X184178924Y-74619740D01*
X184092568Y-74716238D01*
X183991679Y-74796400D01*
X183877076Y-74859313D01*
X183750984Y-74903688D01*
X183694401Y-74916022D01*
X183632202Y-74923632D01*
X183557363Y-74927261D01*
X183523467Y-74927755D01*
X183520282Y-74927690D01*
X183520282Y-74167752D01*
X183595333Y-74158459D01*
X183659160Y-74130272D01*
X183714798Y-74081803D01*
X183719211Y-74076746D01*
X183754037Y-74028452D01*
X183776620Y-73976743D01*
X183788540Y-73916011D01*
X183791383Y-73840648D01*
X183790978Y-73822541D01*
X183788325Y-73768722D01*
X183782909Y-73728692D01*
X183772745Y-73693676D01*
X183755850Y-73654897D01*
X183750672Y-73644255D01*
X183714844Y-73583604D01*
X183672212Y-73536785D01*
X183656973Y-73524048D01*
X183600462Y-73479378D01*
X183404586Y-73479378D01*
X183325939Y-73479914D01*
X183267988Y-73481604D01*
X183228875Y-73484572D01*
X183206741Y-73488943D01*
X183200274Y-73493028D01*
X183197111Y-73508953D01*
X183194488Y-73542736D01*
X183192655Y-73589660D01*
X183191857Y-73645007D01*
X183191842Y-73653894D01*
X183197096Y-73774670D01*
X183213263Y-73877340D01*
X183240961Y-73963894D01*
X183280808Y-74036319D01*
X183327758Y-74091249D01*
X183385645Y-74135796D01*
X183448693Y-74160520D01*
X183520282Y-74167752D01*
X183520282Y-74927690D01*
X183429712Y-74925822D01*
X183350812Y-74917478D01*
X183279590Y-74901232D01*
X183208864Y-74875595D01*
X183156493Y-74851599D01*
X183061196Y-74792980D01*
X182973170Y-74714883D01*
X182894017Y-74619685D01*
X182825340Y-74509762D01*
X182768741Y-74387490D01*
X182725821Y-74255245D01*
X182710882Y-74190578D01*
X182688777Y-74054396D01*
X182674194Y-73905951D01*
X182667813Y-73754495D01*
X182669445Y-73627936D01*
X182676224Y-73466050D01*
X182617245Y-73473470D01*
X182518092Y-73492762D01*
X182437372Y-73523896D01*
X182374466Y-73567731D01*
X182328756Y-73625129D01*
X182299622Y-73696952D01*
X182286447Y-73784059D01*
X182288611Y-73887314D01*
X182292612Y-73925289D01*
X182317780Y-74066480D01*
X182358814Y-74203293D01*
X182396815Y-74297822D01*
X182416190Y-74342982D01*
X182431760Y-74381415D01*
X182441405Y-74407766D01*
X182443452Y-74415454D01*
X182434374Y-74425198D01*
X182405405Y-74441917D01*
X182356217Y-74465768D01*
X182286484Y-74496907D01*
X182195879Y-74535493D01*
X182180089Y-74542090D01*
X182107772Y-74572147D01*
X182042425Y-74599126D01*
X181986906Y-74621864D01*
X181944072Y-74639194D01*
X181916781Y-74649952D01*
X181907942Y-74653059D01*
X181903187Y-74643060D01*
X181897910Y-74616783D01*
X181894231Y-74588511D01*
X181889474Y-74558354D01*
X181880028Y-74510567D01*
X181866820Y-74449388D01*
X181850776Y-74379054D01*
X181832820Y-74303806D01*
X181825797Y-74275245D01*
X181800209Y-74170184D01*
X181780147Y-74082520D01*
X181764969Y-74007932D01*
X181754035Y-73942097D01*
X181746704Y-73880693D01*
X181742335Y-73819398D01*
X181740287Y-73753890D01*
X181739889Y-73695872D01*
X181746552Y-73526426D01*
G36*
X180829071Y-75871571D02*
G01*
X180850245Y-75711430D01*
X180890385Y-75547490D01*
X180949889Y-75377687D01*
X181029154Y-75199957D01*
X181034699Y-75188690D01*
X181062725Y-75130995D01*
X181086802Y-75079448D01*
X181105249Y-75037809D01*
X181116386Y-75009838D01*
X181118933Y-75000267D01*
X181123941Y-74981050D01*
X181128147Y-74976439D01*
X181138580Y-74981542D01*
X181164868Y-74997582D01*
X181204257Y-75022712D01*
X181253991Y-75055086D01*
X181311315Y-75092857D01*
X181373476Y-75134178D01*
X181437718Y-75177202D01*
X181501285Y-75220083D01*
X181561425Y-75260974D01*
X181615380Y-75298029D01*
X181660397Y-75329400D01*
X181693721Y-75353241D01*
X181712597Y-75367706D01*
X181714787Y-75369691D01*
X181710138Y-75379809D01*
X181692962Y-75402150D01*
X181666440Y-75432720D01*
X181651964Y-75448464D01*
X181576682Y-75544953D01*
X181521241Y-75651664D01*
X181486141Y-75767168D01*
X181471880Y-75890038D01*
X181473051Y-75959439D01*
X181490212Y-76080577D01*
X181526094Y-76189795D01*
X181580959Y-76287418D01*
X181655070Y-76373772D01*
X181748688Y-76449185D01*
X181862076Y-76513982D01*
X181948667Y-76551399D01*
X182084366Y-76595252D01*
X182231850Y-76627572D01*
X182387314Y-76648443D01*
X182546956Y-76657949D01*
X182706973Y-76656173D01*
X182863561Y-76643197D01*
X183012918Y-76619106D01*
X183151240Y-76583982D01*
X183274724Y-76537908D01*
X183308978Y-76521627D01*
X183423064Y-76453380D01*
X183519557Y-76372921D01*
X183597670Y-76281430D01*
X183656617Y-76180089D01*
X183695612Y-76070080D01*
X183713868Y-75952585D01*
X183715211Y-75911117D01*
X183704290Y-75789559D01*
X183671474Y-75669122D01*
X183617439Y-75551334D01*
X183542865Y-75437723D01*
X183464539Y-75346315D01*
X183420008Y-75299785D01*
X183717271Y-75118517D01*
X183791433Y-75073420D01*
X183859646Y-75032181D01*
X183919459Y-74996265D01*
X183968420Y-74967134D01*
X184004079Y-74946250D01*
X184023984Y-74935076D01*
X184027079Y-74933625D01*
X184036718Y-74941854D01*
X184053999Y-74967433D01*
X184077283Y-75007127D01*
X184104934Y-75057703D01*
X184135315Y-75115926D01*
X184166790Y-75178563D01*
X184197722Y-75242379D01*
X184226473Y-75304140D01*
X184251408Y-75360612D01*
X184270889Y-75408562D01*
X184279318Y-75432014D01*
X184317133Y-75565779D01*
X184342136Y-75703673D01*
X184355140Y-75851378D01*
X184357468Y-75978167D01*
X184356373Y-76046122D01*
X184354275Y-76111723D01*
X184351434Y-76169153D01*
X184348106Y-76212597D01*
X184346422Y-76226702D01*
X184317587Y-76365716D01*
X184272468Y-76507243D01*
X184213750Y-76644725D01*
X184144120Y-76771606D01*
X184091441Y-76849111D01*
X183983239Y-76976519D01*
X183856671Y-77094822D01*
X183714866Y-77201828D01*
X183560951Y-77295348D01*
X183398053Y-77373190D01*
X183280756Y-77417044D01*
X183097128Y-77467292D01*
X182902581Y-77500791D01*
X182701325Y-77517551D01*
X182497568Y-77517584D01*
X182295521Y-77500899D01*
X182099392Y-77467507D01*
X181913391Y-77417420D01*
X181901803Y-77413603D01*
X181739750Y-77350719D01*
X181591832Y-77273972D01*
X181453865Y-77180758D01*
X181321661Y-77068473D01*
X181276399Y-77024608D01*
X181152457Y-76888466D01*
X181049915Y-76748509D01*
X180967656Y-76602589D01*
X180904564Y-76448558D01*
X180859523Y-76284268D01*
X180842033Y-76188711D01*
X180826466Y-76029977D01*
X180829071Y-75871571D01*
G37*
X180829071Y-75871571D02*
X180850245Y-75711430D01*
X180890385Y-75547490D01*
X180949889Y-75377687D01*
X181029154Y-75199957D01*
X181034699Y-75188690D01*
X181062725Y-75130995D01*
X181086802Y-75079448D01*
X181105249Y-75037809D01*
X181116386Y-75009838D01*
X181118933Y-75000267D01*
X181123941Y-74981050D01*
X181128147Y-74976439D01*
X181138580Y-74981542D01*
X181164868Y-74997582D01*
X181204257Y-75022712D01*
X181253991Y-75055086D01*
X181311315Y-75092857D01*
X181373476Y-75134178D01*
X181437718Y-75177202D01*
X181501285Y-75220083D01*
X181561425Y-75260974D01*
X181615380Y-75298029D01*
X181660397Y-75329400D01*
X181693721Y-75353241D01*
X181712597Y-75367706D01*
X181714787Y-75369691D01*
X181710138Y-75379809D01*
X181692962Y-75402150D01*
X181666440Y-75432720D01*
X181651964Y-75448464D01*
X181576682Y-75544953D01*
X181521241Y-75651664D01*
X181486141Y-75767168D01*
X181471880Y-75890038D01*
X181473051Y-75959439D01*
X181490212Y-76080577D01*
X181526094Y-76189795D01*
X181580959Y-76287418D01*
X181655070Y-76373772D01*
X181748688Y-76449185D01*
X181862076Y-76513982D01*
X181948667Y-76551399D01*
X182084366Y-76595252D01*
X182231850Y-76627572D01*
X182387314Y-76648443D01*
X182546956Y-76657949D01*
X182706973Y-76656173D01*
X182863561Y-76643197D01*
X183012918Y-76619106D01*
X183151240Y-76583982D01*
X183274724Y-76537908D01*
X183308978Y-76521627D01*
X183423064Y-76453380D01*
X183519557Y-76372921D01*
X183597670Y-76281430D01*
X183656617Y-76180089D01*
X183695612Y-76070080D01*
X183713868Y-75952585D01*
X183715211Y-75911117D01*
X183704290Y-75789559D01*
X183671474Y-75669122D01*
X183617439Y-75551334D01*
X183542865Y-75437723D01*
X183464539Y-75346315D01*
X183420008Y-75299785D01*
X183717271Y-75118517D01*
X183791433Y-75073420D01*
X183859646Y-75032181D01*
X183919459Y-74996265D01*
X183968420Y-74967134D01*
X184004079Y-74946250D01*
X184023984Y-74935076D01*
X184027079Y-74933625D01*
X184036718Y-74941854D01*
X184053999Y-74967433D01*
X184077283Y-75007127D01*
X184104934Y-75057703D01*
X184135315Y-75115926D01*
X184166790Y-75178563D01*
X184197722Y-75242379D01*
X184226473Y-75304140D01*
X184251408Y-75360612D01*
X184270889Y-75408562D01*
X184279318Y-75432014D01*
X184317133Y-75565779D01*
X184342136Y-75703673D01*
X184355140Y-75851378D01*
X184357468Y-75978167D01*
X184356373Y-76046122D01*
X184354275Y-76111723D01*
X184351434Y-76169153D01*
X184348106Y-76212597D01*
X184346422Y-76226702D01*
X184317587Y-76365716D01*
X184272468Y-76507243D01*
X184213750Y-76644725D01*
X184144120Y-76771606D01*
X184091441Y-76849111D01*
X183983239Y-76976519D01*
X183856671Y-77094822D01*
X183714866Y-77201828D01*
X183560951Y-77295348D01*
X183398053Y-77373190D01*
X183280756Y-77417044D01*
X183097128Y-77467292D01*
X182902581Y-77500791D01*
X182701325Y-77517551D01*
X182497568Y-77517584D01*
X182295521Y-77500899D01*
X182099392Y-77467507D01*
X181913391Y-77417420D01*
X181901803Y-77413603D01*
X181739750Y-77350719D01*
X181591832Y-77273972D01*
X181453865Y-77180758D01*
X181321661Y-77068473D01*
X181276399Y-77024608D01*
X181152457Y-76888466D01*
X181049915Y-76748509D01*
X180967656Y-76602589D01*
X180904564Y-76448558D01*
X180859523Y-76284268D01*
X180842033Y-76188711D01*
X180826466Y-76029977D01*
X180829071Y-75871571D01*
G36*
X180369054Y-79146400D02*
G01*
X180482993Y-79135535D01*
X180590616Y-79103918D01*
X180689615Y-79053015D01*
X180777684Y-78984293D01*
X180852516Y-78899219D01*
X180910384Y-78802232D01*
X180950005Y-78695964D01*
X180968573Y-78588950D01*
X180967434Y-78483300D01*
X180947930Y-78381125D01*
X180911406Y-78284534D01*
X180859205Y-78195638D01*
X180792673Y-78116546D01*
X180713152Y-78049369D01*
X180621987Y-77996217D01*
X180520523Y-77959199D01*
X180410102Y-77940427D01*
X180360206Y-77938489D01*
X180272267Y-77938489D01*
X180272267Y-77886560D01*
X180275111Y-77850253D01*
X180286911Y-77823355D01*
X180310649Y-77796249D01*
X180349031Y-77757867D01*
X182540602Y-77757867D01*
X182802739Y-77757876D01*
X183043241Y-77757908D01*
X183263048Y-77757972D01*
X183463101Y-77758076D01*
X183644344Y-77758227D01*
X183807716Y-77758434D01*
X183954160Y-77758706D01*
X184084617Y-77759050D01*
X184200029Y-77759474D01*
X184301338Y-77759987D01*
X184389484Y-77760597D01*
X184465410Y-77761312D01*
X184530057Y-77762140D01*
X184584367Y-77763089D01*
X184629280Y-77764167D01*
X184665740Y-77765383D01*
X184694687Y-77766745D01*
X184717063Y-77768261D01*
X184733809Y-77769938D01*
X184745868Y-77771786D01*
X184754180Y-77773813D01*
X184759687Y-77776025D01*
X184761537Y-77777108D01*
X184768549Y-77781271D01*
X184774996Y-77784805D01*
X184780900Y-77788635D01*
X184786286Y-77793682D01*
X184791178Y-77800871D01*
X184795598Y-77811123D01*
X184799572Y-77825364D01*
X184803121Y-77844514D01*
X184806270Y-77869499D01*
X184809042Y-77901240D01*
X184811461Y-77940662D01*
X184813551Y-77988686D01*
X184815335Y-78046237D01*
X184816837Y-78114237D01*
X184818080Y-78193610D01*
X184819089Y-78285279D01*
X184819885Y-78390166D01*
X184820494Y-78509196D01*
X184820939Y-78643290D01*
X184821243Y-78793373D01*
X184821430Y-78960367D01*
X184821524Y-79145196D01*
X184821548Y-79348783D01*
X184821525Y-79572050D01*
X184821480Y-79815922D01*
X184821437Y-80081321D01*
X184821432Y-80119704D01*
X184821389Y-80386682D01*
X184821318Y-80632002D01*
X184821213Y-80856583D01*
X184821066Y-81061345D01*
X184820869Y-81247206D01*
X184820616Y-81415088D01*
X184820300Y-81565908D01*
X184819913Y-81700587D01*
X184819447Y-81820044D01*
X184818897Y-81925199D01*
X184818253Y-82016971D01*
X184817511Y-82096279D01*
X184816661Y-82164043D01*
X184815697Y-82221182D01*
X184814611Y-82268617D01*
X184813397Y-82307266D01*
X184812047Y-82338049D01*
X184810555Y-82361885D01*
X184808911Y-82379694D01*
X184807111Y-82392395D01*
X184805145Y-82400908D01*
X184803477Y-82405266D01*
X184799906Y-82413728D01*
X184797270Y-82421497D01*
X184794634Y-82428602D01*
X184791062Y-82435073D01*
X184785621Y-82440939D01*
X184777375Y-82446229D01*
X184765390Y-82450974D01*
X184748731Y-82455202D01*
X184726463Y-82458943D01*
X184697652Y-82462227D01*
X184661363Y-82465083D01*
X184616661Y-82467540D01*
X184562611Y-82469629D01*
X184498279Y-82471378D01*
X184422730Y-82472817D01*
X184335030Y-82473976D01*
X184234243Y-82474883D01*
X184119434Y-82475569D01*
X183989670Y-82476063D01*
X183844015Y-82476395D01*
X183681535Y-82476593D01*
X183501295Y-82476687D01*
X183302360Y-82476708D01*
X183083796Y-82476685D01*
X182844668Y-82476646D01*
X182584040Y-82476622D01*
X182541889Y-82476622D01*
X182278992Y-82476636D01*
X182037732Y-82476661D01*
X181817165Y-82476671D01*
X181616352Y-82476642D01*
X181434349Y-82476548D01*
X181270216Y-82476362D01*
X181123011Y-82476059D01*
X180991792Y-82475614D01*
X180881867Y-82475034D01*
X180881867Y-82172197D01*
X180939711Y-82132407D01*
X180955479Y-82121236D01*
X180969441Y-82111166D01*
X180982784Y-82102138D01*
X180996693Y-82094097D01*
X181012356Y-82086986D01*
X181030958Y-82080747D01*
X181053686Y-82075325D01*
X181081727Y-82070662D01*
X181116267Y-82066701D01*
X181158492Y-82063385D01*
X181209589Y-82060659D01*
X181270744Y-82058464D01*
X181343144Y-82056745D01*
X181427975Y-82055444D01*
X181526422Y-82054505D01*
X181639674Y-82053870D01*
X181768916Y-82053484D01*
X181915334Y-82053288D01*
X182080116Y-82053227D01*
X182264447Y-82053243D01*
X182469513Y-82053280D01*
X182592133Y-82053289D01*
X182809082Y-82053265D01*
X183004642Y-82053231D01*
X183179999Y-82053243D01*
X183336341Y-82053358D01*
X183474857Y-82053630D01*
X183596734Y-82054118D01*
X183703160Y-82054876D01*
X183795322Y-82055962D01*
X183874409Y-82057431D01*
X183941608Y-82059340D01*
X183998107Y-82061744D01*
X184045093Y-82064701D01*
X184083755Y-82068266D01*
X184115280Y-82072495D01*
X184140855Y-82077446D01*
X184161670Y-82083173D01*
X184178911Y-82089733D01*
X184193765Y-82097183D01*
X184207422Y-82105579D01*
X184221069Y-82114976D01*
X184235893Y-82125432D01*
X184244783Y-82131523D01*
X184302400Y-82170296D01*
X184302400Y-81638732D01*
X184302365Y-81515483D01*
X184302215Y-81412987D01*
X184301878Y-81329420D01*
X184301286Y-81262956D01*
X184300367Y-81211771D01*
X184299051Y-81174041D01*
X184297269Y-81147940D01*
X184294951Y-81131644D01*
X184292026Y-81123328D01*
X184288424Y-81121168D01*
X184284075Y-81123339D01*
X184282645Y-81124535D01*
X184245573Y-81149685D01*
X184192772Y-81175583D01*
X184130770Y-81199192D01*
X184104357Y-81207461D01*
X184086416Y-81212078D01*
X184065355Y-81215979D01*
X184039089Y-81219248D01*
X184005532Y-81221966D01*
X183962599Y-81224215D01*
X183908204Y-81226077D01*
X183840262Y-81227636D01*
X183756688Y-81228972D01*
X183655395Y-81230169D01*
X183534300Y-81231308D01*
X183489600Y-81231685D01*
X183364449Y-81232702D01*
X183260082Y-81233460D01*
X183174707Y-81233903D01*
X183106533Y-81233970D01*
X183053765Y-81233605D01*
X183014614Y-81232748D01*
X182987285Y-81231341D01*
X182969986Y-81229325D01*
X182960926Y-81226643D01*
X182958312Y-81223236D01*
X182960351Y-81219044D01*
X182964667Y-81214571D01*
X182977602Y-81204216D01*
X183006676Y-81182158D01*
X183049759Y-81149957D01*
X183104718Y-81109174D01*
X183169423Y-81061370D01*
X183241742Y-81008105D01*
X183319544Y-80950940D01*
X183400698Y-80891437D01*
X183483072Y-80831155D01*
X183564536Y-80771655D01*
X183642957Y-80714498D01*
X183716204Y-80661245D01*
X183782147Y-80613457D01*
X183838654Y-80572693D01*
X183883593Y-80540516D01*
X183914834Y-80518485D01*
X183921466Y-80513917D01*
X183958369Y-80490996D01*
X184006359Y-80464188D01*
X184055897Y-80438789D01*
X184062577Y-80435568D01*
X184110772Y-80413890D01*
X184148334Y-80401304D01*
X184184160Y-80395574D01*
X184226200Y-80394456D01*
X184302400Y-80395090D01*
X184302400Y-79240651D01*
X184208669Y-79331815D01*
X184158775Y-79378612D01*
X184102295Y-79428899D01*
X184048026Y-79474944D01*
X184022673Y-79495369D01*
X183983128Y-79525807D01*
X183929916Y-79565862D01*
X183864667Y-79614361D01*
X183789011Y-79670135D01*
X183704577Y-79732011D01*
X183612994Y-79798819D01*
X183515892Y-79869387D01*
X183414901Y-79942545D01*
X183311650Y-80017121D01*
X183207768Y-80091944D01*
X183104885Y-80165843D01*
X183004631Y-80237646D01*
X182908636Y-80306184D01*
X182818527Y-80370284D01*
X182735936Y-80428775D01*
X182662492Y-80480486D01*
X182599824Y-80524247D01*
X182549561Y-80558885D01*
X182513334Y-80583230D01*
X182492771Y-80596111D01*
X182488668Y-80597869D01*
X182477342Y-80589910D01*
X182450162Y-80569115D01*
X182408829Y-80536847D01*
X182355044Y-80494470D01*
X182290506Y-80443347D01*
X182216918Y-80384841D01*
X182135978Y-80320314D01*
X182049388Y-80251131D01*
X181958848Y-80178653D01*
X181866060Y-80104246D01*
X181791702Y-80044517D01*
X181791702Y-79033511D01*
X181804659Y-79027602D01*
X181826908Y-79013272D01*
X181828391Y-79012225D01*
X181858544Y-78993438D01*
X181895375Y-78973791D01*
X181903511Y-78969892D01*
X181911940Y-78966356D01*
X181922059Y-78963230D01*
X181935260Y-78960486D01*
X181952938Y-78958092D01*
X181976484Y-78956019D01*
X182007293Y-78954235D01*
X182046757Y-78952712D01*
X182096269Y-78951419D01*
X182157223Y-78950326D01*
X182231011Y-78949403D01*
X182319028Y-78948619D01*
X182422665Y-78947945D01*
X182543316Y-78947350D01*
X182682374Y-78946805D01*
X182841232Y-78946279D01*
X183020089Y-78945745D01*
X183205207Y-78945206D01*
X183369145Y-78944772D01*
X183513303Y-78944509D01*
X183639079Y-78944484D01*
X183747871Y-78944765D01*
X183841077Y-78945419D01*
X183920097Y-78946514D01*
X183986328Y-78948118D01*
X184041170Y-78950297D01*
X184086021Y-78953119D01*
X184122278Y-78956651D01*
X184151341Y-78960961D01*
X184174609Y-78966117D01*
X184193479Y-78972185D01*
X184209351Y-78979233D01*
X184223622Y-78987329D01*
X184237691Y-78996540D01*
X184250158Y-79005040D01*
X184276452Y-79022176D01*
X184294037Y-79032322D01*
X184297257Y-79033511D01*
X184298334Y-79022604D01*
X184299335Y-78991411D01*
X184300235Y-78942223D01*
X184301010Y-78877333D01*
X184301637Y-78799030D01*
X184302091Y-78709607D01*
X184302349Y-78611356D01*
X184302400Y-78542445D01*
X184302180Y-78437452D01*
X184301548Y-78340610D01*
X184300549Y-78254107D01*
X184299227Y-78180132D01*
X184297626Y-78120874D01*
X184295791Y-78078520D01*
X184293765Y-78055260D01*
X184292493Y-78051378D01*
X184277591Y-78059076D01*
X184269560Y-78067074D01*
X184252434Y-78080246D01*
X184222183Y-78097485D01*
X184197622Y-78109407D01*
X184138711Y-78136045D01*
X182961845Y-78139120D01*
X181784978Y-78142195D01*
X181784978Y-78587853D01*
X181785142Y-78685670D01*
X181785611Y-78776064D01*
X181786347Y-78856630D01*
X181787316Y-78924962D01*
X181788480Y-78978656D01*
X181789803Y-79015305D01*
X181791249Y-79032504D01*
X181791702Y-79033511D01*
X181791702Y-80044517D01*
X181772722Y-80029270D01*
X181680537Y-79955090D01*
X181591204Y-79883069D01*
X181506424Y-79814569D01*
X181427898Y-79750955D01*
X181357326Y-79693588D01*
X181296409Y-79643833D01*
X181246847Y-79603052D01*
X181226178Y-79585888D01*
X181125516Y-79499596D01*
X181042259Y-79422997D01*
X180974438Y-79354183D01*
X180920089Y-79291248D01*
X180912722Y-79281867D01*
X180882117Y-79242356D01*
X180881867Y-80374116D01*
X180929844Y-80368827D01*
X180987188Y-80372130D01*
X181055463Y-80393661D01*
X181135212Y-80433635D01*
X181207495Y-80478943D01*
X181230140Y-80495161D01*
X181267696Y-80523214D01*
X181318021Y-80561430D01*
X181378973Y-80608137D01*
X181448411Y-80661661D01*
X181524194Y-80720331D01*
X181604180Y-80782475D01*
X181686228Y-80846421D01*
X181768196Y-80910495D01*
X181847943Y-80973027D01*
X181923327Y-81032343D01*
X181992207Y-81086771D01*
X182052442Y-81134639D01*
X182101889Y-81174275D01*
X182138408Y-81204006D01*
X182159858Y-81222161D01*
X182163156Y-81225220D01*
X182155149Y-81228079D01*
X182124855Y-81230293D01*
X182072556Y-81231857D01*
X181998531Y-81232767D01*
X181903063Y-81233020D01*
X181786434Y-81232613D01*
X181666445Y-81231704D01*
X181534333Y-81230382D01*
X181422594Y-81228857D01*
X181329025Y-81226881D01*
X181251419Y-81224206D01*
X181187574Y-81220582D01*
X181135283Y-81215761D01*
X181092344Y-81209494D01*
X181056551Y-81201532D01*
X181025700Y-81191627D01*
X180997586Y-81179531D01*
X180970005Y-81164993D01*
X180944966Y-81150311D01*
X180881867Y-81112314D01*
X180881867Y-82172197D01*
X180881867Y-82475034D01*
X180875617Y-82475001D01*
X180773544Y-82474195D01*
X180684633Y-82473170D01*
X180607941Y-82471900D01*
X180542527Y-82470360D01*
X180487449Y-82468524D01*
X180441765Y-82466367D01*
X180404534Y-82463863D01*
X180374813Y-82460987D01*
X180351662Y-82457713D01*
X180334139Y-82454015D01*
X180321301Y-82449869D01*
X180312208Y-82445247D01*
X180305918Y-82440126D01*
X180301488Y-82434478D01*
X180297978Y-82428279D01*
X180294445Y-82421504D01*
X180290876Y-82415508D01*
X180288300Y-82410275D01*
X180285972Y-82402099D01*
X180283878Y-82389886D01*
X180282007Y-82372541D01*
X180280347Y-82348969D01*
X180278884Y-82318077D01*
X180277608Y-82278768D01*
X180276504Y-82229950D01*
X180275561Y-82170527D01*
X180274767Y-82099404D01*
X180274109Y-82015488D01*
X180273575Y-81917683D01*
X180273153Y-81804894D01*
X180272829Y-81676029D01*
X180272592Y-81529991D01*
X180272430Y-81365686D01*
X180272330Y-81182020D01*
X180272280Y-80977897D01*
X180272267Y-80766753D01*
X180272267Y-79146400D01*
X180369054Y-79146400D01*
G37*
X180369054Y-79146400D02*
X180482993Y-79135535D01*
X180590616Y-79103918D01*
X180689615Y-79053015D01*
X180777684Y-78984293D01*
X180852516Y-78899219D01*
X180910384Y-78802232D01*
X180950005Y-78695964D01*
X180968573Y-78588950D01*
X180967434Y-78483300D01*
X180947930Y-78381125D01*
X180911406Y-78284534D01*
X180859205Y-78195638D01*
X180792673Y-78116546D01*
X180713152Y-78049369D01*
X180621987Y-77996217D01*
X180520523Y-77959199D01*
X180410102Y-77940427D01*
X180360206Y-77938489D01*
X180272267Y-77938489D01*
X180272267Y-77886560D01*
X180275111Y-77850253D01*
X180286911Y-77823355D01*
X180310649Y-77796249D01*
X180349031Y-77757867D01*
X182540602Y-77757867D01*
X182802739Y-77757876D01*
X183043241Y-77757908D01*
X183263048Y-77757972D01*
X183463101Y-77758076D01*
X183644344Y-77758227D01*
X183807716Y-77758434D01*
X183954160Y-77758706D01*
X184084617Y-77759050D01*
X184200029Y-77759474D01*
X184301338Y-77759987D01*
X184389484Y-77760597D01*
X184465410Y-77761312D01*
X184530057Y-77762140D01*
X184584367Y-77763089D01*
X184629280Y-77764167D01*
X184665740Y-77765383D01*
X184694687Y-77766745D01*
X184717063Y-77768261D01*
X184733809Y-77769938D01*
X184745868Y-77771786D01*
X184754180Y-77773813D01*
X184759687Y-77776025D01*
X184761537Y-77777108D01*
X184768549Y-77781271D01*
X184774996Y-77784805D01*
X184780900Y-77788635D01*
X184786286Y-77793682D01*
X184791178Y-77800871D01*
X184795598Y-77811123D01*
X184799572Y-77825364D01*
X184803121Y-77844514D01*
X184806270Y-77869499D01*
X184809042Y-77901240D01*
X184811461Y-77940662D01*
X184813551Y-77988686D01*
X184815335Y-78046237D01*
X184816837Y-78114237D01*
X184818080Y-78193610D01*
X184819089Y-78285279D01*
X184819885Y-78390166D01*
X184820494Y-78509196D01*
X184820939Y-78643290D01*
X184821243Y-78793373D01*
X184821430Y-78960367D01*
X184821524Y-79145196D01*
X184821548Y-79348783D01*
X184821525Y-79572050D01*
X184821480Y-79815922D01*
X184821437Y-80081321D01*
X184821432Y-80119704D01*
X184821389Y-80386682D01*
X184821318Y-80632002D01*
X184821213Y-80856583D01*
X184821066Y-81061345D01*
X184820869Y-81247206D01*
X184820616Y-81415088D01*
X184820300Y-81565908D01*
X184819913Y-81700587D01*
X184819447Y-81820044D01*
X184818897Y-81925199D01*
X184818253Y-82016971D01*
X184817511Y-82096279D01*
X184816661Y-82164043D01*
X184815697Y-82221182D01*
X184814611Y-82268617D01*
X184813397Y-82307266D01*
X184812047Y-82338049D01*
X184810555Y-82361885D01*
X184808911Y-82379694D01*
X184807111Y-82392395D01*
X184805145Y-82400908D01*
X184803477Y-82405266D01*
X184799906Y-82413728D01*
X184797270Y-82421497D01*
X184794634Y-82428602D01*
X184791062Y-82435073D01*
X184785621Y-82440939D01*
X184777375Y-82446229D01*
X184765390Y-82450974D01*
X184748731Y-82455202D01*
X184726463Y-82458943D01*
X184697652Y-82462227D01*
X184661363Y-82465083D01*
X184616661Y-82467540D01*
X184562611Y-82469629D01*
X184498279Y-82471378D01*
X184422730Y-82472817D01*
X184335030Y-82473976D01*
X184234243Y-82474883D01*
X184119434Y-82475569D01*
X183989670Y-82476063D01*
X183844015Y-82476395D01*
X183681535Y-82476593D01*
X183501295Y-82476687D01*
X183302360Y-82476708D01*
X183083796Y-82476685D01*
X182844668Y-82476646D01*
X182584040Y-82476622D01*
X182541889Y-82476622D01*
X182278992Y-82476636D01*
X182037732Y-82476661D01*
X181817165Y-82476671D01*
X181616352Y-82476642D01*
X181434349Y-82476548D01*
X181270216Y-82476362D01*
X181123011Y-82476059D01*
X180991792Y-82475614D01*
X180881867Y-82475034D01*
X180881867Y-82172197D01*
X180939711Y-82132407D01*
X180955479Y-82121236D01*
X180969441Y-82111166D01*
X180982784Y-82102138D01*
X180996693Y-82094097D01*
X181012356Y-82086986D01*
X181030958Y-82080747D01*
X181053686Y-82075325D01*
X181081727Y-82070662D01*
X181116267Y-82066701D01*
X181158492Y-82063385D01*
X181209589Y-82060659D01*
X181270744Y-82058464D01*
X181343144Y-82056745D01*
X181427975Y-82055444D01*
X181526422Y-82054505D01*
X181639674Y-82053870D01*
X181768916Y-82053484D01*
X181915334Y-82053288D01*
X182080116Y-82053227D01*
X182264447Y-82053243D01*
X182469513Y-82053280D01*
X182592133Y-82053289D01*
X182809082Y-82053265D01*
X183004642Y-82053231D01*
X183179999Y-82053243D01*
X183336341Y-82053358D01*
X183474857Y-82053630D01*
X183596734Y-82054118D01*
X183703160Y-82054876D01*
X183795322Y-82055962D01*
X183874409Y-82057431D01*
X183941608Y-82059340D01*
X183998107Y-82061744D01*
X184045093Y-82064701D01*
X184083755Y-82068266D01*
X184115280Y-82072495D01*
X184140855Y-82077446D01*
X184161670Y-82083173D01*
X184178911Y-82089733D01*
X184193765Y-82097183D01*
X184207422Y-82105579D01*
X184221069Y-82114976D01*
X184235893Y-82125432D01*
X184244783Y-82131523D01*
X184302400Y-82170296D01*
X184302400Y-81638732D01*
X184302365Y-81515483D01*
X184302215Y-81412987D01*
X184301878Y-81329420D01*
X184301286Y-81262956D01*
X184300367Y-81211771D01*
X184299051Y-81174041D01*
X184297269Y-81147940D01*
X184294951Y-81131644D01*
X184292026Y-81123328D01*
X184288424Y-81121168D01*
X184284075Y-81123339D01*
X184282645Y-81124535D01*
X184245573Y-81149685D01*
X184192772Y-81175583D01*
X184130770Y-81199192D01*
X184104357Y-81207461D01*
X184086416Y-81212078D01*
X184065355Y-81215979D01*
X184039089Y-81219248D01*
X184005532Y-81221966D01*
X183962599Y-81224215D01*
X183908204Y-81226077D01*
X183840262Y-81227636D01*
X183756688Y-81228972D01*
X183655395Y-81230169D01*
X183534300Y-81231308D01*
X183489600Y-81231685D01*
X183364449Y-81232702D01*
X183260082Y-81233460D01*
X183174707Y-81233903D01*
X183106533Y-81233970D01*
X183053765Y-81233605D01*
X183014614Y-81232748D01*
X182987285Y-81231341D01*
X182969986Y-81229325D01*
X182960926Y-81226643D01*
X182958312Y-81223236D01*
X182960351Y-81219044D01*
X182964667Y-81214571D01*
X182977602Y-81204216D01*
X183006676Y-81182158D01*
X183049759Y-81149957D01*
X183104718Y-81109174D01*
X183169423Y-81061370D01*
X183241742Y-81008105D01*
X183319544Y-80950940D01*
X183400698Y-80891437D01*
X183483072Y-80831155D01*
X183564536Y-80771655D01*
X183642957Y-80714498D01*
X183716204Y-80661245D01*
X183782147Y-80613457D01*
X183838654Y-80572693D01*
X183883593Y-80540516D01*
X183914834Y-80518485D01*
X183921466Y-80513917D01*
X183958369Y-80490996D01*
X184006359Y-80464188D01*
X184055897Y-80438789D01*
X184062577Y-80435568D01*
X184110772Y-80413890D01*
X184148334Y-80401304D01*
X184184160Y-80395574D01*
X184226200Y-80394456D01*
X184302400Y-80395090D01*
X184302400Y-79240651D01*
X184208669Y-79331815D01*
X184158775Y-79378612D01*
X184102295Y-79428899D01*
X184048026Y-79474944D01*
X184022673Y-79495369D01*
X183983128Y-79525807D01*
X183929916Y-79565862D01*
X183864667Y-79614361D01*
X183789011Y-79670135D01*
X183704577Y-79732011D01*
X183612994Y-79798819D01*
X183515892Y-79869387D01*
X183414901Y-79942545D01*
X183311650Y-80017121D01*
X183207768Y-80091944D01*
X183104885Y-80165843D01*
X183004631Y-80237646D01*
X182908636Y-80306184D01*
X182818527Y-80370284D01*
X182735936Y-80428775D01*
X182662492Y-80480486D01*
X182599824Y-80524247D01*
X182549561Y-80558885D01*
X182513334Y-80583230D01*
X182492771Y-80596111D01*
X182488668Y-80597869D01*
X182477342Y-80589910D01*
X182450162Y-80569115D01*
X182408829Y-80536847D01*
X182355044Y-80494470D01*
X182290506Y-80443347D01*
X182216918Y-80384841D01*
X182135978Y-80320314D01*
X182049388Y-80251131D01*
X181958848Y-80178653D01*
X181866060Y-80104246D01*
X181791702Y-80044517D01*
X181791702Y-79033511D01*
X181804659Y-79027602D01*
X181826908Y-79013272D01*
X181828391Y-79012225D01*
X181858544Y-78993438D01*
X181895375Y-78973791D01*
X181903511Y-78969892D01*
X181911940Y-78966356D01*
X181922059Y-78963230D01*
X181935260Y-78960486D01*
X181952938Y-78958092D01*
X181976484Y-78956019D01*
X182007293Y-78954235D01*
X182046757Y-78952712D01*
X182096269Y-78951419D01*
X182157223Y-78950326D01*
X182231011Y-78949403D01*
X182319028Y-78948619D01*
X182422665Y-78947945D01*
X182543316Y-78947350D01*
X182682374Y-78946805D01*
X182841232Y-78946279D01*
X183020089Y-78945745D01*
X183205207Y-78945206D01*
X183369145Y-78944772D01*
X183513303Y-78944509D01*
X183639079Y-78944484D01*
X183747871Y-78944765D01*
X183841077Y-78945419D01*
X183920097Y-78946514D01*
X183986328Y-78948118D01*
X184041170Y-78950297D01*
X184086021Y-78953119D01*
X184122278Y-78956651D01*
X184151341Y-78960961D01*
X184174609Y-78966117D01*
X184193479Y-78972185D01*
X184209351Y-78979233D01*
X184223622Y-78987329D01*
X184237691Y-78996540D01*
X184250158Y-79005040D01*
X184276452Y-79022176D01*
X184294037Y-79032322D01*
X184297257Y-79033511D01*
X184298334Y-79022604D01*
X184299335Y-78991411D01*
X184300235Y-78942223D01*
X184301010Y-78877333D01*
X184301637Y-78799030D01*
X184302091Y-78709607D01*
X184302349Y-78611356D01*
X184302400Y-78542445D01*
X184302180Y-78437452D01*
X184301548Y-78340610D01*
X184300549Y-78254107D01*
X184299227Y-78180132D01*
X184297626Y-78120874D01*
X184295791Y-78078520D01*
X184293765Y-78055260D01*
X184292493Y-78051378D01*
X184277591Y-78059076D01*
X184269560Y-78067074D01*
X184252434Y-78080246D01*
X184222183Y-78097485D01*
X184197622Y-78109407D01*
X184138711Y-78136045D01*
X182961845Y-78139120D01*
X181784978Y-78142195D01*
X181784978Y-78587853D01*
X181785142Y-78685670D01*
X181785611Y-78776064D01*
X181786347Y-78856630D01*
X181787316Y-78924962D01*
X181788480Y-78978656D01*
X181789803Y-79015305D01*
X181791249Y-79032504D01*
X181791702Y-79033511D01*
X181791702Y-80044517D01*
X181772722Y-80029270D01*
X181680537Y-79955090D01*
X181591204Y-79883069D01*
X181506424Y-79814569D01*
X181427898Y-79750955D01*
X181357326Y-79693588D01*
X181296409Y-79643833D01*
X181246847Y-79603052D01*
X181226178Y-79585888D01*
X181125516Y-79499596D01*
X181042259Y-79422997D01*
X180974438Y-79354183D01*
X180920089Y-79291248D01*
X180912722Y-79281867D01*
X180882117Y-79242356D01*
X180881867Y-80374116D01*
X180929844Y-80368827D01*
X180987188Y-80372130D01*
X181055463Y-80393661D01*
X181135212Y-80433635D01*
X181207495Y-80478943D01*
X181230140Y-80495161D01*
X181267696Y-80523214D01*
X181318021Y-80561430D01*
X181378973Y-80608137D01*
X181448411Y-80661661D01*
X181524194Y-80720331D01*
X181604180Y-80782475D01*
X181686228Y-80846421D01*
X181768196Y-80910495D01*
X181847943Y-80973027D01*
X181923327Y-81032343D01*
X181992207Y-81086771D01*
X182052442Y-81134639D01*
X182101889Y-81174275D01*
X182138408Y-81204006D01*
X182159858Y-81222161D01*
X182163156Y-81225220D01*
X182155149Y-81228079D01*
X182124855Y-81230293D01*
X182072556Y-81231857D01*
X181998531Y-81232767D01*
X181903063Y-81233020D01*
X181786434Y-81232613D01*
X181666445Y-81231704D01*
X181534333Y-81230382D01*
X181422594Y-81228857D01*
X181329025Y-81226881D01*
X181251419Y-81224206D01*
X181187574Y-81220582D01*
X181135283Y-81215761D01*
X181092344Y-81209494D01*
X181056551Y-81201532D01*
X181025700Y-81191627D01*
X180997586Y-81179531D01*
X180970005Y-81164993D01*
X180944966Y-81150311D01*
X180881867Y-81112314D01*
X180881867Y-82172197D01*
X180881867Y-82475034D01*
X180875617Y-82475001D01*
X180773544Y-82474195D01*
X180684633Y-82473170D01*
X180607941Y-82471900D01*
X180542527Y-82470360D01*
X180487449Y-82468524D01*
X180441765Y-82466367D01*
X180404534Y-82463863D01*
X180374813Y-82460987D01*
X180351662Y-82457713D01*
X180334139Y-82454015D01*
X180321301Y-82449869D01*
X180312208Y-82445247D01*
X180305918Y-82440126D01*
X180301488Y-82434478D01*
X180297978Y-82428279D01*
X180294445Y-82421504D01*
X180290876Y-82415508D01*
X180288300Y-82410275D01*
X180285972Y-82402099D01*
X180283878Y-82389886D01*
X180282007Y-82372541D01*
X180280347Y-82348969D01*
X180278884Y-82318077D01*
X180277608Y-82278768D01*
X180276504Y-82229950D01*
X180275561Y-82170527D01*
X180274767Y-82099404D01*
X180274109Y-82015488D01*
X180273575Y-81917683D01*
X180273153Y-81804894D01*
X180272829Y-81676029D01*
X180272592Y-81529991D01*
X180272430Y-81365686D01*
X180272330Y-81182020D01*
X180272280Y-80977897D01*
X180272267Y-80766753D01*
X180272267Y-79146400D01*
X180369054Y-79146400D01*
D13*
G04 #@! TO.C,J3*
X214630000Y-64135000D02*
X214630000Y-62865000D01*
X213995000Y-64770000D02*
X214630000Y-64135000D01*
X212725000Y-64770000D02*
X213995000Y-64770000D01*
X212090000Y-64135000D02*
X212725000Y-64770000D01*
X212090000Y-62865000D02*
X212090000Y-64135000D01*
X212725000Y-62230000D02*
X212090000Y-62865000D01*
X213995000Y-62230000D02*
X212725000Y-62230000D01*
X214630000Y-62865000D02*
X213995000Y-62230000D01*
G04 #@! TO.C,J2*
X214630000Y-53975000D02*
X214630000Y-52705000D01*
X213995000Y-54610000D02*
X214630000Y-53975000D01*
X212725000Y-54610000D02*
X213995000Y-54610000D01*
X212090000Y-53975000D02*
X212725000Y-54610000D01*
X212090000Y-52705000D02*
X212090000Y-53975000D01*
X212725000Y-52070000D02*
X212090000Y-52705000D01*
X213995000Y-52070000D02*
X212725000Y-52070000D01*
X214630000Y-52705000D02*
X213995000Y-52070000D01*
G04 #@! TO.C,J1*
X206375000Y-64770000D02*
X205105000Y-64770000D01*
X204470000Y-53975000D02*
X204470000Y-52705000D01*
X205105000Y-52070000D02*
X204470000Y-52705000D01*
X207010000Y-52705000D02*
X206375000Y-52070000D01*
X206375000Y-52070000D02*
X205105000Y-52070000D01*
X204470000Y-55245000D02*
X205105000Y-54610000D01*
X204470000Y-56515000D02*
X204470000Y-55245000D01*
X205105000Y-57150000D02*
X204470000Y-56515000D01*
X207010000Y-56515000D02*
X206375000Y-57150000D01*
X207010000Y-55245000D02*
X207010000Y-56515000D01*
X206375000Y-54610000D02*
X207010000Y-55245000D01*
X205105000Y-54610000D02*
X204470000Y-53975000D01*
X207010000Y-53975000D02*
X206375000Y-54610000D01*
X207010000Y-52705000D02*
X207010000Y-53975000D01*
X204470000Y-61595000D02*
X204470000Y-60325000D01*
X205105000Y-59690000D02*
X204470000Y-60325000D01*
X207010000Y-60325000D02*
X206375000Y-59690000D01*
X204470000Y-57785000D02*
X205105000Y-57150000D01*
X204470000Y-59055000D02*
X204470000Y-57785000D01*
X205105000Y-59690000D02*
X204470000Y-59055000D01*
X207010000Y-59055000D02*
X206375000Y-59690000D01*
X207010000Y-57785000D02*
X207010000Y-59055000D01*
X206375000Y-57150000D02*
X207010000Y-57785000D01*
X204470000Y-62865000D02*
X205105000Y-62230000D01*
X204470000Y-64135000D02*
X204470000Y-62865000D01*
X205105000Y-64770000D02*
X204470000Y-64135000D01*
X207010000Y-64135000D02*
X206375000Y-64770000D01*
X207010000Y-62865000D02*
X207010000Y-64135000D01*
X206375000Y-62230000D02*
X207010000Y-62865000D01*
X205105000Y-62230000D02*
X204470000Y-61595000D01*
X207010000Y-61595000D02*
X206375000Y-62230000D01*
X207010000Y-60325000D02*
X207010000Y-61595000D01*
D11*
G04 #@! TO.C,R25*
X154210000Y-110390000D02*
X154210000Y-113130000D01*
X154210000Y-113130000D02*
X160750000Y-113130000D01*
X160750000Y-113130000D02*
X160750000Y-110390000D01*
X160750000Y-110390000D02*
X154210000Y-110390000D01*
X153440000Y-111760000D02*
X154210000Y-111760000D01*
X161520000Y-111760000D02*
X160750000Y-111760000D01*
G04 #@! TO.C,R24*
X154210000Y-128170000D02*
X154210000Y-130910000D01*
X154210000Y-130910000D02*
X160750000Y-130910000D01*
X160750000Y-130910000D02*
X160750000Y-128170000D01*
X160750000Y-128170000D02*
X154210000Y-128170000D01*
X153440000Y-129540000D02*
X154210000Y-129540000D01*
X161520000Y-129540000D02*
X160750000Y-129540000D01*
G04 #@! TO.C,R4*
X154210000Y-72290000D02*
X154210000Y-75030000D01*
X154210000Y-75030000D02*
X160750000Y-75030000D01*
X160750000Y-75030000D02*
X160750000Y-72290000D01*
X160750000Y-72290000D02*
X154210000Y-72290000D01*
X153440000Y-73660000D02*
X154210000Y-73660000D01*
X161520000Y-73660000D02*
X160750000Y-73660000D01*
G04 #@! TO.C,U3*
X151070000Y-65770000D02*
X151070000Y-67420000D01*
X151070000Y-67420000D02*
X171510000Y-67420000D01*
X171510000Y-67420000D02*
X171510000Y-62120000D01*
X171510000Y-62120000D02*
X151070000Y-62120000D01*
X151070000Y-62120000D02*
X151070000Y-63770000D01*
X151070000Y-63770000D02*
G75*
G02*
X151070000Y-65770000I0J-1000000D01*
G01*
G04 #@! TO.C,U2*
X151070000Y-83550000D02*
X151070000Y-85200000D01*
X151070000Y-85200000D02*
X171510000Y-85200000D01*
X171510000Y-85200000D02*
X171510000Y-79900000D01*
X171510000Y-79900000D02*
X151070000Y-79900000D01*
X151070000Y-79900000D02*
X151070000Y-81550000D01*
X151070000Y-81550000D02*
G75*
G02*
X151070000Y-83550000I0J-1000000D01*
G01*
G04 #@! TO.C,C3*
X176630000Y-62280000D02*
X176630000Y-69720000D01*
X173890000Y-62280000D02*
X173890000Y-69720000D01*
X176630000Y-62280000D02*
X173890000Y-62280000D01*
X176630000Y-69720000D02*
X173890000Y-69720000D01*
G04 #@! TO.C,U5*
X153610000Y-47990000D02*
X153610000Y-49640000D01*
X153610000Y-49640000D02*
X171510000Y-49640000D01*
X171510000Y-49640000D02*
X171510000Y-44340000D01*
X171510000Y-44340000D02*
X153610000Y-44340000D01*
X153610000Y-44340000D02*
X153610000Y-45990000D01*
X153610000Y-45990000D02*
G75*
G02*
X153610000Y-47990000I0J-1000000D01*
G01*
G04 #@! TO.C,U4*
X181550000Y-121650000D02*
X181550000Y-123300000D01*
X181550000Y-123300000D02*
X201990000Y-123300000D01*
X201990000Y-123300000D02*
X201990000Y-118000000D01*
X201990000Y-118000000D02*
X181550000Y-118000000D01*
X181550000Y-118000000D02*
X181550000Y-119650000D01*
X181550000Y-119650000D02*
G75*
G02*
X181550000Y-121650000I0J-1000000D01*
G01*
G04 #@! TO.C,U1*
X153610000Y-101330000D02*
X153610000Y-102980000D01*
X153610000Y-102980000D02*
X171510000Y-102980000D01*
X171510000Y-102980000D02*
X171510000Y-97680000D01*
X171510000Y-97680000D02*
X153610000Y-97680000D01*
X153610000Y-97680000D02*
X153610000Y-99330000D01*
X153610000Y-99330000D02*
G75*
G02*
X153610000Y-101330000I0J-1000000D01*
G01*
G04 #@! TO.C,C34*
X200090000Y-69950000D02*
X203730000Y-69950000D01*
X200090000Y-72290000D02*
X203730000Y-72290000D01*
X200090000Y-69950000D02*
X200090000Y-70195000D01*
X200090000Y-72045000D02*
X200090000Y-72290000D01*
X203730000Y-69950000D02*
X203730000Y-70195000D01*
X203730000Y-72045000D02*
X203730000Y-72290000D01*
G04 #@! TO.C,C33*
X200090000Y-80110000D02*
X203730000Y-80110000D01*
X200090000Y-82450000D02*
X203730000Y-82450000D01*
X200090000Y-80110000D02*
X200090000Y-80355000D01*
X200090000Y-82205000D02*
X200090000Y-82450000D01*
X203730000Y-80110000D02*
X203730000Y-80355000D01*
X203730000Y-82205000D02*
X203730000Y-82450000D01*
G04 #@! TO.C,C32*
X200090000Y-90270000D02*
X203730000Y-90270000D01*
X200090000Y-92610000D02*
X203730000Y-92610000D01*
X200090000Y-90270000D02*
X200090000Y-90515000D01*
X200090000Y-92365000D02*
X200090000Y-92610000D01*
X203730000Y-90270000D02*
X203730000Y-90515000D01*
X203730000Y-92365000D02*
X203730000Y-92610000D01*
G04 #@! TO.C,C25*
X168594000Y-110590000D02*
X172234000Y-110590000D01*
X168594000Y-112930000D02*
X172234000Y-112930000D01*
X168594000Y-110590000D02*
X168594000Y-110835000D01*
X168594000Y-112685000D02*
X168594000Y-112930000D01*
X172234000Y-110590000D02*
X172234000Y-110835000D01*
X172234000Y-112685000D02*
X172234000Y-112930000D01*
G04 #@! TO.C,C24*
X169610000Y-128370000D02*
X173250000Y-128370000D01*
X169610000Y-130710000D02*
X173250000Y-130710000D01*
X169610000Y-128370000D02*
X169610000Y-128615000D01*
X169610000Y-130465000D02*
X169610000Y-130710000D01*
X173250000Y-128370000D02*
X173250000Y-128615000D01*
X173250000Y-130465000D02*
X173250000Y-130710000D01*
G04 #@! TO.C,C23*
X176630000Y-125600000D02*
X173890000Y-125600000D01*
X176630000Y-118160000D02*
X173890000Y-118160000D01*
X173890000Y-118160000D02*
X173890000Y-125600000D01*
X176630000Y-118160000D02*
X176630000Y-125600000D01*
G04 #@! TO.C,C16*
X105510000Y-105280000D02*
X102770000Y-105280000D01*
X105510000Y-97840000D02*
X102770000Y-97840000D01*
X102770000Y-97840000D02*
X102770000Y-105280000D01*
X105510000Y-97840000D02*
X105510000Y-105280000D01*
G04 #@! TO.C,C15*
X105510000Y-69720000D02*
X102770000Y-69720000D01*
X105510000Y-62280000D02*
X102770000Y-62280000D01*
X102770000Y-62280000D02*
X102770000Y-69720000D01*
X105510000Y-62280000D02*
X105510000Y-69720000D01*
G04 #@! TO.C,C14*
X105510000Y-51940000D02*
X102770000Y-51940000D01*
X105510000Y-44500000D02*
X102770000Y-44500000D01*
X102770000Y-44500000D02*
X102770000Y-51940000D01*
X105510000Y-44500000D02*
X105510000Y-51940000D01*
G04 #@! TO.C,C13*
X146150000Y-125600000D02*
X143410000Y-125600000D01*
X146150000Y-118160000D02*
X143410000Y-118160000D01*
X143410000Y-118160000D02*
X143410000Y-125600000D01*
X146150000Y-118160000D02*
X146150000Y-125600000D01*
G04 #@! TO.C,C12*
X146150000Y-105280000D02*
X143410000Y-105280000D01*
X146150000Y-97840000D02*
X143410000Y-97840000D01*
X143410000Y-97840000D02*
X143410000Y-105280000D01*
X146150000Y-97840000D02*
X146150000Y-105280000D01*
G04 #@! TO.C,C11*
X146150000Y-69720000D02*
X143410000Y-69720000D01*
X146150000Y-62280000D02*
X143410000Y-62280000D01*
X143410000Y-62280000D02*
X143410000Y-69720000D01*
X146150000Y-62280000D02*
X146150000Y-69720000D01*
G04 #@! TO.C,C10*
X146150000Y-51940000D02*
X143410000Y-51940000D01*
X146150000Y-44500000D02*
X143410000Y-44500000D01*
X143410000Y-44500000D02*
X143410000Y-51940000D01*
X146150000Y-44500000D02*
X146150000Y-51940000D01*
G04 #@! TO.C,Y1*
X188200000Y-108724000D02*
X179800000Y-108724000D01*
X179800000Y-108724000D02*
X179800000Y-112124000D01*
X179800000Y-112124000D02*
X188200000Y-112124000D01*
X188200000Y-112124000D02*
X188200000Y-108724000D01*
X188200000Y-109879000D02*
X189350000Y-109474000D01*
X189350000Y-109474000D02*
X189800000Y-109474000D01*
X188200000Y-110969000D02*
X189350000Y-111374000D01*
X189350000Y-111374000D02*
X189800000Y-111374000D01*
G04 #@! TO.C,U23*
X151070000Y-121650000D02*
X151070000Y-123300000D01*
X151070000Y-123300000D02*
X171510000Y-123300000D01*
X171510000Y-123300000D02*
X171510000Y-118000000D01*
X171510000Y-118000000D02*
X151070000Y-118000000D01*
X151070000Y-118000000D02*
X151070000Y-119650000D01*
X151070000Y-119650000D02*
G75*
G02*
X151070000Y-121650000I0J-1000000D01*
G01*
G04 #@! TO.C,U22*
X82490000Y-121650000D02*
X82490000Y-123300000D01*
X82490000Y-123300000D02*
X100390000Y-123300000D01*
X100390000Y-123300000D02*
X100390000Y-118000000D01*
X100390000Y-118000000D02*
X82490000Y-118000000D01*
X82490000Y-118000000D02*
X82490000Y-119650000D01*
X82490000Y-119650000D02*
G75*
G02*
X82490000Y-121650000I0J-1000000D01*
G01*
G04 #@! TO.C,U21*
X82744000Y-83550000D02*
X82744000Y-85200000D01*
X82744000Y-85200000D02*
X100644000Y-85200000D01*
X100644000Y-85200000D02*
X100644000Y-79900000D01*
X100644000Y-79900000D02*
X82744000Y-79900000D01*
X82744000Y-79900000D02*
X82744000Y-81550000D01*
X82744000Y-81550000D02*
G75*
G02*
X82744000Y-83550000I0J-1000000D01*
G01*
G04 #@! TO.C,U20*
X123130000Y-83550000D02*
X123130000Y-85200000D01*
X123130000Y-85200000D02*
X141030000Y-85200000D01*
X141030000Y-85200000D02*
X141030000Y-79900000D01*
X141030000Y-79900000D02*
X123130000Y-79900000D01*
X123130000Y-79900000D02*
X123130000Y-81550000D01*
X123130000Y-81550000D02*
G75*
G02*
X123130000Y-83550000I0J-1000000D01*
G01*
G04 #@! TO.C,U16*
X82998000Y-101330000D02*
X82998000Y-102980000D01*
X82998000Y-102980000D02*
X100898000Y-102980000D01*
X100898000Y-102980000D02*
X100898000Y-97680000D01*
X100898000Y-97680000D02*
X82998000Y-97680000D01*
X82998000Y-97680000D02*
X82998000Y-99330000D01*
X82998000Y-99330000D02*
G75*
G02*
X82998000Y-101330000I0J-1000000D01*
G01*
G04 #@! TO.C,U15*
X82490000Y-65770000D02*
X82490000Y-67420000D01*
X82490000Y-67420000D02*
X100390000Y-67420000D01*
X100390000Y-67420000D02*
X100390000Y-62120000D01*
X100390000Y-62120000D02*
X82490000Y-62120000D01*
X82490000Y-62120000D02*
X82490000Y-63770000D01*
X82490000Y-63770000D02*
G75*
G02*
X82490000Y-65770000I0J-1000000D01*
G01*
G04 #@! TO.C,U14*
X82490000Y-47990000D02*
X82490000Y-49640000D01*
X82490000Y-49640000D02*
X100390000Y-49640000D01*
X100390000Y-49640000D02*
X100390000Y-44340000D01*
X100390000Y-44340000D02*
X82490000Y-44340000D01*
X82490000Y-44340000D02*
X82490000Y-45990000D01*
X82490000Y-45990000D02*
G75*
G02*
X82490000Y-47990000I0J-1000000D01*
G01*
G04 #@! TO.C,U13*
X123130000Y-121650000D02*
X123130000Y-123300000D01*
X123130000Y-123300000D02*
X141030000Y-123300000D01*
X141030000Y-123300000D02*
X141030000Y-118000000D01*
X141030000Y-118000000D02*
X123130000Y-118000000D01*
X123130000Y-118000000D02*
X123130000Y-119650000D01*
X123130000Y-119650000D02*
G75*
G02*
X123130000Y-121650000I0J-1000000D01*
G01*
G04 #@! TO.C,U12*
X123130000Y-101330000D02*
X123130000Y-102980000D01*
X123130000Y-102980000D02*
X141030000Y-102980000D01*
X141030000Y-102980000D02*
X141030000Y-97680000D01*
X141030000Y-97680000D02*
X123130000Y-97680000D01*
X123130000Y-97680000D02*
X123130000Y-99330000D01*
X123130000Y-99330000D02*
G75*
G02*
X123130000Y-101330000I0J-1000000D01*
G01*
G04 #@! TO.C,U11*
X123384000Y-65770000D02*
X123384000Y-67420000D01*
X123384000Y-67420000D02*
X141284000Y-67420000D01*
X141284000Y-67420000D02*
X141284000Y-62120000D01*
X141284000Y-62120000D02*
X123384000Y-62120000D01*
X123384000Y-62120000D02*
X123384000Y-63770000D01*
X123384000Y-63770000D02*
G75*
G02*
X123384000Y-65770000I0J-1000000D01*
G01*
G04 #@! TO.C,U10*
X123130000Y-47990000D02*
X123130000Y-49640000D01*
X123130000Y-49640000D02*
X141030000Y-49640000D01*
X141030000Y-49640000D02*
X141030000Y-44340000D01*
X141030000Y-44340000D02*
X123130000Y-44340000D01*
X123130000Y-44340000D02*
X123130000Y-45990000D01*
X123130000Y-45990000D02*
G75*
G02*
X123130000Y-47990000I0J-1000000D01*
G01*
G04 #@! TO.C,SW1*
X207860000Y-97520000D02*
X207860000Y-102020000D01*
X211860000Y-96270000D02*
X210360000Y-96270000D01*
X214360000Y-102020000D02*
X214360000Y-97520000D01*
X210360000Y-103270000D02*
X211860000Y-103270000D01*
G04 #@! TO.C,SW2*
X207860000Y-84820000D02*
X207860000Y-89320000D01*
X211860000Y-83570000D02*
X210360000Y-83570000D01*
X214360000Y-89320000D02*
X214360000Y-84820000D01*
X210360000Y-90570000D02*
X211860000Y-90570000D01*
G04 #@! TO.C,SW3*
X207860000Y-72120000D02*
X207860000Y-76620000D01*
X211860000Y-70870000D02*
X210360000Y-70870000D01*
X214360000Y-76620000D02*
X214360000Y-72120000D01*
X210360000Y-77870000D02*
X211860000Y-77870000D01*
G04 #@! TO.C,RN1*
X107820000Y-92880000D02*
X110620000Y-92880000D01*
X110620000Y-92880000D02*
X110620000Y-69680000D01*
X110620000Y-69680000D02*
X107820000Y-69680000D01*
X107820000Y-69680000D02*
X107820000Y-92880000D01*
X107820000Y-90170000D02*
X110620000Y-90170000D01*
G04 #@! TO.C,R17*
X201390000Y-77570000D02*
X201390000Y-74830000D01*
X201390000Y-74830000D02*
X194850000Y-74830000D01*
X194850000Y-74830000D02*
X194850000Y-77570000D01*
X194850000Y-77570000D02*
X201390000Y-77570000D01*
X202160000Y-76200000D02*
X201390000Y-76200000D01*
X194080000Y-76200000D02*
X194850000Y-76200000D01*
G04 #@! TO.C,R16*
X201390000Y-87730000D02*
X201390000Y-84990000D01*
X201390000Y-84990000D02*
X194850000Y-84990000D01*
X194850000Y-84990000D02*
X194850000Y-87730000D01*
X194850000Y-87730000D02*
X201390000Y-87730000D01*
X202160000Y-86360000D02*
X201390000Y-86360000D01*
X194080000Y-86360000D02*
X194850000Y-86360000D01*
G04 #@! TO.C,R15*
X201390000Y-97890000D02*
X201390000Y-95150000D01*
X201390000Y-95150000D02*
X194850000Y-95150000D01*
X194850000Y-95150000D02*
X194850000Y-97890000D01*
X194850000Y-97890000D02*
X201390000Y-97890000D01*
X202160000Y-96520000D02*
X201390000Y-96520000D01*
X194080000Y-96520000D02*
X194850000Y-96520000D01*
G04 #@! TO.C,R31*
X201830000Y-109950000D02*
X204570000Y-109950000D01*
X204570000Y-109950000D02*
X204570000Y-103410000D01*
X204570000Y-103410000D02*
X201830000Y-103410000D01*
X201830000Y-103410000D02*
X201830000Y-109950000D01*
X203200000Y-110720000D02*
X203200000Y-109950000D01*
X203200000Y-102640000D02*
X203200000Y-103410000D01*
G04 #@! TO.C,R30*
X188690000Y-105510000D02*
X188690000Y-102770000D01*
X188690000Y-102770000D02*
X182150000Y-102770000D01*
X182150000Y-102770000D02*
X182150000Y-105510000D01*
X182150000Y-105510000D02*
X188690000Y-105510000D01*
X189460000Y-104140000D02*
X188690000Y-104140000D01*
X181380000Y-104140000D02*
X182150000Y-104140000D01*
G04 #@! TO.C,D9*
X185710000Y-87596000D02*
X185710000Y-87440000D01*
X185710000Y-85280000D02*
X185710000Y-85124000D01*
X183108870Y-85280163D02*
G75*
G02*
X185190961Y-85280000I1041130J-1079837D01*
G01*
X183108870Y-87439837D02*
G75*
G03*
X185190961Y-87440000I1041130J1079837D01*
G01*
X182477665Y-85281392D02*
G75*
G02*
X185710000Y-85124484I1672335J-1078608D01*
G01*
X182477665Y-87438608D02*
G75*
G03*
X185710000Y-87595516I1672335J1078608D01*
G01*
G04 #@! TO.C,D16*
X77745000Y-96500000D02*
X77280000Y-96500000D01*
X75120000Y-96500000D02*
X74655000Y-96500000D01*
X75119571Y-101314479D02*
G75*
G02*
X75120000Y-96805316I1080429J2254479D01*
G01*
X77280429Y-101314479D02*
G75*
G03*
X77280000Y-96805316I-1080429J2254479D01*
G01*
X75119173Y-101847815D02*
G75*
G02*
X74655170Y-96500000I1080827J2787815D01*
G01*
X77280827Y-101847815D02*
G75*
G03*
X77744830Y-96500000I-1080827J2787815D01*
G01*
G04 #@! TO.C,D15*
X77745000Y-71100000D02*
X77280000Y-71100000D01*
X75120000Y-71100000D02*
X74655000Y-71100000D01*
X75119571Y-75914479D02*
G75*
G02*
X75120000Y-71405316I1080429J2254479D01*
G01*
X77280429Y-75914479D02*
G75*
G03*
X77280000Y-71405316I-1080429J2254479D01*
G01*
X75119173Y-76447815D02*
G75*
G02*
X74655170Y-71100000I1080827J2787815D01*
G01*
X77280827Y-76447815D02*
G75*
G03*
X77744830Y-71100000I-1080827J2787815D01*
G01*
G04 #@! TO.C,D14*
X77745000Y-48240000D02*
X77280000Y-48240000D01*
X75120000Y-48240000D02*
X74655000Y-48240000D01*
X75119571Y-53054479D02*
G75*
G02*
X75120000Y-48545316I1080429J2254479D01*
G01*
X77280429Y-53054479D02*
G75*
G03*
X77280000Y-48545316I-1080429J2254479D01*
G01*
X75119173Y-53587815D02*
G75*
G02*
X74655170Y-48240000I1080827J2787815D01*
G01*
X77280827Y-53587815D02*
G75*
G03*
X77744830Y-48240000I-1080827J2787815D01*
G01*
G04 #@! TO.C,D13*
X118385000Y-121900000D02*
X117920000Y-121900000D01*
X115760000Y-121900000D02*
X115295000Y-121900000D01*
X115759571Y-126714479D02*
G75*
G02*
X115760000Y-122205316I1080429J2254479D01*
G01*
X117920429Y-126714479D02*
G75*
G03*
X117920000Y-122205316I-1080429J2254479D01*
G01*
X115759173Y-127247815D02*
G75*
G02*
X115295170Y-121900000I1080827J2787815D01*
G01*
X117920827Y-127247815D02*
G75*
G03*
X118384830Y-121900000I-1080827J2787815D01*
G01*
G04 #@! TO.C,D12*
X118385000Y-96500000D02*
X117920000Y-96500000D01*
X115760000Y-96500000D02*
X115295000Y-96500000D01*
X115759571Y-101314479D02*
G75*
G02*
X115760000Y-96805316I1080429J2254479D01*
G01*
X117920429Y-101314479D02*
G75*
G03*
X117920000Y-96805316I-1080429J2254479D01*
G01*
X115759173Y-101847815D02*
G75*
G02*
X115295170Y-96500000I1080827J2787815D01*
G01*
X117920827Y-101847815D02*
G75*
G03*
X118384830Y-96500000I-1080827J2787815D01*
G01*
G04 #@! TO.C,D11*
X118385000Y-71100000D02*
X117920000Y-71100000D01*
X115760000Y-71100000D02*
X115295000Y-71100000D01*
X115759571Y-75914479D02*
G75*
G02*
X115760000Y-71405316I1080429J2254479D01*
G01*
X117920429Y-75914479D02*
G75*
G03*
X117920000Y-71405316I-1080429J2254479D01*
G01*
X115759173Y-76447815D02*
G75*
G02*
X115295170Y-71100000I1080827J2787815D01*
G01*
X117920827Y-76447815D02*
G75*
G03*
X118384830Y-71100000I-1080827J2787815D01*
G01*
G04 #@! TO.C,D10*
X118385000Y-48240000D02*
X117920000Y-48240000D01*
X115760000Y-48240000D02*
X115295000Y-48240000D01*
X115759571Y-53054479D02*
G75*
G02*
X115760000Y-48545316I1080429J2254479D01*
G01*
X117920429Y-53054479D02*
G75*
G03*
X117920000Y-48545316I-1080429J2254479D01*
G01*
X115759173Y-53587815D02*
G75*
G02*
X115295170Y-48240000I1080827J2787815D01*
G01*
X117920827Y-53587815D02*
G75*
G03*
X118384830Y-48240000I-1080827J2787815D01*
G01*
G04 #@! TO.C,C9*
X191230000Y-64750000D02*
G75*
G03*
X191230000Y-64750000I-3270000J0D01*
G01*
X191190000Y-64750000D02*
X184730000Y-64750000D01*
X191190000Y-64790000D02*
X184730000Y-64790000D01*
X191190000Y-64830000D02*
X184730000Y-64830000D01*
X191188000Y-64870000D02*
X184732000Y-64870000D01*
X191187000Y-64910000D02*
X184733000Y-64910000D01*
X191184000Y-64950000D02*
X184736000Y-64950000D01*
X191182000Y-64990000D02*
X189000000Y-64990000D01*
X186920000Y-64990000D02*
X184738000Y-64990000D01*
X191178000Y-65030000D02*
X189000000Y-65030000D01*
X186920000Y-65030000D02*
X184742000Y-65030000D01*
X191175000Y-65070000D02*
X189000000Y-65070000D01*
X186920000Y-65070000D02*
X184745000Y-65070000D01*
X191171000Y-65110000D02*
X189000000Y-65110000D01*
X186920000Y-65110000D02*
X184749000Y-65110000D01*
X191166000Y-65150000D02*
X189000000Y-65150000D01*
X186920000Y-65150000D02*
X184754000Y-65150000D01*
X191161000Y-65190000D02*
X189000000Y-65190000D01*
X186920000Y-65190000D02*
X184759000Y-65190000D01*
X191155000Y-65230000D02*
X189000000Y-65230000D01*
X186920000Y-65230000D02*
X184765000Y-65230000D01*
X191149000Y-65270000D02*
X189000000Y-65270000D01*
X186920000Y-65270000D02*
X184771000Y-65270000D01*
X191142000Y-65310000D02*
X189000000Y-65310000D01*
X186920000Y-65310000D02*
X184778000Y-65310000D01*
X191135000Y-65350000D02*
X189000000Y-65350000D01*
X186920000Y-65350000D02*
X184785000Y-65350000D01*
X191127000Y-65390000D02*
X189000000Y-65390000D01*
X186920000Y-65390000D02*
X184793000Y-65390000D01*
X191119000Y-65430000D02*
X189000000Y-65430000D01*
X186920000Y-65430000D02*
X184801000Y-65430000D01*
X191110000Y-65471000D02*
X189000000Y-65471000D01*
X186920000Y-65471000D02*
X184810000Y-65471000D01*
X191101000Y-65511000D02*
X189000000Y-65511000D01*
X186920000Y-65511000D02*
X184819000Y-65511000D01*
X191091000Y-65551000D02*
X189000000Y-65551000D01*
X186920000Y-65551000D02*
X184829000Y-65551000D01*
X191081000Y-65591000D02*
X189000000Y-65591000D01*
X186920000Y-65591000D02*
X184839000Y-65591000D01*
X191070000Y-65631000D02*
X189000000Y-65631000D01*
X186920000Y-65631000D02*
X184850000Y-65631000D01*
X191058000Y-65671000D02*
X189000000Y-65671000D01*
X186920000Y-65671000D02*
X184862000Y-65671000D01*
X191046000Y-65711000D02*
X189000000Y-65711000D01*
X186920000Y-65711000D02*
X184874000Y-65711000D01*
X191034000Y-65751000D02*
X189000000Y-65751000D01*
X186920000Y-65751000D02*
X184886000Y-65751000D01*
X191021000Y-65791000D02*
X189000000Y-65791000D01*
X186920000Y-65791000D02*
X184899000Y-65791000D01*
X191007000Y-65831000D02*
X189000000Y-65831000D01*
X186920000Y-65831000D02*
X184913000Y-65831000D01*
X190993000Y-65871000D02*
X189000000Y-65871000D01*
X186920000Y-65871000D02*
X184927000Y-65871000D01*
X190978000Y-65911000D02*
X189000000Y-65911000D01*
X186920000Y-65911000D02*
X184942000Y-65911000D01*
X190962000Y-65951000D02*
X189000000Y-65951000D01*
X186920000Y-65951000D02*
X184958000Y-65951000D01*
X190946000Y-65991000D02*
X189000000Y-65991000D01*
X186920000Y-65991000D02*
X184974000Y-65991000D01*
X190930000Y-66031000D02*
X189000000Y-66031000D01*
X186920000Y-66031000D02*
X184990000Y-66031000D01*
X190912000Y-66071000D02*
X189000000Y-66071000D01*
X186920000Y-66071000D02*
X185008000Y-66071000D01*
X190894000Y-66111000D02*
X189000000Y-66111000D01*
X186920000Y-66111000D02*
X185026000Y-66111000D01*
X190876000Y-66151000D02*
X189000000Y-66151000D01*
X186920000Y-66151000D02*
X185044000Y-66151000D01*
X190856000Y-66191000D02*
X189000000Y-66191000D01*
X186920000Y-66191000D02*
X185064000Y-66191000D01*
X190836000Y-66231000D02*
X189000000Y-66231000D01*
X186920000Y-66231000D02*
X185084000Y-66231000D01*
X190816000Y-66271000D02*
X189000000Y-66271000D01*
X186920000Y-66271000D02*
X185104000Y-66271000D01*
X190794000Y-66311000D02*
X189000000Y-66311000D01*
X186920000Y-66311000D02*
X185126000Y-66311000D01*
X190772000Y-66351000D02*
X189000000Y-66351000D01*
X186920000Y-66351000D02*
X185148000Y-66351000D01*
X190750000Y-66391000D02*
X189000000Y-66391000D01*
X186920000Y-66391000D02*
X185170000Y-66391000D01*
X190726000Y-66431000D02*
X189000000Y-66431000D01*
X186920000Y-66431000D02*
X185194000Y-66431000D01*
X190702000Y-66471000D02*
X189000000Y-66471000D01*
X186920000Y-66471000D02*
X185218000Y-66471000D01*
X190676000Y-66511000D02*
X189000000Y-66511000D01*
X186920000Y-66511000D02*
X185244000Y-66511000D01*
X190650000Y-66551000D02*
X189000000Y-66551000D01*
X186920000Y-66551000D02*
X185270000Y-66551000D01*
X190624000Y-66591000D02*
X189000000Y-66591000D01*
X186920000Y-66591000D02*
X185296000Y-66591000D01*
X190596000Y-66631000D02*
X189000000Y-66631000D01*
X186920000Y-66631000D02*
X185324000Y-66631000D01*
X190567000Y-66671000D02*
X189000000Y-66671000D01*
X186920000Y-66671000D02*
X185353000Y-66671000D01*
X190538000Y-66711000D02*
X189000000Y-66711000D01*
X186920000Y-66711000D02*
X185382000Y-66711000D01*
X190508000Y-66751000D02*
X189000000Y-66751000D01*
X186920000Y-66751000D02*
X185412000Y-66751000D01*
X190476000Y-66791000D02*
X189000000Y-66791000D01*
X186920000Y-66791000D02*
X185444000Y-66791000D01*
X190444000Y-66831000D02*
X189000000Y-66831000D01*
X186920000Y-66831000D02*
X185476000Y-66831000D01*
X190410000Y-66871000D02*
X189000000Y-66871000D01*
X186920000Y-66871000D02*
X185510000Y-66871000D01*
X190376000Y-66911000D02*
X189000000Y-66911000D01*
X186920000Y-66911000D02*
X185544000Y-66911000D01*
X190340000Y-66951000D02*
X189000000Y-66951000D01*
X186920000Y-66951000D02*
X185580000Y-66951000D01*
X190303000Y-66991000D02*
X189000000Y-66991000D01*
X186920000Y-66991000D02*
X185617000Y-66991000D01*
X190265000Y-67031000D02*
X189000000Y-67031000D01*
X186920000Y-67031000D02*
X185655000Y-67031000D01*
X190225000Y-67071000D02*
X185695000Y-67071000D01*
X190184000Y-67111000D02*
X185736000Y-67111000D01*
X190142000Y-67151000D02*
X185778000Y-67151000D01*
X190097000Y-67191000D02*
X185823000Y-67191000D01*
X190052000Y-67231000D02*
X185868000Y-67231000D01*
X190004000Y-67271000D02*
X185916000Y-67271000D01*
X189955000Y-67311000D02*
X185965000Y-67311000D01*
X189904000Y-67351000D02*
X186016000Y-67351000D01*
X189850000Y-67391000D02*
X186070000Y-67391000D01*
X189794000Y-67431000D02*
X186126000Y-67431000D01*
X189736000Y-67471000D02*
X186184000Y-67471000D01*
X189674000Y-67511000D02*
X186246000Y-67511000D01*
X189610000Y-67551000D02*
X186310000Y-67551000D01*
X189541000Y-67591000D02*
X186379000Y-67591000D01*
X189469000Y-67631000D02*
X186451000Y-67631000D01*
X189392000Y-67671000D02*
X186528000Y-67671000D01*
X189310000Y-67711000D02*
X186610000Y-67711000D01*
X189222000Y-67751000D02*
X186698000Y-67751000D01*
X189125000Y-67791000D02*
X186795000Y-67791000D01*
X189019000Y-67831000D02*
X186901000Y-67831000D01*
X188900000Y-67871000D02*
X187020000Y-67871000D01*
X188762000Y-67911000D02*
X187158000Y-67911000D01*
X188593000Y-67951000D02*
X187327000Y-67951000D01*
X188362000Y-67991000D02*
X187558000Y-67991000D01*
X189799000Y-61249759D02*
X189799000Y-61879759D01*
X190114000Y-61564759D02*
X189484000Y-61564759D01*
G04 #@! TO.C,C22*
X105510000Y-118160000D02*
X105510000Y-125600000D01*
X102770000Y-118160000D02*
X102770000Y-125600000D01*
X105510000Y-118160000D02*
X102770000Y-118160000D01*
X105510000Y-125600000D02*
X102770000Y-125600000D01*
G04 #@! TO.C,C21*
X105510000Y-80060000D02*
X105510000Y-87500000D01*
X102770000Y-80060000D02*
X102770000Y-87500000D01*
X105510000Y-80060000D02*
X102770000Y-80060000D01*
X105510000Y-87500000D02*
X102770000Y-87500000D01*
G04 #@! TO.C,C20*
X146150000Y-80060000D02*
X146150000Y-87500000D01*
X143410000Y-80060000D02*
X143410000Y-87500000D01*
X146150000Y-80060000D02*
X143410000Y-80060000D01*
X146150000Y-87500000D02*
X143410000Y-87500000D01*
G04 #@! TO.C,C5*
X176630000Y-44500000D02*
X176630000Y-51940000D01*
X173890000Y-44500000D02*
X173890000Y-51940000D01*
X176630000Y-44500000D02*
X173890000Y-44500000D01*
X176630000Y-51940000D02*
X173890000Y-51940000D01*
G04 #@! TO.C,C2*
X176630000Y-80060000D02*
X176630000Y-87500000D01*
X173890000Y-80060000D02*
X173890000Y-87500000D01*
X176630000Y-80060000D02*
X173890000Y-80060000D01*
X176630000Y-87500000D02*
X173890000Y-87500000D01*
G04 #@! TO.C,C4*
X207110000Y-118160000D02*
X207110000Y-125600000D01*
X204370000Y-118160000D02*
X204370000Y-125600000D01*
X207110000Y-118160000D02*
X204370000Y-118160000D01*
X207110000Y-125600000D02*
X204370000Y-125600000D01*
G04 #@! TO.C,C1*
X176630000Y-97840000D02*
X176630000Y-105280000D01*
X173890000Y-97840000D02*
X173890000Y-105280000D01*
X176630000Y-97840000D02*
X173890000Y-97840000D01*
X176630000Y-105280000D02*
X173890000Y-105280000D01*
G04 #@! TO.C,C31*
X196201000Y-108300000D02*
X197459000Y-108300000D01*
X196201000Y-110140000D02*
X197459000Y-110140000D01*
G04 #@! TO.C,C30*
X196201000Y-110840000D02*
X197459000Y-110840000D01*
X196201000Y-112680000D02*
X197459000Y-112680000D01*
G04 #@! TO.C,C6*
D10*
X206057142Y-45846666D02*
X206104761Y-45894285D01*
X206152380Y-46037142D01*
X206152380Y-46132380D01*
X206104761Y-46275238D01*
X206009523Y-46370476D01*
X205914285Y-46418095D01*
X205723809Y-46465714D01*
X205580952Y-46465714D01*
X205390476Y-46418095D01*
X205295238Y-46370476D01*
X205200000Y-46275238D01*
X205152380Y-46132380D01*
X205152380Y-46037142D01*
X205200000Y-45894285D01*
X205247619Y-45846666D01*
X205152380Y-44989523D02*
X205152380Y-45180000D01*
X205200000Y-45275238D01*
X205247619Y-45322857D01*
X205390476Y-45418095D01*
X205580952Y-45465714D01*
X205961904Y-45465714D01*
X206057142Y-45418095D01*
X206104761Y-45370476D01*
X206152380Y-45275238D01*
X206152380Y-45084761D01*
X206104761Y-44989523D01*
X206057142Y-44941904D01*
X205961904Y-44894285D01*
X205723809Y-44894285D01*
X205628571Y-44941904D01*
X205580952Y-44989523D01*
X205533333Y-45084761D01*
X205533333Y-45275238D01*
X205580952Y-45370476D01*
X205628571Y-45418095D01*
X205723809Y-45465714D01*
G04 #@! TO.C,U6*
X180002380Y-47751904D02*
X180811904Y-47751904D01*
X180907142Y-47704285D01*
X180954761Y-47656666D01*
X181002380Y-47561428D01*
X181002380Y-47370952D01*
X180954761Y-47275714D01*
X180907142Y-47228095D01*
X180811904Y-47180476D01*
X180002380Y-47180476D01*
X180002380Y-46275714D02*
X180002380Y-46466190D01*
X180050000Y-46561428D01*
X180097619Y-46609047D01*
X180240476Y-46704285D01*
X180430952Y-46751904D01*
X180811904Y-46751904D01*
X180907142Y-46704285D01*
X180954761Y-46656666D01*
X181002380Y-46561428D01*
X181002380Y-46370952D01*
X180954761Y-46275714D01*
X180907142Y-46228095D01*
X180811904Y-46180476D01*
X180573809Y-46180476D01*
X180478571Y-46228095D01*
X180430952Y-46275714D01*
X180383333Y-46370952D01*
X180383333Y-46561428D01*
X180430952Y-46656666D01*
X180478571Y-46704285D01*
X180573809Y-46751904D01*
G04 #@! TO.C,J3*
D14*
X213156800Y-61388171D02*
X213156800Y-61823600D01*
X213127771Y-61910685D01*
X213069714Y-61968742D01*
X212982628Y-61997771D01*
X212924571Y-61997771D01*
X213389028Y-61388171D02*
X213766400Y-61388171D01*
X213563200Y-61620400D01*
X213650285Y-61620400D01*
X213708342Y-61649428D01*
X213737371Y-61678457D01*
X213766400Y-61736514D01*
X213766400Y-61881657D01*
X213737371Y-61939714D01*
X213708342Y-61968742D01*
X213650285Y-61997771D01*
X213476114Y-61997771D01*
X213418057Y-61968742D01*
X213389028Y-61939714D01*
X213156800Y-65680771D02*
X213156800Y-65071171D01*
X213360000Y-65506600D01*
X213563200Y-65071171D01*
X213563200Y-65680771D01*
G04 #@! TO.C,J2*
X213156800Y-51228171D02*
X213156800Y-51663600D01*
X213127771Y-51750685D01*
X213069714Y-51808742D01*
X212982628Y-51837771D01*
X212924571Y-51837771D01*
X213418057Y-51286228D02*
X213447085Y-51257200D01*
X213505142Y-51228171D01*
X213650285Y-51228171D01*
X213708342Y-51257200D01*
X213737371Y-51286228D01*
X213766400Y-51344285D01*
X213766400Y-51402342D01*
X213737371Y-51489428D01*
X213389028Y-51837771D01*
X213766400Y-51837771D01*
X213156800Y-55520771D02*
X213156800Y-54911171D01*
X213360000Y-55346600D01*
X213563200Y-54911171D01*
X213563200Y-55520771D01*
G04 #@! TO.C,J1*
X207311171Y-53543200D02*
X207746600Y-53543200D01*
X207833685Y-53572228D01*
X207891742Y-53630285D01*
X207920771Y-53717371D01*
X207920771Y-53775428D01*
X207920771Y-52933600D02*
X207920771Y-53281942D01*
X207920771Y-53107771D02*
X207311171Y-53107771D01*
X207398257Y-53165828D01*
X207456314Y-53223885D01*
X207485342Y-53281942D01*
X200326171Y-60742285D02*
X200819657Y-60742285D01*
X200877714Y-60713257D01*
X200906742Y-60684228D01*
X200935771Y-60626171D01*
X200935771Y-60510057D01*
X200906742Y-60452000D01*
X200877714Y-60422971D01*
X200819657Y-60393942D01*
X200326171Y-60393942D01*
X200906742Y-60132685D02*
X200935771Y-60045600D01*
X200935771Y-59900457D01*
X200906742Y-59842400D01*
X200877714Y-59813371D01*
X200819657Y-59784342D01*
X200761600Y-59784342D01*
X200703542Y-59813371D01*
X200674514Y-59842400D01*
X200645485Y-59900457D01*
X200616457Y-60016571D01*
X200587428Y-60074628D01*
X200558400Y-60103657D01*
X200500342Y-60132685D01*
X200442285Y-60132685D01*
X200384228Y-60103657D01*
X200355200Y-60074628D01*
X200326171Y-60016571D01*
X200326171Y-59871428D01*
X200355200Y-59784342D01*
X200616457Y-59319885D02*
X200645485Y-59232800D01*
X200674514Y-59203771D01*
X200732571Y-59174742D01*
X200819657Y-59174742D01*
X200877714Y-59203771D01*
X200906742Y-59232800D01*
X200935771Y-59290857D01*
X200935771Y-59523085D01*
X200326171Y-59523085D01*
X200326171Y-59319885D01*
X200355200Y-59261828D01*
X200384228Y-59232800D01*
X200442285Y-59203771D01*
X200500342Y-59203771D01*
X200558400Y-59232800D01*
X200587428Y-59261828D01*
X200616457Y-59319885D01*
X200616457Y-59523085D01*
X200529371Y-58449028D02*
X201138971Y-58449028D01*
X200558400Y-58449028D02*
X200529371Y-58390971D01*
X200529371Y-58274857D01*
X200558400Y-58216800D01*
X200587428Y-58187771D01*
X200645485Y-58158742D01*
X200819657Y-58158742D01*
X200877714Y-58187771D01*
X200906742Y-58216800D01*
X200935771Y-58274857D01*
X200935771Y-58390971D01*
X200906742Y-58449028D01*
X200935771Y-57810400D02*
X200906742Y-57868457D01*
X200877714Y-57897485D01*
X200819657Y-57926514D01*
X200645485Y-57926514D01*
X200587428Y-57897485D01*
X200558400Y-57868457D01*
X200529371Y-57810400D01*
X200529371Y-57723314D01*
X200558400Y-57665257D01*
X200587428Y-57636228D01*
X200645485Y-57607200D01*
X200819657Y-57607200D01*
X200877714Y-57636228D01*
X200906742Y-57665257D01*
X200935771Y-57723314D01*
X200935771Y-57810400D01*
X200529371Y-57404000D02*
X200935771Y-57287885D01*
X200645485Y-57171771D01*
X200935771Y-57055657D01*
X200529371Y-56939542D01*
X200906742Y-56475085D02*
X200935771Y-56533142D01*
X200935771Y-56649257D01*
X200906742Y-56707314D01*
X200848685Y-56736342D01*
X200616457Y-56736342D01*
X200558400Y-56707314D01*
X200529371Y-56649257D01*
X200529371Y-56533142D01*
X200558400Y-56475085D01*
X200616457Y-56446057D01*
X200674514Y-56446057D01*
X200732571Y-56736342D01*
X200935771Y-56184800D02*
X200529371Y-56184800D01*
X200645485Y-56184800D02*
X200587428Y-56155771D01*
X200558400Y-56126742D01*
X200529371Y-56068685D01*
X200529371Y-56010628D01*
G04 #@! TO.C,R25*
D10*
X156837142Y-114752380D02*
X156503809Y-114276190D01*
X156265714Y-114752380D02*
X156265714Y-113752380D01*
X156646666Y-113752380D01*
X156741904Y-113800000D01*
X156789523Y-113847619D01*
X156837142Y-113942857D01*
X156837142Y-114085714D01*
X156789523Y-114180952D01*
X156741904Y-114228571D01*
X156646666Y-114276190D01*
X156265714Y-114276190D01*
X157218095Y-113847619D02*
X157265714Y-113800000D01*
X157360952Y-113752380D01*
X157599047Y-113752380D01*
X157694285Y-113800000D01*
X157741904Y-113847619D01*
X157789523Y-113942857D01*
X157789523Y-114038095D01*
X157741904Y-114180952D01*
X157170476Y-114752380D01*
X157789523Y-114752380D01*
X158694285Y-113752380D02*
X158218095Y-113752380D01*
X158170476Y-114228571D01*
X158218095Y-114180952D01*
X158313333Y-114133333D01*
X158551428Y-114133333D01*
X158646666Y-114180952D01*
X158694285Y-114228571D01*
X158741904Y-114323809D01*
X158741904Y-114561904D01*
X158694285Y-114657142D01*
X158646666Y-114704761D01*
X158551428Y-114752380D01*
X158313333Y-114752380D01*
X158218095Y-114704761D01*
X158170476Y-114657142D01*
G04 #@! TO.C,R24*
X156837142Y-132532380D02*
X156503809Y-132056190D01*
X156265714Y-132532380D02*
X156265714Y-131532380D01*
X156646666Y-131532380D01*
X156741904Y-131580000D01*
X156789523Y-131627619D01*
X156837142Y-131722857D01*
X156837142Y-131865714D01*
X156789523Y-131960952D01*
X156741904Y-132008571D01*
X156646666Y-132056190D01*
X156265714Y-132056190D01*
X157218095Y-131627619D02*
X157265714Y-131580000D01*
X157360952Y-131532380D01*
X157599047Y-131532380D01*
X157694285Y-131580000D01*
X157741904Y-131627619D01*
X157789523Y-131722857D01*
X157789523Y-131818095D01*
X157741904Y-131960952D01*
X157170476Y-132532380D01*
X157789523Y-132532380D01*
X158646666Y-131865714D02*
X158646666Y-132532380D01*
X158408571Y-131484761D02*
X158170476Y-132199047D01*
X158789523Y-132199047D01*
G04 #@! TO.C,R4*
X157313333Y-76652380D02*
X156980000Y-76176190D01*
X156741904Y-76652380D02*
X156741904Y-75652380D01*
X157122857Y-75652380D01*
X157218095Y-75700000D01*
X157265714Y-75747619D01*
X157313333Y-75842857D01*
X157313333Y-75985714D01*
X157265714Y-76080952D01*
X157218095Y-76128571D01*
X157122857Y-76176190D01*
X156741904Y-76176190D01*
X158170476Y-75985714D02*
X158170476Y-76652380D01*
X157932380Y-75604761D02*
X157694285Y-76319047D01*
X158313333Y-76319047D01*
G04 #@! TO.C,U3*
X149522380Y-65531904D02*
X150331904Y-65531904D01*
X150427142Y-65484285D01*
X150474761Y-65436666D01*
X150522380Y-65341428D01*
X150522380Y-65150952D01*
X150474761Y-65055714D01*
X150427142Y-65008095D01*
X150331904Y-64960476D01*
X149522380Y-64960476D01*
X149522380Y-64579523D02*
X149522380Y-63960476D01*
X149903333Y-64293809D01*
X149903333Y-64150952D01*
X149950952Y-64055714D01*
X149998571Y-64008095D01*
X150093809Y-63960476D01*
X150331904Y-63960476D01*
X150427142Y-64008095D01*
X150474761Y-64055714D01*
X150522380Y-64150952D01*
X150522380Y-64436666D01*
X150474761Y-64531904D01*
X150427142Y-64579523D01*
G04 #@! TO.C,U2*
X149522380Y-83311904D02*
X150331904Y-83311904D01*
X150427142Y-83264285D01*
X150474761Y-83216666D01*
X150522380Y-83121428D01*
X150522380Y-82930952D01*
X150474761Y-82835714D01*
X150427142Y-82788095D01*
X150331904Y-82740476D01*
X149522380Y-82740476D01*
X149617619Y-82311904D02*
X149570000Y-82264285D01*
X149522380Y-82169047D01*
X149522380Y-81930952D01*
X149570000Y-81835714D01*
X149617619Y-81788095D01*
X149712857Y-81740476D01*
X149808095Y-81740476D01*
X149950952Y-81788095D01*
X150522380Y-82359523D01*
X150522380Y-81740476D01*
G04 #@! TO.C,C3*
X178117142Y-66166666D02*
X178164761Y-66214285D01*
X178212380Y-66357142D01*
X178212380Y-66452380D01*
X178164761Y-66595238D01*
X178069523Y-66690476D01*
X177974285Y-66738095D01*
X177783809Y-66785714D01*
X177640952Y-66785714D01*
X177450476Y-66738095D01*
X177355238Y-66690476D01*
X177260000Y-66595238D01*
X177212380Y-66452380D01*
X177212380Y-66357142D01*
X177260000Y-66214285D01*
X177307619Y-66166666D01*
X177212380Y-65833333D02*
X177212380Y-65214285D01*
X177593333Y-65547619D01*
X177593333Y-65404761D01*
X177640952Y-65309523D01*
X177688571Y-65261904D01*
X177783809Y-65214285D01*
X178021904Y-65214285D01*
X178117142Y-65261904D01*
X178164761Y-65309523D01*
X178212380Y-65404761D01*
X178212380Y-65690476D01*
X178164761Y-65785714D01*
X178117142Y-65833333D01*
G04 #@! TO.C,U5*
X152062380Y-47751904D02*
X152871904Y-47751904D01*
X152967142Y-47704285D01*
X153014761Y-47656666D01*
X153062380Y-47561428D01*
X153062380Y-47370952D01*
X153014761Y-47275714D01*
X152967142Y-47228095D01*
X152871904Y-47180476D01*
X152062380Y-47180476D01*
X152062380Y-46228095D02*
X152062380Y-46704285D01*
X152538571Y-46751904D01*
X152490952Y-46704285D01*
X152443333Y-46609047D01*
X152443333Y-46370952D01*
X152490952Y-46275714D01*
X152538571Y-46228095D01*
X152633809Y-46180476D01*
X152871904Y-46180476D01*
X152967142Y-46228095D01*
X153014761Y-46275714D01*
X153062380Y-46370952D01*
X153062380Y-46609047D01*
X153014761Y-46704285D01*
X152967142Y-46751904D01*
G04 #@! TO.C,U4*
X180002380Y-121411904D02*
X180811904Y-121411904D01*
X180907142Y-121364285D01*
X180954761Y-121316666D01*
X181002380Y-121221428D01*
X181002380Y-121030952D01*
X180954761Y-120935714D01*
X180907142Y-120888095D01*
X180811904Y-120840476D01*
X180002380Y-120840476D01*
X180335714Y-119935714D02*
X181002380Y-119935714D01*
X179954761Y-120173809D02*
X180669047Y-120411904D01*
X180669047Y-119792857D01*
G04 #@! TO.C,U1*
X152062380Y-101091904D02*
X152871904Y-101091904D01*
X152967142Y-101044285D01*
X153014761Y-100996666D01*
X153062380Y-100901428D01*
X153062380Y-100710952D01*
X153014761Y-100615714D01*
X152967142Y-100568095D01*
X152871904Y-100520476D01*
X152062380Y-100520476D01*
X153062380Y-99520476D02*
X153062380Y-100091904D01*
X153062380Y-99806190D02*
X152062380Y-99806190D01*
X152205238Y-99901428D01*
X152300476Y-99996666D01*
X152348095Y-100091904D01*
G04 #@! TO.C,C34*
X201267142Y-74017142D02*
X201219523Y-74064761D01*
X201076666Y-74112380D01*
X200981428Y-74112380D01*
X200838571Y-74064761D01*
X200743333Y-73969523D01*
X200695714Y-73874285D01*
X200648095Y-73683809D01*
X200648095Y-73540952D01*
X200695714Y-73350476D01*
X200743333Y-73255238D01*
X200838571Y-73160000D01*
X200981428Y-73112380D01*
X201076666Y-73112380D01*
X201219523Y-73160000D01*
X201267142Y-73207619D01*
X201600476Y-73112380D02*
X202219523Y-73112380D01*
X201886190Y-73493333D01*
X202029047Y-73493333D01*
X202124285Y-73540952D01*
X202171904Y-73588571D01*
X202219523Y-73683809D01*
X202219523Y-73921904D01*
X202171904Y-74017142D01*
X202124285Y-74064761D01*
X202029047Y-74112380D01*
X201743333Y-74112380D01*
X201648095Y-74064761D01*
X201600476Y-74017142D01*
X203076666Y-73445714D02*
X203076666Y-74112380D01*
X202838571Y-73064761D02*
X202600476Y-73779047D01*
X203219523Y-73779047D01*
G04 #@! TO.C,C33*
X201267142Y-84177142D02*
X201219523Y-84224761D01*
X201076666Y-84272380D01*
X200981428Y-84272380D01*
X200838571Y-84224761D01*
X200743333Y-84129523D01*
X200695714Y-84034285D01*
X200648095Y-83843809D01*
X200648095Y-83700952D01*
X200695714Y-83510476D01*
X200743333Y-83415238D01*
X200838571Y-83320000D01*
X200981428Y-83272380D01*
X201076666Y-83272380D01*
X201219523Y-83320000D01*
X201267142Y-83367619D01*
X201600476Y-83272380D02*
X202219523Y-83272380D01*
X201886190Y-83653333D01*
X202029047Y-83653333D01*
X202124285Y-83700952D01*
X202171904Y-83748571D01*
X202219523Y-83843809D01*
X202219523Y-84081904D01*
X202171904Y-84177142D01*
X202124285Y-84224761D01*
X202029047Y-84272380D01*
X201743333Y-84272380D01*
X201648095Y-84224761D01*
X201600476Y-84177142D01*
X202552857Y-83272380D02*
X203171904Y-83272380D01*
X202838571Y-83653333D01*
X202981428Y-83653333D01*
X203076666Y-83700952D01*
X203124285Y-83748571D01*
X203171904Y-83843809D01*
X203171904Y-84081904D01*
X203124285Y-84177142D01*
X203076666Y-84224761D01*
X202981428Y-84272380D01*
X202695714Y-84272380D01*
X202600476Y-84224761D01*
X202552857Y-84177142D01*
G04 #@! TO.C,C32*
X201267142Y-94337142D02*
X201219523Y-94384761D01*
X201076666Y-94432380D01*
X200981428Y-94432380D01*
X200838571Y-94384761D01*
X200743333Y-94289523D01*
X200695714Y-94194285D01*
X200648095Y-94003809D01*
X200648095Y-93860952D01*
X200695714Y-93670476D01*
X200743333Y-93575238D01*
X200838571Y-93480000D01*
X200981428Y-93432380D01*
X201076666Y-93432380D01*
X201219523Y-93480000D01*
X201267142Y-93527619D01*
X201600476Y-93432380D02*
X202219523Y-93432380D01*
X201886190Y-93813333D01*
X202029047Y-93813333D01*
X202124285Y-93860952D01*
X202171904Y-93908571D01*
X202219523Y-94003809D01*
X202219523Y-94241904D01*
X202171904Y-94337142D01*
X202124285Y-94384761D01*
X202029047Y-94432380D01*
X201743333Y-94432380D01*
X201648095Y-94384761D01*
X201600476Y-94337142D01*
X202600476Y-93527619D02*
X202648095Y-93480000D01*
X202743333Y-93432380D01*
X202981428Y-93432380D01*
X203076666Y-93480000D01*
X203124285Y-93527619D01*
X203171904Y-93622857D01*
X203171904Y-93718095D01*
X203124285Y-93860952D01*
X202552857Y-94432380D01*
X203171904Y-94432380D01*
G04 #@! TO.C,C25*
X169771142Y-114657142D02*
X169723523Y-114704761D01*
X169580666Y-114752380D01*
X169485428Y-114752380D01*
X169342571Y-114704761D01*
X169247333Y-114609523D01*
X169199714Y-114514285D01*
X169152095Y-114323809D01*
X169152095Y-114180952D01*
X169199714Y-113990476D01*
X169247333Y-113895238D01*
X169342571Y-113800000D01*
X169485428Y-113752380D01*
X169580666Y-113752380D01*
X169723523Y-113800000D01*
X169771142Y-113847619D01*
X170152095Y-113847619D02*
X170199714Y-113800000D01*
X170294952Y-113752380D01*
X170533047Y-113752380D01*
X170628285Y-113800000D01*
X170675904Y-113847619D01*
X170723523Y-113942857D01*
X170723523Y-114038095D01*
X170675904Y-114180952D01*
X170104476Y-114752380D01*
X170723523Y-114752380D01*
X171628285Y-113752380D02*
X171152095Y-113752380D01*
X171104476Y-114228571D01*
X171152095Y-114180952D01*
X171247333Y-114133333D01*
X171485428Y-114133333D01*
X171580666Y-114180952D01*
X171628285Y-114228571D01*
X171675904Y-114323809D01*
X171675904Y-114561904D01*
X171628285Y-114657142D01*
X171580666Y-114704761D01*
X171485428Y-114752380D01*
X171247333Y-114752380D01*
X171152095Y-114704761D01*
X171104476Y-114657142D01*
G04 #@! TO.C,C24*
X170787142Y-132437142D02*
X170739523Y-132484761D01*
X170596666Y-132532380D01*
X170501428Y-132532380D01*
X170358571Y-132484761D01*
X170263333Y-132389523D01*
X170215714Y-132294285D01*
X170168095Y-132103809D01*
X170168095Y-131960952D01*
X170215714Y-131770476D01*
X170263333Y-131675238D01*
X170358571Y-131580000D01*
X170501428Y-131532380D01*
X170596666Y-131532380D01*
X170739523Y-131580000D01*
X170787142Y-131627619D01*
X171168095Y-131627619D02*
X171215714Y-131580000D01*
X171310952Y-131532380D01*
X171549047Y-131532380D01*
X171644285Y-131580000D01*
X171691904Y-131627619D01*
X171739523Y-131722857D01*
X171739523Y-131818095D01*
X171691904Y-131960952D01*
X171120476Y-132532380D01*
X171739523Y-132532380D01*
X172596666Y-131865714D02*
X172596666Y-132532380D01*
X172358571Y-131484761D02*
X172120476Y-132199047D01*
X172739523Y-132199047D01*
G04 #@! TO.C,C23*
X178117142Y-122522857D02*
X178164761Y-122570476D01*
X178212380Y-122713333D01*
X178212380Y-122808571D01*
X178164761Y-122951428D01*
X178069523Y-123046666D01*
X177974285Y-123094285D01*
X177783809Y-123141904D01*
X177640952Y-123141904D01*
X177450476Y-123094285D01*
X177355238Y-123046666D01*
X177260000Y-122951428D01*
X177212380Y-122808571D01*
X177212380Y-122713333D01*
X177260000Y-122570476D01*
X177307619Y-122522857D01*
X177307619Y-122141904D02*
X177260000Y-122094285D01*
X177212380Y-121999047D01*
X177212380Y-121760952D01*
X177260000Y-121665714D01*
X177307619Y-121618095D01*
X177402857Y-121570476D01*
X177498095Y-121570476D01*
X177640952Y-121618095D01*
X178212380Y-122189523D01*
X178212380Y-121570476D01*
X177212380Y-121237142D02*
X177212380Y-120618095D01*
X177593333Y-120951428D01*
X177593333Y-120808571D01*
X177640952Y-120713333D01*
X177688571Y-120665714D01*
X177783809Y-120618095D01*
X178021904Y-120618095D01*
X178117142Y-120665714D01*
X178164761Y-120713333D01*
X178212380Y-120808571D01*
X178212380Y-121094285D01*
X178164761Y-121189523D01*
X178117142Y-121237142D01*
G04 #@! TO.C,C16*
X106997142Y-102202857D02*
X107044761Y-102250476D01*
X107092380Y-102393333D01*
X107092380Y-102488571D01*
X107044761Y-102631428D01*
X106949523Y-102726666D01*
X106854285Y-102774285D01*
X106663809Y-102821904D01*
X106520952Y-102821904D01*
X106330476Y-102774285D01*
X106235238Y-102726666D01*
X106140000Y-102631428D01*
X106092380Y-102488571D01*
X106092380Y-102393333D01*
X106140000Y-102250476D01*
X106187619Y-102202857D01*
X107092380Y-101250476D02*
X107092380Y-101821904D01*
X107092380Y-101536190D02*
X106092380Y-101536190D01*
X106235238Y-101631428D01*
X106330476Y-101726666D01*
X106378095Y-101821904D01*
X106092380Y-100393333D02*
X106092380Y-100583809D01*
X106140000Y-100679047D01*
X106187619Y-100726666D01*
X106330476Y-100821904D01*
X106520952Y-100869523D01*
X106901904Y-100869523D01*
X106997142Y-100821904D01*
X107044761Y-100774285D01*
X107092380Y-100679047D01*
X107092380Y-100488571D01*
X107044761Y-100393333D01*
X106997142Y-100345714D01*
X106901904Y-100298095D01*
X106663809Y-100298095D01*
X106568571Y-100345714D01*
X106520952Y-100393333D01*
X106473333Y-100488571D01*
X106473333Y-100679047D01*
X106520952Y-100774285D01*
X106568571Y-100821904D01*
X106663809Y-100869523D01*
G04 #@! TO.C,C15*
X106997142Y-66642857D02*
X107044761Y-66690476D01*
X107092380Y-66833333D01*
X107092380Y-66928571D01*
X107044761Y-67071428D01*
X106949523Y-67166666D01*
X106854285Y-67214285D01*
X106663809Y-67261904D01*
X106520952Y-67261904D01*
X106330476Y-67214285D01*
X106235238Y-67166666D01*
X106140000Y-67071428D01*
X106092380Y-66928571D01*
X106092380Y-66833333D01*
X106140000Y-66690476D01*
X106187619Y-66642857D01*
X107092380Y-65690476D02*
X107092380Y-66261904D01*
X107092380Y-65976190D02*
X106092380Y-65976190D01*
X106235238Y-66071428D01*
X106330476Y-66166666D01*
X106378095Y-66261904D01*
X106092380Y-64785714D02*
X106092380Y-65261904D01*
X106568571Y-65309523D01*
X106520952Y-65261904D01*
X106473333Y-65166666D01*
X106473333Y-64928571D01*
X106520952Y-64833333D01*
X106568571Y-64785714D01*
X106663809Y-64738095D01*
X106901904Y-64738095D01*
X106997142Y-64785714D01*
X107044761Y-64833333D01*
X107092380Y-64928571D01*
X107092380Y-65166666D01*
X107044761Y-65261904D01*
X106997142Y-65309523D01*
G04 #@! TO.C,C14*
X106997142Y-48862857D02*
X107044761Y-48910476D01*
X107092380Y-49053333D01*
X107092380Y-49148571D01*
X107044761Y-49291428D01*
X106949523Y-49386666D01*
X106854285Y-49434285D01*
X106663809Y-49481904D01*
X106520952Y-49481904D01*
X106330476Y-49434285D01*
X106235238Y-49386666D01*
X106140000Y-49291428D01*
X106092380Y-49148571D01*
X106092380Y-49053333D01*
X106140000Y-48910476D01*
X106187619Y-48862857D01*
X107092380Y-47910476D02*
X107092380Y-48481904D01*
X107092380Y-48196190D02*
X106092380Y-48196190D01*
X106235238Y-48291428D01*
X106330476Y-48386666D01*
X106378095Y-48481904D01*
X106425714Y-47053333D02*
X107092380Y-47053333D01*
X106044761Y-47291428D02*
X106759047Y-47529523D01*
X106759047Y-46910476D01*
G04 #@! TO.C,C13*
X147637142Y-122522857D02*
X147684761Y-122570476D01*
X147732380Y-122713333D01*
X147732380Y-122808571D01*
X147684761Y-122951428D01*
X147589523Y-123046666D01*
X147494285Y-123094285D01*
X147303809Y-123141904D01*
X147160952Y-123141904D01*
X146970476Y-123094285D01*
X146875238Y-123046666D01*
X146780000Y-122951428D01*
X146732380Y-122808571D01*
X146732380Y-122713333D01*
X146780000Y-122570476D01*
X146827619Y-122522857D01*
X147732380Y-121570476D02*
X147732380Y-122141904D01*
X147732380Y-121856190D02*
X146732380Y-121856190D01*
X146875238Y-121951428D01*
X146970476Y-122046666D01*
X147018095Y-122141904D01*
X146732380Y-121237142D02*
X146732380Y-120618095D01*
X147113333Y-120951428D01*
X147113333Y-120808571D01*
X147160952Y-120713333D01*
X147208571Y-120665714D01*
X147303809Y-120618095D01*
X147541904Y-120618095D01*
X147637142Y-120665714D01*
X147684761Y-120713333D01*
X147732380Y-120808571D01*
X147732380Y-121094285D01*
X147684761Y-121189523D01*
X147637142Y-121237142D01*
G04 #@! TO.C,C12*
X147637142Y-102202857D02*
X147684761Y-102250476D01*
X147732380Y-102393333D01*
X147732380Y-102488571D01*
X147684761Y-102631428D01*
X147589523Y-102726666D01*
X147494285Y-102774285D01*
X147303809Y-102821904D01*
X147160952Y-102821904D01*
X146970476Y-102774285D01*
X146875238Y-102726666D01*
X146780000Y-102631428D01*
X146732380Y-102488571D01*
X146732380Y-102393333D01*
X146780000Y-102250476D01*
X146827619Y-102202857D01*
X147732380Y-101250476D02*
X147732380Y-101821904D01*
X147732380Y-101536190D02*
X146732380Y-101536190D01*
X146875238Y-101631428D01*
X146970476Y-101726666D01*
X147018095Y-101821904D01*
X146827619Y-100869523D02*
X146780000Y-100821904D01*
X146732380Y-100726666D01*
X146732380Y-100488571D01*
X146780000Y-100393333D01*
X146827619Y-100345714D01*
X146922857Y-100298095D01*
X147018095Y-100298095D01*
X147160952Y-100345714D01*
X147732380Y-100917142D01*
X147732380Y-100298095D01*
G04 #@! TO.C,C11*
X147637142Y-66642857D02*
X147684761Y-66690476D01*
X147732380Y-66833333D01*
X147732380Y-66928571D01*
X147684761Y-67071428D01*
X147589523Y-67166666D01*
X147494285Y-67214285D01*
X147303809Y-67261904D01*
X147160952Y-67261904D01*
X146970476Y-67214285D01*
X146875238Y-67166666D01*
X146780000Y-67071428D01*
X146732380Y-66928571D01*
X146732380Y-66833333D01*
X146780000Y-66690476D01*
X146827619Y-66642857D01*
X147732380Y-65690476D02*
X147732380Y-66261904D01*
X147732380Y-65976190D02*
X146732380Y-65976190D01*
X146875238Y-66071428D01*
X146970476Y-66166666D01*
X147018095Y-66261904D01*
X147732380Y-64738095D02*
X147732380Y-65309523D01*
X147732380Y-65023809D02*
X146732380Y-65023809D01*
X146875238Y-65119047D01*
X146970476Y-65214285D01*
X147018095Y-65309523D01*
G04 #@! TO.C,C10*
X147637142Y-48862857D02*
X147684761Y-48910476D01*
X147732380Y-49053333D01*
X147732380Y-49148571D01*
X147684761Y-49291428D01*
X147589523Y-49386666D01*
X147494285Y-49434285D01*
X147303809Y-49481904D01*
X147160952Y-49481904D01*
X146970476Y-49434285D01*
X146875238Y-49386666D01*
X146780000Y-49291428D01*
X146732380Y-49148571D01*
X146732380Y-49053333D01*
X146780000Y-48910476D01*
X146827619Y-48862857D01*
X147732380Y-47910476D02*
X147732380Y-48481904D01*
X147732380Y-48196190D02*
X146732380Y-48196190D01*
X146875238Y-48291428D01*
X146970476Y-48386666D01*
X147018095Y-48481904D01*
X146732380Y-47291428D02*
X146732380Y-47196190D01*
X146780000Y-47100952D01*
X146827619Y-47053333D01*
X146922857Y-47005714D01*
X147113333Y-46958095D01*
X147351428Y-46958095D01*
X147541904Y-47005714D01*
X147637142Y-47053333D01*
X147684761Y-47100952D01*
X147732380Y-47196190D01*
X147732380Y-47291428D01*
X147684761Y-47386666D01*
X147637142Y-47434285D01*
X147541904Y-47481904D01*
X147351428Y-47529523D01*
X147113333Y-47529523D01*
X146922857Y-47481904D01*
X146827619Y-47434285D01*
X146780000Y-47386666D01*
X146732380Y-47291428D01*
G04 #@! TO.C,Y1*
X184943809Y-114276190D02*
X184943809Y-114752380D01*
X184610476Y-113752380D02*
X184943809Y-114276190D01*
X185277142Y-113752380D01*
X186134285Y-114752380D02*
X185562857Y-114752380D01*
X185848571Y-114752380D02*
X185848571Y-113752380D01*
X185753333Y-113895238D01*
X185658095Y-113990476D01*
X185562857Y-114038095D01*
G04 #@! TO.C,U23*
X149522380Y-121888095D02*
X150331904Y-121888095D01*
X150427142Y-121840476D01*
X150474761Y-121792857D01*
X150522380Y-121697619D01*
X150522380Y-121507142D01*
X150474761Y-121411904D01*
X150427142Y-121364285D01*
X150331904Y-121316666D01*
X149522380Y-121316666D01*
X149617619Y-120888095D02*
X149570000Y-120840476D01*
X149522380Y-120745238D01*
X149522380Y-120507142D01*
X149570000Y-120411904D01*
X149617619Y-120364285D01*
X149712857Y-120316666D01*
X149808095Y-120316666D01*
X149950952Y-120364285D01*
X150522380Y-120935714D01*
X150522380Y-120316666D01*
X149522380Y-119983333D02*
X149522380Y-119364285D01*
X149903333Y-119697619D01*
X149903333Y-119554761D01*
X149950952Y-119459523D01*
X149998571Y-119411904D01*
X150093809Y-119364285D01*
X150331904Y-119364285D01*
X150427142Y-119411904D01*
X150474761Y-119459523D01*
X150522380Y-119554761D01*
X150522380Y-119840476D01*
X150474761Y-119935714D01*
X150427142Y-119983333D01*
G04 #@! TO.C,U22*
X80942380Y-121888095D02*
X81751904Y-121888095D01*
X81847142Y-121840476D01*
X81894761Y-121792857D01*
X81942380Y-121697619D01*
X81942380Y-121507142D01*
X81894761Y-121411904D01*
X81847142Y-121364285D01*
X81751904Y-121316666D01*
X80942380Y-121316666D01*
X81037619Y-120888095D02*
X80990000Y-120840476D01*
X80942380Y-120745238D01*
X80942380Y-120507142D01*
X80990000Y-120411904D01*
X81037619Y-120364285D01*
X81132857Y-120316666D01*
X81228095Y-120316666D01*
X81370952Y-120364285D01*
X81942380Y-120935714D01*
X81942380Y-120316666D01*
X81037619Y-119935714D02*
X80990000Y-119888095D01*
X80942380Y-119792857D01*
X80942380Y-119554761D01*
X80990000Y-119459523D01*
X81037619Y-119411904D01*
X81132857Y-119364285D01*
X81228095Y-119364285D01*
X81370952Y-119411904D01*
X81942380Y-119983333D01*
X81942380Y-119364285D01*
G04 #@! TO.C,U21*
X81196380Y-83788095D02*
X82005904Y-83788095D01*
X82101142Y-83740476D01*
X82148761Y-83692857D01*
X82196380Y-83597619D01*
X82196380Y-83407142D01*
X82148761Y-83311904D01*
X82101142Y-83264285D01*
X82005904Y-83216666D01*
X81196380Y-83216666D01*
X81291619Y-82788095D02*
X81244000Y-82740476D01*
X81196380Y-82645238D01*
X81196380Y-82407142D01*
X81244000Y-82311904D01*
X81291619Y-82264285D01*
X81386857Y-82216666D01*
X81482095Y-82216666D01*
X81624952Y-82264285D01*
X82196380Y-82835714D01*
X82196380Y-82216666D01*
X82196380Y-81264285D02*
X82196380Y-81835714D01*
X82196380Y-81550000D02*
X81196380Y-81550000D01*
X81339238Y-81645238D01*
X81434476Y-81740476D01*
X81482095Y-81835714D01*
G04 #@! TO.C,U20*
X121582380Y-83788095D02*
X122391904Y-83788095D01*
X122487142Y-83740476D01*
X122534761Y-83692857D01*
X122582380Y-83597619D01*
X122582380Y-83407142D01*
X122534761Y-83311904D01*
X122487142Y-83264285D01*
X122391904Y-83216666D01*
X121582380Y-83216666D01*
X121677619Y-82788095D02*
X121630000Y-82740476D01*
X121582380Y-82645238D01*
X121582380Y-82407142D01*
X121630000Y-82311904D01*
X121677619Y-82264285D01*
X121772857Y-82216666D01*
X121868095Y-82216666D01*
X122010952Y-82264285D01*
X122582380Y-82835714D01*
X122582380Y-82216666D01*
X121582380Y-81597619D02*
X121582380Y-81502380D01*
X121630000Y-81407142D01*
X121677619Y-81359523D01*
X121772857Y-81311904D01*
X121963333Y-81264285D01*
X122201428Y-81264285D01*
X122391904Y-81311904D01*
X122487142Y-81359523D01*
X122534761Y-81407142D01*
X122582380Y-81502380D01*
X122582380Y-81597619D01*
X122534761Y-81692857D01*
X122487142Y-81740476D01*
X122391904Y-81788095D01*
X122201428Y-81835714D01*
X121963333Y-81835714D01*
X121772857Y-81788095D01*
X121677619Y-81740476D01*
X121630000Y-81692857D01*
X121582380Y-81597619D01*
G04 #@! TO.C,U16*
X81450380Y-101568095D02*
X82259904Y-101568095D01*
X82355142Y-101520476D01*
X82402761Y-101472857D01*
X82450380Y-101377619D01*
X82450380Y-101187142D01*
X82402761Y-101091904D01*
X82355142Y-101044285D01*
X82259904Y-100996666D01*
X81450380Y-100996666D01*
X82450380Y-99996666D02*
X82450380Y-100568095D01*
X82450380Y-100282380D02*
X81450380Y-100282380D01*
X81593238Y-100377619D01*
X81688476Y-100472857D01*
X81736095Y-100568095D01*
X81450380Y-99139523D02*
X81450380Y-99330000D01*
X81498000Y-99425238D01*
X81545619Y-99472857D01*
X81688476Y-99568095D01*
X81878952Y-99615714D01*
X82259904Y-99615714D01*
X82355142Y-99568095D01*
X82402761Y-99520476D01*
X82450380Y-99425238D01*
X82450380Y-99234761D01*
X82402761Y-99139523D01*
X82355142Y-99091904D01*
X82259904Y-99044285D01*
X82021809Y-99044285D01*
X81926571Y-99091904D01*
X81878952Y-99139523D01*
X81831333Y-99234761D01*
X81831333Y-99425238D01*
X81878952Y-99520476D01*
X81926571Y-99568095D01*
X82021809Y-99615714D01*
G04 #@! TO.C,U15*
X80942380Y-66008095D02*
X81751904Y-66008095D01*
X81847142Y-65960476D01*
X81894761Y-65912857D01*
X81942380Y-65817619D01*
X81942380Y-65627142D01*
X81894761Y-65531904D01*
X81847142Y-65484285D01*
X81751904Y-65436666D01*
X80942380Y-65436666D01*
X81942380Y-64436666D02*
X81942380Y-65008095D01*
X81942380Y-64722380D02*
X80942380Y-64722380D01*
X81085238Y-64817619D01*
X81180476Y-64912857D01*
X81228095Y-65008095D01*
X80942380Y-63531904D02*
X80942380Y-64008095D01*
X81418571Y-64055714D01*
X81370952Y-64008095D01*
X81323333Y-63912857D01*
X81323333Y-63674761D01*
X81370952Y-63579523D01*
X81418571Y-63531904D01*
X81513809Y-63484285D01*
X81751904Y-63484285D01*
X81847142Y-63531904D01*
X81894761Y-63579523D01*
X81942380Y-63674761D01*
X81942380Y-63912857D01*
X81894761Y-64008095D01*
X81847142Y-64055714D01*
G04 #@! TO.C,U14*
X80942380Y-48228095D02*
X81751904Y-48228095D01*
X81847142Y-48180476D01*
X81894761Y-48132857D01*
X81942380Y-48037619D01*
X81942380Y-47847142D01*
X81894761Y-47751904D01*
X81847142Y-47704285D01*
X81751904Y-47656666D01*
X80942380Y-47656666D01*
X81942380Y-46656666D02*
X81942380Y-47228095D01*
X81942380Y-46942380D02*
X80942380Y-46942380D01*
X81085238Y-47037619D01*
X81180476Y-47132857D01*
X81228095Y-47228095D01*
X81275714Y-45799523D02*
X81942380Y-45799523D01*
X80894761Y-46037619D02*
X81609047Y-46275714D01*
X81609047Y-45656666D01*
G04 #@! TO.C,U13*
X121582380Y-121888095D02*
X122391904Y-121888095D01*
X122487142Y-121840476D01*
X122534761Y-121792857D01*
X122582380Y-121697619D01*
X122582380Y-121507142D01*
X122534761Y-121411904D01*
X122487142Y-121364285D01*
X122391904Y-121316666D01*
X121582380Y-121316666D01*
X122582380Y-120316666D02*
X122582380Y-120888095D01*
X122582380Y-120602380D02*
X121582380Y-120602380D01*
X121725238Y-120697619D01*
X121820476Y-120792857D01*
X121868095Y-120888095D01*
X121582380Y-119983333D02*
X121582380Y-119364285D01*
X121963333Y-119697619D01*
X121963333Y-119554761D01*
X122010952Y-119459523D01*
X122058571Y-119411904D01*
X122153809Y-119364285D01*
X122391904Y-119364285D01*
X122487142Y-119411904D01*
X122534761Y-119459523D01*
X122582380Y-119554761D01*
X122582380Y-119840476D01*
X122534761Y-119935714D01*
X122487142Y-119983333D01*
G04 #@! TO.C,U12*
X121582380Y-101568095D02*
X122391904Y-101568095D01*
X122487142Y-101520476D01*
X122534761Y-101472857D01*
X122582380Y-101377619D01*
X122582380Y-101187142D01*
X122534761Y-101091904D01*
X122487142Y-101044285D01*
X122391904Y-100996666D01*
X121582380Y-100996666D01*
X122582380Y-99996666D02*
X122582380Y-100568095D01*
X122582380Y-100282380D02*
X121582380Y-100282380D01*
X121725238Y-100377619D01*
X121820476Y-100472857D01*
X121868095Y-100568095D01*
X121677619Y-99615714D02*
X121630000Y-99568095D01*
X121582380Y-99472857D01*
X121582380Y-99234761D01*
X121630000Y-99139523D01*
X121677619Y-99091904D01*
X121772857Y-99044285D01*
X121868095Y-99044285D01*
X122010952Y-99091904D01*
X122582380Y-99663333D01*
X122582380Y-99044285D01*
G04 #@! TO.C,U11*
X121836380Y-66008095D02*
X122645904Y-66008095D01*
X122741142Y-65960476D01*
X122788761Y-65912857D01*
X122836380Y-65817619D01*
X122836380Y-65627142D01*
X122788761Y-65531904D01*
X122741142Y-65484285D01*
X122645904Y-65436666D01*
X121836380Y-65436666D01*
X122836380Y-64436666D02*
X122836380Y-65008095D01*
X122836380Y-64722380D02*
X121836380Y-64722380D01*
X121979238Y-64817619D01*
X122074476Y-64912857D01*
X122122095Y-65008095D01*
X122836380Y-63484285D02*
X122836380Y-64055714D01*
X122836380Y-63770000D02*
X121836380Y-63770000D01*
X121979238Y-63865238D01*
X122074476Y-63960476D01*
X122122095Y-64055714D01*
G04 #@! TO.C,U10*
X121582380Y-48228095D02*
X122391904Y-48228095D01*
X122487142Y-48180476D01*
X122534761Y-48132857D01*
X122582380Y-48037619D01*
X122582380Y-47847142D01*
X122534761Y-47751904D01*
X122487142Y-47704285D01*
X122391904Y-47656666D01*
X121582380Y-47656666D01*
X122582380Y-46656666D02*
X122582380Y-47228095D01*
X122582380Y-46942380D02*
X121582380Y-46942380D01*
X121725238Y-47037619D01*
X121820476Y-47132857D01*
X121868095Y-47228095D01*
X121582380Y-46037619D02*
X121582380Y-45942380D01*
X121630000Y-45847142D01*
X121677619Y-45799523D01*
X121772857Y-45751904D01*
X121963333Y-45704285D01*
X122201428Y-45704285D01*
X122391904Y-45751904D01*
X122487142Y-45799523D01*
X122534761Y-45847142D01*
X122582380Y-45942380D01*
X122582380Y-46037619D01*
X122534761Y-46132857D01*
X122487142Y-46180476D01*
X122391904Y-46228095D01*
X122201428Y-46275714D01*
X121963333Y-46275714D01*
X121772857Y-46228095D01*
X121677619Y-46180476D01*
X121630000Y-46132857D01*
X121582380Y-46037619D01*
G04 #@! TO.C,SW1*
X216304761Y-101103333D02*
X216352380Y-100960476D01*
X216352380Y-100722380D01*
X216304761Y-100627142D01*
X216257142Y-100579523D01*
X216161904Y-100531904D01*
X216066666Y-100531904D01*
X215971428Y-100579523D01*
X215923809Y-100627142D01*
X215876190Y-100722380D01*
X215828571Y-100912857D01*
X215780952Y-101008095D01*
X215733333Y-101055714D01*
X215638095Y-101103333D01*
X215542857Y-101103333D01*
X215447619Y-101055714D01*
X215400000Y-101008095D01*
X215352380Y-100912857D01*
X215352380Y-100674761D01*
X215400000Y-100531904D01*
X215352380Y-100198571D02*
X216352380Y-99960476D01*
X215638095Y-99770000D01*
X216352380Y-99579523D01*
X215352380Y-99341428D01*
X216352380Y-98436666D02*
X216352380Y-99008095D01*
X216352380Y-98722380D02*
X215352380Y-98722380D01*
X215495238Y-98817619D01*
X215590476Y-98912857D01*
X215638095Y-99008095D01*
G04 #@! TO.C,SW2*
X216304761Y-88403333D02*
X216352380Y-88260476D01*
X216352380Y-88022380D01*
X216304761Y-87927142D01*
X216257142Y-87879523D01*
X216161904Y-87831904D01*
X216066666Y-87831904D01*
X215971428Y-87879523D01*
X215923809Y-87927142D01*
X215876190Y-88022380D01*
X215828571Y-88212857D01*
X215780952Y-88308095D01*
X215733333Y-88355714D01*
X215638095Y-88403333D01*
X215542857Y-88403333D01*
X215447619Y-88355714D01*
X215400000Y-88308095D01*
X215352380Y-88212857D01*
X215352380Y-87974761D01*
X215400000Y-87831904D01*
X215352380Y-87498571D02*
X216352380Y-87260476D01*
X215638095Y-87070000D01*
X216352380Y-86879523D01*
X215352380Y-86641428D01*
X215447619Y-86308095D02*
X215400000Y-86260476D01*
X215352380Y-86165238D01*
X215352380Y-85927142D01*
X215400000Y-85831904D01*
X215447619Y-85784285D01*
X215542857Y-85736666D01*
X215638095Y-85736666D01*
X215780952Y-85784285D01*
X216352380Y-86355714D01*
X216352380Y-85736666D01*
G04 #@! TO.C,SW3*
X216304761Y-75703333D02*
X216352380Y-75560476D01*
X216352380Y-75322380D01*
X216304761Y-75227142D01*
X216257142Y-75179523D01*
X216161904Y-75131904D01*
X216066666Y-75131904D01*
X215971428Y-75179523D01*
X215923809Y-75227142D01*
X215876190Y-75322380D01*
X215828571Y-75512857D01*
X215780952Y-75608095D01*
X215733333Y-75655714D01*
X215638095Y-75703333D01*
X215542857Y-75703333D01*
X215447619Y-75655714D01*
X215400000Y-75608095D01*
X215352380Y-75512857D01*
X215352380Y-75274761D01*
X215400000Y-75131904D01*
X215352380Y-74798571D02*
X216352380Y-74560476D01*
X215638095Y-74370000D01*
X216352380Y-74179523D01*
X215352380Y-73941428D01*
X215352380Y-73655714D02*
X215352380Y-73036666D01*
X215733333Y-73370000D01*
X215733333Y-73227142D01*
X215780952Y-73131904D01*
X215828571Y-73084285D01*
X215923809Y-73036666D01*
X216161904Y-73036666D01*
X216257142Y-73084285D01*
X216304761Y-73131904D01*
X216352380Y-73227142D01*
X216352380Y-73512857D01*
X216304761Y-73608095D01*
X216257142Y-73655714D01*
G04 #@! TO.C,RN1*
X112212380Y-80700476D02*
X111736190Y-81033809D01*
X112212380Y-81271904D02*
X111212380Y-81271904D01*
X111212380Y-80890952D01*
X111260000Y-80795714D01*
X111307619Y-80748095D01*
X111402857Y-80700476D01*
X111545714Y-80700476D01*
X111640952Y-80748095D01*
X111688571Y-80795714D01*
X111736190Y-80890952D01*
X111736190Y-81271904D01*
X112212380Y-80271904D02*
X111212380Y-80271904D01*
X112212380Y-79700476D01*
X111212380Y-79700476D01*
X112212380Y-78700476D02*
X112212380Y-79271904D01*
X112212380Y-78986190D02*
X111212380Y-78986190D01*
X111355238Y-79081428D01*
X111450476Y-79176666D01*
X111498095Y-79271904D01*
G04 #@! TO.C,R17*
X197477142Y-79022380D02*
X197143809Y-78546190D01*
X196905714Y-79022380D02*
X196905714Y-78022380D01*
X197286666Y-78022380D01*
X197381904Y-78070000D01*
X197429523Y-78117619D01*
X197477142Y-78212857D01*
X197477142Y-78355714D01*
X197429523Y-78450952D01*
X197381904Y-78498571D01*
X197286666Y-78546190D01*
X196905714Y-78546190D01*
X198429523Y-79022380D02*
X197858095Y-79022380D01*
X198143809Y-79022380D02*
X198143809Y-78022380D01*
X198048571Y-78165238D01*
X197953333Y-78260476D01*
X197858095Y-78308095D01*
X198762857Y-78022380D02*
X199429523Y-78022380D01*
X199000952Y-79022380D01*
G04 #@! TO.C,R16*
X197477142Y-89182380D02*
X197143809Y-88706190D01*
X196905714Y-89182380D02*
X196905714Y-88182380D01*
X197286666Y-88182380D01*
X197381904Y-88230000D01*
X197429523Y-88277619D01*
X197477142Y-88372857D01*
X197477142Y-88515714D01*
X197429523Y-88610952D01*
X197381904Y-88658571D01*
X197286666Y-88706190D01*
X196905714Y-88706190D01*
X198429523Y-89182380D02*
X197858095Y-89182380D01*
X198143809Y-89182380D02*
X198143809Y-88182380D01*
X198048571Y-88325238D01*
X197953333Y-88420476D01*
X197858095Y-88468095D01*
X199286666Y-88182380D02*
X199096190Y-88182380D01*
X199000952Y-88230000D01*
X198953333Y-88277619D01*
X198858095Y-88420476D01*
X198810476Y-88610952D01*
X198810476Y-88991904D01*
X198858095Y-89087142D01*
X198905714Y-89134761D01*
X199000952Y-89182380D01*
X199191428Y-89182380D01*
X199286666Y-89134761D01*
X199334285Y-89087142D01*
X199381904Y-88991904D01*
X199381904Y-88753809D01*
X199334285Y-88658571D01*
X199286666Y-88610952D01*
X199191428Y-88563333D01*
X199000952Y-88563333D01*
X198905714Y-88610952D01*
X198858095Y-88658571D01*
X198810476Y-88753809D01*
G04 #@! TO.C,R15*
X197477142Y-99342380D02*
X197143809Y-98866190D01*
X196905714Y-99342380D02*
X196905714Y-98342380D01*
X197286666Y-98342380D01*
X197381904Y-98390000D01*
X197429523Y-98437619D01*
X197477142Y-98532857D01*
X197477142Y-98675714D01*
X197429523Y-98770952D01*
X197381904Y-98818571D01*
X197286666Y-98866190D01*
X196905714Y-98866190D01*
X198429523Y-99342380D02*
X197858095Y-99342380D01*
X198143809Y-99342380D02*
X198143809Y-98342380D01*
X198048571Y-98485238D01*
X197953333Y-98580476D01*
X197858095Y-98628095D01*
X199334285Y-98342380D02*
X198858095Y-98342380D01*
X198810476Y-98818571D01*
X198858095Y-98770952D01*
X198953333Y-98723333D01*
X199191428Y-98723333D01*
X199286666Y-98770952D01*
X199334285Y-98818571D01*
X199381904Y-98913809D01*
X199381904Y-99151904D01*
X199334285Y-99247142D01*
X199286666Y-99294761D01*
X199191428Y-99342380D01*
X198953333Y-99342380D01*
X198858095Y-99294761D01*
X198810476Y-99247142D01*
G04 #@! TO.C,R31*
X206192380Y-107322857D02*
X205716190Y-107656190D01*
X206192380Y-107894285D02*
X205192380Y-107894285D01*
X205192380Y-107513333D01*
X205240000Y-107418095D01*
X205287619Y-107370476D01*
X205382857Y-107322857D01*
X205525714Y-107322857D01*
X205620952Y-107370476D01*
X205668571Y-107418095D01*
X205716190Y-107513333D01*
X205716190Y-107894285D01*
X205192380Y-106989523D02*
X205192380Y-106370476D01*
X205573333Y-106703809D01*
X205573333Y-106560952D01*
X205620952Y-106465714D01*
X205668571Y-106418095D01*
X205763809Y-106370476D01*
X206001904Y-106370476D01*
X206097142Y-106418095D01*
X206144761Y-106465714D01*
X206192380Y-106560952D01*
X206192380Y-106846666D01*
X206144761Y-106941904D01*
X206097142Y-106989523D01*
X206192380Y-105418095D02*
X206192380Y-105989523D01*
X206192380Y-105703809D02*
X205192380Y-105703809D01*
X205335238Y-105799047D01*
X205430476Y-105894285D01*
X205478095Y-105989523D01*
G04 #@! TO.C,R30*
X184777142Y-107132380D02*
X184443809Y-106656190D01*
X184205714Y-107132380D02*
X184205714Y-106132380D01*
X184586666Y-106132380D01*
X184681904Y-106180000D01*
X184729523Y-106227619D01*
X184777142Y-106322857D01*
X184777142Y-106465714D01*
X184729523Y-106560952D01*
X184681904Y-106608571D01*
X184586666Y-106656190D01*
X184205714Y-106656190D01*
X185110476Y-106132380D02*
X185729523Y-106132380D01*
X185396190Y-106513333D01*
X185539047Y-106513333D01*
X185634285Y-106560952D01*
X185681904Y-106608571D01*
X185729523Y-106703809D01*
X185729523Y-106941904D01*
X185681904Y-107037142D01*
X185634285Y-107084761D01*
X185539047Y-107132380D01*
X185253333Y-107132380D01*
X185158095Y-107084761D01*
X185110476Y-107037142D01*
X186348571Y-106132380D02*
X186443809Y-106132380D01*
X186539047Y-106180000D01*
X186586666Y-106227619D01*
X186634285Y-106322857D01*
X186681904Y-106513333D01*
X186681904Y-106751428D01*
X186634285Y-106941904D01*
X186586666Y-107037142D01*
X186539047Y-107084761D01*
X186443809Y-107132380D01*
X186348571Y-107132380D01*
X186253333Y-107084761D01*
X186205714Y-107037142D01*
X186158095Y-106941904D01*
X186110476Y-106751428D01*
X186110476Y-106513333D01*
X186158095Y-106322857D01*
X186205714Y-106227619D01*
X186253333Y-106180000D01*
X186348571Y-106132380D01*
G04 #@! TO.C,D9*
X183411904Y-89772380D02*
X183411904Y-88772380D01*
X183650000Y-88772380D01*
X183792857Y-88820000D01*
X183888095Y-88915238D01*
X183935714Y-89010476D01*
X183983333Y-89200952D01*
X183983333Y-89343809D01*
X183935714Y-89534285D01*
X183888095Y-89629523D01*
X183792857Y-89724761D01*
X183650000Y-89772380D01*
X183411904Y-89772380D01*
X184459523Y-89772380D02*
X184650000Y-89772380D01*
X184745238Y-89724761D01*
X184792857Y-89677142D01*
X184888095Y-89534285D01*
X184935714Y-89343809D01*
X184935714Y-88962857D01*
X184888095Y-88867619D01*
X184840476Y-88820000D01*
X184745238Y-88772380D01*
X184554761Y-88772380D01*
X184459523Y-88820000D01*
X184411904Y-88867619D01*
X184364285Y-88962857D01*
X184364285Y-89200952D01*
X184411904Y-89296190D01*
X184459523Y-89343809D01*
X184554761Y-89391428D01*
X184745238Y-89391428D01*
X184840476Y-89343809D01*
X184888095Y-89296190D01*
X184935714Y-89200952D01*
G04 #@! TO.C,D16*
X81732380Y-97734285D02*
X80732380Y-97734285D01*
X80732380Y-97496190D01*
X80780000Y-97353333D01*
X80875238Y-97258095D01*
X80970476Y-97210476D01*
X81160952Y-97162857D01*
X81303809Y-97162857D01*
X81494285Y-97210476D01*
X81589523Y-97258095D01*
X81684761Y-97353333D01*
X81732380Y-97496190D01*
X81732380Y-97734285D01*
X81732380Y-96210476D02*
X81732380Y-96781904D01*
X81732380Y-96496190D02*
X80732380Y-96496190D01*
X80875238Y-96591428D01*
X80970476Y-96686666D01*
X81018095Y-96781904D01*
X80732380Y-95353333D02*
X80732380Y-95543809D01*
X80780000Y-95639047D01*
X80827619Y-95686666D01*
X80970476Y-95781904D01*
X81160952Y-95829523D01*
X81541904Y-95829523D01*
X81637142Y-95781904D01*
X81684761Y-95734285D01*
X81732380Y-95639047D01*
X81732380Y-95448571D01*
X81684761Y-95353333D01*
X81637142Y-95305714D01*
X81541904Y-95258095D01*
X81303809Y-95258095D01*
X81208571Y-95305714D01*
X81160952Y-95353333D01*
X81113333Y-95448571D01*
X81113333Y-95639047D01*
X81160952Y-95734285D01*
X81208571Y-95781904D01*
X81303809Y-95829523D01*
G04 #@! TO.C,D15*
X81732380Y-74874285D02*
X80732380Y-74874285D01*
X80732380Y-74636190D01*
X80780000Y-74493333D01*
X80875238Y-74398095D01*
X80970476Y-74350476D01*
X81160952Y-74302857D01*
X81303809Y-74302857D01*
X81494285Y-74350476D01*
X81589523Y-74398095D01*
X81684761Y-74493333D01*
X81732380Y-74636190D01*
X81732380Y-74874285D01*
X81732380Y-73350476D02*
X81732380Y-73921904D01*
X81732380Y-73636190D02*
X80732380Y-73636190D01*
X80875238Y-73731428D01*
X80970476Y-73826666D01*
X81018095Y-73921904D01*
X80732380Y-72445714D02*
X80732380Y-72921904D01*
X81208571Y-72969523D01*
X81160952Y-72921904D01*
X81113333Y-72826666D01*
X81113333Y-72588571D01*
X81160952Y-72493333D01*
X81208571Y-72445714D01*
X81303809Y-72398095D01*
X81541904Y-72398095D01*
X81637142Y-72445714D01*
X81684761Y-72493333D01*
X81732380Y-72588571D01*
X81732380Y-72826666D01*
X81684761Y-72921904D01*
X81637142Y-72969523D01*
G04 #@! TO.C,D14*
X81732380Y-52014285D02*
X80732380Y-52014285D01*
X80732380Y-51776190D01*
X80780000Y-51633333D01*
X80875238Y-51538095D01*
X80970476Y-51490476D01*
X81160952Y-51442857D01*
X81303809Y-51442857D01*
X81494285Y-51490476D01*
X81589523Y-51538095D01*
X81684761Y-51633333D01*
X81732380Y-51776190D01*
X81732380Y-52014285D01*
X81732380Y-50490476D02*
X81732380Y-51061904D01*
X81732380Y-50776190D02*
X80732380Y-50776190D01*
X80875238Y-50871428D01*
X80970476Y-50966666D01*
X81018095Y-51061904D01*
X81065714Y-49633333D02*
X81732380Y-49633333D01*
X80684761Y-49871428D02*
X81399047Y-50109523D01*
X81399047Y-49490476D01*
G04 #@! TO.C,D13*
X122372380Y-125674285D02*
X121372380Y-125674285D01*
X121372380Y-125436190D01*
X121420000Y-125293333D01*
X121515238Y-125198095D01*
X121610476Y-125150476D01*
X121800952Y-125102857D01*
X121943809Y-125102857D01*
X122134285Y-125150476D01*
X122229523Y-125198095D01*
X122324761Y-125293333D01*
X122372380Y-125436190D01*
X122372380Y-125674285D01*
X122372380Y-124150476D02*
X122372380Y-124721904D01*
X122372380Y-124436190D02*
X121372380Y-124436190D01*
X121515238Y-124531428D01*
X121610476Y-124626666D01*
X121658095Y-124721904D01*
X121372380Y-123817142D02*
X121372380Y-123198095D01*
X121753333Y-123531428D01*
X121753333Y-123388571D01*
X121800952Y-123293333D01*
X121848571Y-123245714D01*
X121943809Y-123198095D01*
X122181904Y-123198095D01*
X122277142Y-123245714D01*
X122324761Y-123293333D01*
X122372380Y-123388571D01*
X122372380Y-123674285D01*
X122324761Y-123769523D01*
X122277142Y-123817142D01*
G04 #@! TO.C,D12*
X122372380Y-97734285D02*
X121372380Y-97734285D01*
X121372380Y-97496190D01*
X121420000Y-97353333D01*
X121515238Y-97258095D01*
X121610476Y-97210476D01*
X121800952Y-97162857D01*
X121943809Y-97162857D01*
X122134285Y-97210476D01*
X122229523Y-97258095D01*
X122324761Y-97353333D01*
X122372380Y-97496190D01*
X122372380Y-97734285D01*
X122372380Y-96210476D02*
X122372380Y-96781904D01*
X122372380Y-96496190D02*
X121372380Y-96496190D01*
X121515238Y-96591428D01*
X121610476Y-96686666D01*
X121658095Y-96781904D01*
X121467619Y-95829523D02*
X121420000Y-95781904D01*
X121372380Y-95686666D01*
X121372380Y-95448571D01*
X121420000Y-95353333D01*
X121467619Y-95305714D01*
X121562857Y-95258095D01*
X121658095Y-95258095D01*
X121800952Y-95305714D01*
X122372380Y-95877142D01*
X122372380Y-95258095D01*
G04 #@! TO.C,D11*
X122372380Y-74874285D02*
X121372380Y-74874285D01*
X121372380Y-74636190D01*
X121420000Y-74493333D01*
X121515238Y-74398095D01*
X121610476Y-74350476D01*
X121800952Y-74302857D01*
X121943809Y-74302857D01*
X122134285Y-74350476D01*
X122229523Y-74398095D01*
X122324761Y-74493333D01*
X122372380Y-74636190D01*
X122372380Y-74874285D01*
X122372380Y-73350476D02*
X122372380Y-73921904D01*
X122372380Y-73636190D02*
X121372380Y-73636190D01*
X121515238Y-73731428D01*
X121610476Y-73826666D01*
X121658095Y-73921904D01*
X122372380Y-72398095D02*
X122372380Y-72969523D01*
X122372380Y-72683809D02*
X121372380Y-72683809D01*
X121515238Y-72779047D01*
X121610476Y-72874285D01*
X121658095Y-72969523D01*
G04 #@! TO.C,D10*
X122372380Y-52014285D02*
X121372380Y-52014285D01*
X121372380Y-51776190D01*
X121420000Y-51633333D01*
X121515238Y-51538095D01*
X121610476Y-51490476D01*
X121800952Y-51442857D01*
X121943809Y-51442857D01*
X122134285Y-51490476D01*
X122229523Y-51538095D01*
X122324761Y-51633333D01*
X122372380Y-51776190D01*
X122372380Y-52014285D01*
X122372380Y-50490476D02*
X122372380Y-51061904D01*
X122372380Y-50776190D02*
X121372380Y-50776190D01*
X121515238Y-50871428D01*
X121610476Y-50966666D01*
X121658095Y-51061904D01*
X121372380Y-49871428D02*
X121372380Y-49776190D01*
X121420000Y-49680952D01*
X121467619Y-49633333D01*
X121562857Y-49585714D01*
X121753333Y-49538095D01*
X121991428Y-49538095D01*
X122181904Y-49585714D01*
X122277142Y-49633333D01*
X122324761Y-49680952D01*
X122372380Y-49776190D01*
X122372380Y-49871428D01*
X122324761Y-49966666D01*
X122277142Y-50014285D01*
X122181904Y-50061904D01*
X121991428Y-50109523D01*
X121753333Y-50109523D01*
X121562857Y-50061904D01*
X121467619Y-50014285D01*
X121420000Y-49966666D01*
X121372380Y-49871428D01*
G04 #@! TO.C,C9*
X183237142Y-64916666D02*
X183284761Y-64964285D01*
X183332380Y-65107142D01*
X183332380Y-65202380D01*
X183284761Y-65345238D01*
X183189523Y-65440476D01*
X183094285Y-65488095D01*
X182903809Y-65535714D01*
X182760952Y-65535714D01*
X182570476Y-65488095D01*
X182475238Y-65440476D01*
X182380000Y-65345238D01*
X182332380Y-65202380D01*
X182332380Y-65107142D01*
X182380000Y-64964285D01*
X182427619Y-64916666D01*
X183332380Y-64440476D02*
X183332380Y-64250000D01*
X183284761Y-64154761D01*
X183237142Y-64107142D01*
X183094285Y-64011904D01*
X182903809Y-63964285D01*
X182522857Y-63964285D01*
X182427619Y-64011904D01*
X182380000Y-64059523D01*
X182332380Y-64154761D01*
X182332380Y-64345238D01*
X182380000Y-64440476D01*
X182427619Y-64488095D01*
X182522857Y-64535714D01*
X182760952Y-64535714D01*
X182856190Y-64488095D01*
X182903809Y-64440476D01*
X182951428Y-64345238D01*
X182951428Y-64154761D01*
X182903809Y-64059523D01*
X182856190Y-64011904D01*
X182760952Y-63964285D01*
G04 #@! TO.C,C22*
X106997142Y-122522857D02*
X107044761Y-122570476D01*
X107092380Y-122713333D01*
X107092380Y-122808571D01*
X107044761Y-122951428D01*
X106949523Y-123046666D01*
X106854285Y-123094285D01*
X106663809Y-123141904D01*
X106520952Y-123141904D01*
X106330476Y-123094285D01*
X106235238Y-123046666D01*
X106140000Y-122951428D01*
X106092380Y-122808571D01*
X106092380Y-122713333D01*
X106140000Y-122570476D01*
X106187619Y-122522857D01*
X106187619Y-122141904D02*
X106140000Y-122094285D01*
X106092380Y-121999047D01*
X106092380Y-121760952D01*
X106140000Y-121665714D01*
X106187619Y-121618095D01*
X106282857Y-121570476D01*
X106378095Y-121570476D01*
X106520952Y-121618095D01*
X107092380Y-122189523D01*
X107092380Y-121570476D01*
X106187619Y-121189523D02*
X106140000Y-121141904D01*
X106092380Y-121046666D01*
X106092380Y-120808571D01*
X106140000Y-120713333D01*
X106187619Y-120665714D01*
X106282857Y-120618095D01*
X106378095Y-120618095D01*
X106520952Y-120665714D01*
X107092380Y-121237142D01*
X107092380Y-120618095D01*
G04 #@! TO.C,C21*
X106997142Y-84422857D02*
X107044761Y-84470476D01*
X107092380Y-84613333D01*
X107092380Y-84708571D01*
X107044761Y-84851428D01*
X106949523Y-84946666D01*
X106854285Y-84994285D01*
X106663809Y-85041904D01*
X106520952Y-85041904D01*
X106330476Y-84994285D01*
X106235238Y-84946666D01*
X106140000Y-84851428D01*
X106092380Y-84708571D01*
X106092380Y-84613333D01*
X106140000Y-84470476D01*
X106187619Y-84422857D01*
X106187619Y-84041904D02*
X106140000Y-83994285D01*
X106092380Y-83899047D01*
X106092380Y-83660952D01*
X106140000Y-83565714D01*
X106187619Y-83518095D01*
X106282857Y-83470476D01*
X106378095Y-83470476D01*
X106520952Y-83518095D01*
X107092380Y-84089523D01*
X107092380Y-83470476D01*
X107092380Y-82518095D02*
X107092380Y-83089523D01*
X107092380Y-82803809D02*
X106092380Y-82803809D01*
X106235238Y-82899047D01*
X106330476Y-82994285D01*
X106378095Y-83089523D01*
G04 #@! TO.C,C20*
X147637142Y-84422857D02*
X147684761Y-84470476D01*
X147732380Y-84613333D01*
X147732380Y-84708571D01*
X147684761Y-84851428D01*
X147589523Y-84946666D01*
X147494285Y-84994285D01*
X147303809Y-85041904D01*
X147160952Y-85041904D01*
X146970476Y-84994285D01*
X146875238Y-84946666D01*
X146780000Y-84851428D01*
X146732380Y-84708571D01*
X146732380Y-84613333D01*
X146780000Y-84470476D01*
X146827619Y-84422857D01*
X146827619Y-84041904D02*
X146780000Y-83994285D01*
X146732380Y-83899047D01*
X146732380Y-83660952D01*
X146780000Y-83565714D01*
X146827619Y-83518095D01*
X146922857Y-83470476D01*
X147018095Y-83470476D01*
X147160952Y-83518095D01*
X147732380Y-84089523D01*
X147732380Y-83470476D01*
X146732380Y-82851428D02*
X146732380Y-82756190D01*
X146780000Y-82660952D01*
X146827619Y-82613333D01*
X146922857Y-82565714D01*
X147113333Y-82518095D01*
X147351428Y-82518095D01*
X147541904Y-82565714D01*
X147637142Y-82613333D01*
X147684761Y-82660952D01*
X147732380Y-82756190D01*
X147732380Y-82851428D01*
X147684761Y-82946666D01*
X147637142Y-82994285D01*
X147541904Y-83041904D01*
X147351428Y-83089523D01*
X147113333Y-83089523D01*
X146922857Y-83041904D01*
X146827619Y-82994285D01*
X146780000Y-82946666D01*
X146732380Y-82851428D01*
G04 #@! TO.C,C5*
X178117142Y-48386666D02*
X178164761Y-48434285D01*
X178212380Y-48577142D01*
X178212380Y-48672380D01*
X178164761Y-48815238D01*
X178069523Y-48910476D01*
X177974285Y-48958095D01*
X177783809Y-49005714D01*
X177640952Y-49005714D01*
X177450476Y-48958095D01*
X177355238Y-48910476D01*
X177260000Y-48815238D01*
X177212380Y-48672380D01*
X177212380Y-48577142D01*
X177260000Y-48434285D01*
X177307619Y-48386666D01*
X177212380Y-47481904D02*
X177212380Y-47958095D01*
X177688571Y-48005714D01*
X177640952Y-47958095D01*
X177593333Y-47862857D01*
X177593333Y-47624761D01*
X177640952Y-47529523D01*
X177688571Y-47481904D01*
X177783809Y-47434285D01*
X178021904Y-47434285D01*
X178117142Y-47481904D01*
X178164761Y-47529523D01*
X178212380Y-47624761D01*
X178212380Y-47862857D01*
X178164761Y-47958095D01*
X178117142Y-48005714D01*
G04 #@! TO.C,C2*
X178117142Y-83946666D02*
X178164761Y-83994285D01*
X178212380Y-84137142D01*
X178212380Y-84232380D01*
X178164761Y-84375238D01*
X178069523Y-84470476D01*
X177974285Y-84518095D01*
X177783809Y-84565714D01*
X177640952Y-84565714D01*
X177450476Y-84518095D01*
X177355238Y-84470476D01*
X177260000Y-84375238D01*
X177212380Y-84232380D01*
X177212380Y-84137142D01*
X177260000Y-83994285D01*
X177307619Y-83946666D01*
X177307619Y-83565714D02*
X177260000Y-83518095D01*
X177212380Y-83422857D01*
X177212380Y-83184761D01*
X177260000Y-83089523D01*
X177307619Y-83041904D01*
X177402857Y-82994285D01*
X177498095Y-82994285D01*
X177640952Y-83041904D01*
X178212380Y-83613333D01*
X178212380Y-82994285D01*
G04 #@! TO.C,C4*
X208597142Y-122046666D02*
X208644761Y-122094285D01*
X208692380Y-122237142D01*
X208692380Y-122332380D01*
X208644761Y-122475238D01*
X208549523Y-122570476D01*
X208454285Y-122618095D01*
X208263809Y-122665714D01*
X208120952Y-122665714D01*
X207930476Y-122618095D01*
X207835238Y-122570476D01*
X207740000Y-122475238D01*
X207692380Y-122332380D01*
X207692380Y-122237142D01*
X207740000Y-122094285D01*
X207787619Y-122046666D01*
X208025714Y-121189523D02*
X208692380Y-121189523D01*
X207644761Y-121427619D02*
X208359047Y-121665714D01*
X208359047Y-121046666D01*
G04 #@! TO.C,C1*
X178117142Y-101726666D02*
X178164761Y-101774285D01*
X178212380Y-101917142D01*
X178212380Y-102012380D01*
X178164761Y-102155238D01*
X178069523Y-102250476D01*
X177974285Y-102298095D01*
X177783809Y-102345714D01*
X177640952Y-102345714D01*
X177450476Y-102298095D01*
X177355238Y-102250476D01*
X177260000Y-102155238D01*
X177212380Y-102012380D01*
X177212380Y-101917142D01*
X177260000Y-101774285D01*
X177307619Y-101726666D01*
X178212380Y-100774285D02*
X178212380Y-101345714D01*
X178212380Y-101060000D02*
X177212380Y-101060000D01*
X177355238Y-101155238D01*
X177450476Y-101250476D01*
X177498095Y-101345714D01*
G04 #@! TO.C,C31*
X196187142Y-107527142D02*
X196139523Y-107574761D01*
X195996666Y-107622380D01*
X195901428Y-107622380D01*
X195758571Y-107574761D01*
X195663333Y-107479523D01*
X195615714Y-107384285D01*
X195568095Y-107193809D01*
X195568095Y-107050952D01*
X195615714Y-106860476D01*
X195663333Y-106765238D01*
X195758571Y-106670000D01*
X195901428Y-106622380D01*
X195996666Y-106622380D01*
X196139523Y-106670000D01*
X196187142Y-106717619D01*
X196520476Y-106622380D02*
X197139523Y-106622380D01*
X196806190Y-107003333D01*
X196949047Y-107003333D01*
X197044285Y-107050952D01*
X197091904Y-107098571D01*
X197139523Y-107193809D01*
X197139523Y-107431904D01*
X197091904Y-107527142D01*
X197044285Y-107574761D01*
X196949047Y-107622380D01*
X196663333Y-107622380D01*
X196568095Y-107574761D01*
X196520476Y-107527142D01*
X198091904Y-107622380D02*
X197520476Y-107622380D01*
X197806190Y-107622380D02*
X197806190Y-106622380D01*
X197710952Y-106765238D01*
X197615714Y-106860476D01*
X197520476Y-106908095D01*
G04 #@! TO.C,C30*
X196187142Y-114657142D02*
X196139523Y-114704761D01*
X195996666Y-114752380D01*
X195901428Y-114752380D01*
X195758571Y-114704761D01*
X195663333Y-114609523D01*
X195615714Y-114514285D01*
X195568095Y-114323809D01*
X195568095Y-114180952D01*
X195615714Y-113990476D01*
X195663333Y-113895238D01*
X195758571Y-113800000D01*
X195901428Y-113752380D01*
X195996666Y-113752380D01*
X196139523Y-113800000D01*
X196187142Y-113847619D01*
X196520476Y-113752380D02*
X197139523Y-113752380D01*
X196806190Y-114133333D01*
X196949047Y-114133333D01*
X197044285Y-114180952D01*
X197091904Y-114228571D01*
X197139523Y-114323809D01*
X197139523Y-114561904D01*
X197091904Y-114657142D01*
X197044285Y-114704761D01*
X196949047Y-114752380D01*
X196663333Y-114752380D01*
X196568095Y-114704761D01*
X196520476Y-114657142D01*
X197758571Y-113752380D02*
X197853809Y-113752380D01*
X197949047Y-113800000D01*
X197996666Y-113847619D01*
X198044285Y-113942857D01*
X198091904Y-114133333D01*
X198091904Y-114371428D01*
X198044285Y-114561904D01*
X197996666Y-114657142D01*
X197949047Y-114704761D01*
X197853809Y-114752380D01*
X197758571Y-114752380D01*
X197663333Y-114704761D01*
X197615714Y-114657142D01*
X197568095Y-114561904D01*
X197520476Y-114371428D01*
X197520476Y-114133333D01*
X197568095Y-113942857D01*
X197615714Y-113847619D01*
X197663333Y-113800000D01*
X197758571Y-113752380D01*
G04 #@! TD*
M02*
