G04 #@! TF.GenerationSoftware,KiCad,Pcbnew,5.1.12-5.1.12*
G04 #@! TF.CreationDate,2021-12-20T18:48:56+11:00*
G04 #@! TF.ProjectId,ttlclock3,74746c63-6c6f-4636-9b33-2e6b69636164,rev?*
G04 #@! TF.SameCoordinates,Original*
G04 #@! TF.FileFunction,Soldermask,Bot*
G04 #@! TF.FilePolarity,Negative*
%FSLAX46Y46*%
G04 Gerber Fmt 4.6, Leading zero omitted, Abs format (unit mm)*
G04 Created by KiCad (PCBNEW 5.1.12-5.1.12) date 2021-12-20 18:48:56*
%MOMM*%
%LPD*%
G01*
G04 APERTURE LIST*
%ADD10C,1.600000*%
%ADD11O,1.600000X1.600000*%
%ADD12R,1.600000X1.600000*%
%ADD13C,2.082800*%
%ADD14C,1.000000*%
%ADD15C,2.000000*%
%ADD16C,7.000000*%
%ADD17C,1.800000*%
%ADD18R,1.800000X1.800000*%
G04 APERTURE END LIST*
D10*
G04 #@! TO.C,C6*
X203200000Y-48180000D03*
X203200000Y-43180000D03*
G04 #@! TD*
D11*
G04 #@! TO.C,U6*
X182880000Y-43180000D03*
X198120000Y-50800000D03*
X185420000Y-43180000D03*
X195580000Y-50800000D03*
X187960000Y-43180000D03*
X193040000Y-50800000D03*
X190500000Y-43180000D03*
X190500000Y-50800000D03*
X193040000Y-43180000D03*
X187960000Y-50800000D03*
X195580000Y-43180000D03*
X185420000Y-50800000D03*
X198120000Y-43180000D03*
D12*
X182880000Y-50800000D03*
G04 #@! TD*
D13*
G04 #@! TO.C,J3*
X213360000Y-63500000D03*
G04 #@! TD*
G04 #@! TO.C,J2*
X213360000Y-53340000D03*
G04 #@! TD*
G04 #@! TO.C,J1*
X205740000Y-63500000D03*
X205740000Y-60960000D03*
X205740000Y-58420000D03*
X205740000Y-55880000D03*
X205740000Y-53340000D03*
G04 #@! TD*
D11*
G04 #@! TO.C,R25*
X162560000Y-111760000D03*
D10*
X152400000Y-111760000D03*
G04 #@! TD*
D11*
G04 #@! TO.C,R24*
X162560000Y-129540000D03*
D10*
X152400000Y-129540000D03*
G04 #@! TD*
D11*
G04 #@! TO.C,R4*
X162560000Y-73660000D03*
D10*
X152400000Y-73660000D03*
G04 #@! TD*
D11*
G04 #@! TO.C,U3*
X152400000Y-60960000D03*
X170180000Y-68580000D03*
X154940000Y-60960000D03*
X167640000Y-68580000D03*
X157480000Y-60960000D03*
X165100000Y-68580000D03*
X160020000Y-60960000D03*
X162560000Y-68580000D03*
X162560000Y-60960000D03*
X160020000Y-68580000D03*
X165100000Y-60960000D03*
X157480000Y-68580000D03*
X167640000Y-60960000D03*
X154940000Y-68580000D03*
X170180000Y-60960000D03*
D12*
X152400000Y-68580000D03*
G04 #@! TD*
D11*
G04 #@! TO.C,U2*
X152400000Y-78740000D03*
X170180000Y-86360000D03*
X154940000Y-78740000D03*
X167640000Y-86360000D03*
X157480000Y-78740000D03*
X165100000Y-86360000D03*
X160020000Y-78740000D03*
X162560000Y-86360000D03*
X162560000Y-78740000D03*
X160020000Y-86360000D03*
X165100000Y-78740000D03*
X157480000Y-86360000D03*
X167640000Y-78740000D03*
X154940000Y-86360000D03*
X170180000Y-78740000D03*
D12*
X152400000Y-86360000D03*
G04 #@! TD*
D10*
G04 #@! TO.C,C3*
X175260000Y-68500000D03*
X175260000Y-63500000D03*
G04 #@! TD*
D11*
G04 #@! TO.C,U5*
X154940000Y-43180000D03*
X170180000Y-50800000D03*
X157480000Y-43180000D03*
X167640000Y-50800000D03*
X160020000Y-43180000D03*
X165100000Y-50800000D03*
X162560000Y-43180000D03*
X162560000Y-50800000D03*
X165100000Y-43180000D03*
X160020000Y-50800000D03*
X167640000Y-43180000D03*
X157480000Y-50800000D03*
X170180000Y-43180000D03*
D12*
X154940000Y-50800000D03*
G04 #@! TD*
D11*
G04 #@! TO.C,U4*
X182880000Y-116840000D03*
X200660000Y-124460000D03*
X185420000Y-116840000D03*
X198120000Y-124460000D03*
X187960000Y-116840000D03*
X195580000Y-124460000D03*
X190500000Y-116840000D03*
X193040000Y-124460000D03*
X193040000Y-116840000D03*
X190500000Y-124460000D03*
X195580000Y-116840000D03*
X187960000Y-124460000D03*
X198120000Y-116840000D03*
X185420000Y-124460000D03*
X200660000Y-116840000D03*
D12*
X182880000Y-124460000D03*
G04 #@! TD*
D11*
G04 #@! TO.C,U1*
X154940000Y-96520000D03*
X170180000Y-104140000D03*
X157480000Y-96520000D03*
X167640000Y-104140000D03*
X160020000Y-96520000D03*
X165100000Y-104140000D03*
X162560000Y-96520000D03*
X162560000Y-104140000D03*
X165100000Y-96520000D03*
X160020000Y-104140000D03*
X167640000Y-96520000D03*
X157480000Y-104140000D03*
X170180000Y-96520000D03*
D12*
X154940000Y-104140000D03*
G04 #@! TD*
D10*
G04 #@! TO.C,C34*
X203160000Y-71120000D03*
X200660000Y-71120000D03*
G04 #@! TD*
G04 #@! TO.C,C33*
X203160000Y-81280000D03*
X200660000Y-81280000D03*
G04 #@! TD*
G04 #@! TO.C,C32*
X203160000Y-91440000D03*
X200660000Y-91440000D03*
G04 #@! TD*
G04 #@! TO.C,C25*
X171664000Y-111760000D03*
X169164000Y-111760000D03*
G04 #@! TD*
G04 #@! TO.C,C24*
X172680000Y-129540000D03*
X170180000Y-129540000D03*
G04 #@! TD*
G04 #@! TO.C,C23*
X175260000Y-124380000D03*
X175260000Y-119380000D03*
G04 #@! TD*
G04 #@! TO.C,C16*
X104140000Y-104060000D03*
X104140000Y-99060000D03*
G04 #@! TD*
G04 #@! TO.C,C15*
X104140000Y-68500000D03*
X104140000Y-63500000D03*
G04 #@! TD*
G04 #@! TO.C,C14*
X104140000Y-50720000D03*
X104140000Y-45720000D03*
G04 #@! TD*
G04 #@! TO.C,C13*
X144780000Y-124380000D03*
X144780000Y-119380000D03*
G04 #@! TD*
G04 #@! TO.C,C12*
X144780000Y-104060000D03*
X144780000Y-99060000D03*
G04 #@! TD*
G04 #@! TO.C,C11*
X144780000Y-68500000D03*
X144780000Y-63500000D03*
G04 #@! TD*
G04 #@! TO.C,C10*
X144780000Y-50720000D03*
X144780000Y-45720000D03*
G04 #@! TD*
D14*
G04 #@! TO.C,Y1*
X190500000Y-111374000D03*
X190500000Y-109474000D03*
G04 #@! TD*
D11*
G04 #@! TO.C,U23*
X152400000Y-116840000D03*
X170180000Y-124460000D03*
X154940000Y-116840000D03*
X167640000Y-124460000D03*
X157480000Y-116840000D03*
X165100000Y-124460000D03*
X160020000Y-116840000D03*
X162560000Y-124460000D03*
X162560000Y-116840000D03*
X160020000Y-124460000D03*
X165100000Y-116840000D03*
X157480000Y-124460000D03*
X167640000Y-116840000D03*
X154940000Y-124460000D03*
X170180000Y-116840000D03*
D12*
X152400000Y-124460000D03*
G04 #@! TD*
D11*
G04 #@! TO.C,U22*
X83820000Y-116840000D03*
X99060000Y-124460000D03*
X86360000Y-116840000D03*
X96520000Y-124460000D03*
X88900000Y-116840000D03*
X93980000Y-124460000D03*
X91440000Y-116840000D03*
X91440000Y-124460000D03*
X93980000Y-116840000D03*
X88900000Y-124460000D03*
X96520000Y-116840000D03*
X86360000Y-124460000D03*
X99060000Y-116840000D03*
D12*
X83820000Y-124460000D03*
G04 #@! TD*
D11*
G04 #@! TO.C,U21*
X84074000Y-78740000D03*
X99314000Y-86360000D03*
X86614000Y-78740000D03*
X96774000Y-86360000D03*
X89154000Y-78740000D03*
X94234000Y-86360000D03*
X91694000Y-78740000D03*
X91694000Y-86360000D03*
X94234000Y-78740000D03*
X89154000Y-86360000D03*
X96774000Y-78740000D03*
X86614000Y-86360000D03*
X99314000Y-78740000D03*
D12*
X84074000Y-86360000D03*
G04 #@! TD*
D11*
G04 #@! TO.C,U20*
X124460000Y-78740000D03*
X139700000Y-86360000D03*
X127000000Y-78740000D03*
X137160000Y-86360000D03*
X129540000Y-78740000D03*
X134620000Y-86360000D03*
X132080000Y-78740000D03*
X132080000Y-86360000D03*
X134620000Y-78740000D03*
X129540000Y-86360000D03*
X137160000Y-78740000D03*
X127000000Y-86360000D03*
X139700000Y-78740000D03*
D12*
X124460000Y-86360000D03*
G04 #@! TD*
D11*
G04 #@! TO.C,U16*
X84328000Y-96520000D03*
X99568000Y-104140000D03*
X86868000Y-96520000D03*
X97028000Y-104140000D03*
X89408000Y-96520000D03*
X94488000Y-104140000D03*
X91948000Y-96520000D03*
X91948000Y-104140000D03*
X94488000Y-96520000D03*
X89408000Y-104140000D03*
X97028000Y-96520000D03*
X86868000Y-104140000D03*
X99568000Y-96520000D03*
D12*
X84328000Y-104140000D03*
G04 #@! TD*
D11*
G04 #@! TO.C,U15*
X83820000Y-60960000D03*
X99060000Y-68580000D03*
X86360000Y-60960000D03*
X96520000Y-68580000D03*
X88900000Y-60960000D03*
X93980000Y-68580000D03*
X91440000Y-60960000D03*
X91440000Y-68580000D03*
X93980000Y-60960000D03*
X88900000Y-68580000D03*
X96520000Y-60960000D03*
X86360000Y-68580000D03*
X99060000Y-60960000D03*
D12*
X83820000Y-68580000D03*
G04 #@! TD*
D11*
G04 #@! TO.C,U14*
X83820000Y-43180000D03*
X99060000Y-50800000D03*
X86360000Y-43180000D03*
X96520000Y-50800000D03*
X88900000Y-43180000D03*
X93980000Y-50800000D03*
X91440000Y-43180000D03*
X91440000Y-50800000D03*
X93980000Y-43180000D03*
X88900000Y-50800000D03*
X96520000Y-43180000D03*
X86360000Y-50800000D03*
X99060000Y-43180000D03*
D12*
X83820000Y-50800000D03*
G04 #@! TD*
D11*
G04 #@! TO.C,U13*
X124460000Y-116840000D03*
X139700000Y-124460000D03*
X127000000Y-116840000D03*
X137160000Y-124460000D03*
X129540000Y-116840000D03*
X134620000Y-124460000D03*
X132080000Y-116840000D03*
X132080000Y-124460000D03*
X134620000Y-116840000D03*
X129540000Y-124460000D03*
X137160000Y-116840000D03*
X127000000Y-124460000D03*
X139700000Y-116840000D03*
D12*
X124460000Y-124460000D03*
G04 #@! TD*
D11*
G04 #@! TO.C,U12*
X124460000Y-96520000D03*
X139700000Y-104140000D03*
X127000000Y-96520000D03*
X137160000Y-104140000D03*
X129540000Y-96520000D03*
X134620000Y-104140000D03*
X132080000Y-96520000D03*
X132080000Y-104140000D03*
X134620000Y-96520000D03*
X129540000Y-104140000D03*
X137160000Y-96520000D03*
X127000000Y-104140000D03*
X139700000Y-96520000D03*
D12*
X124460000Y-104140000D03*
G04 #@! TD*
D11*
G04 #@! TO.C,U11*
X124714000Y-60960000D03*
X139954000Y-68580000D03*
X127254000Y-60960000D03*
X137414000Y-68580000D03*
X129794000Y-60960000D03*
X134874000Y-68580000D03*
X132334000Y-60960000D03*
X132334000Y-68580000D03*
X134874000Y-60960000D03*
X129794000Y-68580000D03*
X137414000Y-60960000D03*
X127254000Y-68580000D03*
X139954000Y-60960000D03*
D12*
X124714000Y-68580000D03*
G04 #@! TD*
D11*
G04 #@! TO.C,U10*
X124460000Y-43180000D03*
X139700000Y-50800000D03*
X127000000Y-43180000D03*
X137160000Y-50800000D03*
X129540000Y-43180000D03*
X134620000Y-50800000D03*
X132080000Y-43180000D03*
X132080000Y-50800000D03*
X134620000Y-43180000D03*
X129540000Y-50800000D03*
X137160000Y-43180000D03*
X127000000Y-50800000D03*
X139700000Y-43180000D03*
D12*
X124460000Y-50800000D03*
G04 #@! TD*
D15*
G04 #@! TO.C,SW1*
X213360000Y-103020000D03*
X208860000Y-103020000D03*
X213360000Y-96520000D03*
X208860000Y-96520000D03*
G04 #@! TD*
G04 #@! TO.C,SW2*
X213360000Y-90320000D03*
X208860000Y-90320000D03*
X213360000Y-83820000D03*
X208860000Y-83820000D03*
G04 #@! TD*
G04 #@! TO.C,SW3*
X213360000Y-77620000D03*
X208860000Y-77620000D03*
X213360000Y-71120000D03*
X208860000Y-71120000D03*
G04 #@! TD*
D11*
G04 #@! TO.C,RN1*
X109220000Y-71120000D03*
X109220000Y-73660000D03*
X109220000Y-76200000D03*
X109220000Y-78740000D03*
X109220000Y-81280000D03*
X109220000Y-83820000D03*
X109220000Y-86360000D03*
X109220000Y-88900000D03*
D12*
X109220000Y-91440000D03*
G04 #@! TD*
D11*
G04 #@! TO.C,R17*
X193040000Y-76200000D03*
D10*
X203200000Y-76200000D03*
G04 #@! TD*
D11*
G04 #@! TO.C,R16*
X193040000Y-86360000D03*
D10*
X203200000Y-86360000D03*
G04 #@! TD*
D11*
G04 #@! TO.C,R15*
X193040000Y-96520000D03*
D10*
X203200000Y-96520000D03*
G04 #@! TD*
D11*
G04 #@! TO.C,R31*
X203200000Y-101600000D03*
D10*
X203200000Y-111760000D03*
G04 #@! TD*
D11*
G04 #@! TO.C,R30*
X180340000Y-104140000D03*
D10*
X190500000Y-104140000D03*
G04 #@! TD*
D16*
G04 #@! TO.C,H4*
X213360000Y-129540000D03*
G04 #@! TD*
G04 #@! TO.C,H3*
X73660000Y-129540000D03*
G04 #@! TD*
G04 #@! TO.C,H2*
X213360000Y-40640000D03*
G04 #@! TD*
G04 #@! TO.C,H1*
X73660000Y-40386000D03*
G04 #@! TD*
D17*
G04 #@! TO.C,D9*
X182880000Y-86360000D03*
D18*
X185420000Y-86360000D03*
G04 #@! TD*
D17*
G04 #@! TO.C,D16*
X76200000Y-101600000D03*
X76200000Y-99060000D03*
D18*
X76200000Y-96520000D03*
G04 #@! TD*
D17*
G04 #@! TO.C,D15*
X76200000Y-76200000D03*
X76200000Y-73660000D03*
D18*
X76200000Y-71120000D03*
G04 #@! TD*
D17*
G04 #@! TO.C,D14*
X76200000Y-53340000D03*
X76200000Y-50800000D03*
D18*
X76200000Y-48260000D03*
G04 #@! TD*
D17*
G04 #@! TO.C,D13*
X116840000Y-127000000D03*
X116840000Y-124460000D03*
D18*
X116840000Y-121920000D03*
G04 #@! TD*
D17*
G04 #@! TO.C,D12*
X116840000Y-101600000D03*
X116840000Y-99060000D03*
D18*
X116840000Y-96520000D03*
G04 #@! TD*
D17*
G04 #@! TO.C,D11*
X116840000Y-76200000D03*
X116840000Y-73660000D03*
D18*
X116840000Y-71120000D03*
G04 #@! TD*
D17*
G04 #@! TO.C,D10*
X116840000Y-53340000D03*
X116840000Y-50800000D03*
D18*
X116840000Y-48260000D03*
G04 #@! TD*
D10*
G04 #@! TO.C,C9*
X187960000Y-66000000D03*
D12*
X187960000Y-63500000D03*
G04 #@! TD*
D10*
G04 #@! TO.C,C22*
X104140000Y-124380000D03*
X104140000Y-119380000D03*
G04 #@! TD*
G04 #@! TO.C,C21*
X104140000Y-86280000D03*
X104140000Y-81280000D03*
G04 #@! TD*
G04 #@! TO.C,C20*
X144780000Y-86280000D03*
X144780000Y-81280000D03*
G04 #@! TD*
G04 #@! TO.C,C5*
X175260000Y-50720000D03*
X175260000Y-45720000D03*
G04 #@! TD*
G04 #@! TO.C,C2*
X175260000Y-86280000D03*
X175260000Y-81280000D03*
G04 #@! TD*
G04 #@! TO.C,C4*
X205740000Y-124380000D03*
X205740000Y-119380000D03*
G04 #@! TD*
G04 #@! TO.C,C1*
X175260000Y-104060000D03*
X175260000Y-99060000D03*
G04 #@! TD*
G04 #@! TO.C,C31*
X198080000Y-109220000D03*
X195580000Y-109220000D03*
G04 #@! TD*
G04 #@! TO.C,C30*
X198080000Y-111760000D03*
X195580000Y-111760000D03*
G04 #@! TD*
M02*
