M48
; DRILL file {KiCad 5.1.12-5.1.12} date Mon 20 Dec 2021 18:49:00
; FORMAT={3:3/ absolute / metric / suppress trailing zeros}
; #@! TF.CreationDate,2021-12-20T18:49:00+11:00
; #@! TF.GenerationSoftware,Kicad,Pcbnew,5.1.12-5.1.12
; #@! TF.FileFunction,Plated,1,2,PTH
FMAT,2
METRIC,LZ
T1C0.400
T2C0.500
T3C0.800
T4C0.900
T5C1.016
T6C1.100
T7C3.500
%
G90
G05
T1
X133267Y-102815
T2
X1905Y-109474
X1905Y-111374
T3
X08382Y-04318
X08382Y-0508
X08382Y-06096
X08382Y-06858
X08382Y-11684
X08382Y-12446
X084074Y-07874
X084074Y-08636
X084328Y-09652
X084328Y-10414
X08636Y-04318
X08636Y-0508
X08636Y-06096
X08636Y-06858
X08636Y-11684
X08636Y-12446
X086614Y-07874
X086614Y-08636
X086868Y-09652
X086868Y-10414
X0889Y-04318
X0889Y-0508
X0889Y-06096
X0889Y-06858
X0889Y-11684
X0889Y-12446
X089154Y-07874
X089154Y-08636
X089408Y-09652
X089408Y-10414
X09144Y-04318
X09144Y-0508
X09144Y-06096
X09144Y-06858
X09144Y-11684
X09144Y-12446
X091694Y-07874
X091694Y-08636
X091948Y-09652
X091948Y-10414
X09398Y-04318
X09398Y-0508
X09398Y-06096
X09398Y-06858
X09398Y-11684
X09398Y-12446
X094234Y-07874
X094234Y-08636
X094488Y-09652
X094488Y-10414
X09652Y-04318
X09652Y-0508
X09652Y-06096
X09652Y-06858
X09652Y-11684
X09652Y-12446
X096774Y-07874
X096774Y-08636
X097028Y-09652
X097028Y-10414
X09906Y-04318
X09906Y-0508
X09906Y-06096
X09906Y-06858
X09906Y-11684
X09906Y-12446
X099314Y-07874
X099314Y-08636
X099568Y-09652
X099568Y-10414
X10414Y-04572
X10414Y-05072
X10414Y-0635
X10414Y-0685
X10414Y-08128
X10414Y-08628
X10414Y-09906
X10414Y-10406
X10414Y-11938
X10414Y-12438
X10922Y-07112
X10922Y-07366
X10922Y-0762
X10922Y-07874
X10922Y-08128
X10922Y-08382
X10922Y-08636
X10922Y-0889
X10922Y-09144
X12446Y-04318
X12446Y-0508
X12446Y-07874
X12446Y-08636
X12446Y-09652
X12446Y-10414
X12446Y-11684
X12446Y-12446
X124714Y-06096
X124714Y-06858
X127Y-04318
X127Y-0508
X127Y-07874
X127Y-08636
X127Y-09652
X127Y-10414
X127Y-11684
X127Y-12446
X127254Y-06096
X127254Y-06858
X12954Y-04318
X12954Y-0508
X12954Y-07874
X12954Y-08636
X12954Y-09652
X12954Y-10414
X12954Y-11684
X12954Y-12446
X129794Y-06096
X129794Y-06858
X13208Y-04318
X13208Y-0508
X13208Y-07874
X13208Y-08636
X13208Y-09652
X13208Y-10414
X13208Y-11684
X13208Y-12446
X132334Y-06096
X132334Y-06858
X13462Y-04318
X13462Y-0508
X13462Y-07874
X13462Y-08636
X13462Y-09652
X13462Y-10414
X13462Y-11684
X13462Y-12446
X134874Y-06096
X134874Y-06858
X13716Y-04318
X13716Y-0508
X13716Y-07874
X13716Y-08636
X13716Y-09652
X13716Y-10414
X13716Y-11684
X13716Y-12446
X137414Y-06096
X137414Y-06858
X1397Y-04318
X1397Y-0508
X1397Y-07874
X1397Y-08636
X1397Y-09652
X1397Y-10414
X1397Y-11684
X1397Y-12446
X139954Y-06096
X139954Y-06858
X14478Y-04572
X14478Y-05072
X14478Y-0635
X14478Y-0685
X14478Y-08128
X14478Y-08628
X14478Y-09906
X14478Y-10406
X14478Y-11938
X14478Y-12438
X1524Y-06096
X1524Y-06858
X1524Y-07366
X1524Y-07874
X1524Y-08636
X1524Y-11176
X1524Y-11684
X1524Y-12446
X1524Y-12954
X15494Y-04318
X15494Y-0508
X15494Y-06096
X15494Y-06858
X15494Y-07874
X15494Y-08636
X15494Y-09652
X15494Y-10414
X15494Y-11684
X15494Y-12446
X15748Y-04318
X15748Y-0508
X15748Y-06096
X15748Y-06858
X15748Y-07874
X15748Y-08636
X15748Y-09652
X15748Y-10414
X15748Y-11684
X15748Y-12446
X16002Y-04318
X16002Y-0508
X16002Y-06096
X16002Y-06858
X16002Y-07874
X16002Y-08636
X16002Y-09652
X16002Y-10414
X16002Y-11684
X16002Y-12446
X16256Y-04318
X16256Y-0508
X16256Y-06096
X16256Y-06858
X16256Y-07366
X16256Y-07874
X16256Y-08636
X16256Y-09652
X16256Y-10414
X16256Y-11176
X16256Y-11684
X16256Y-12446
X16256Y-12954
X1651Y-04318
X1651Y-0508
X1651Y-06096
X1651Y-06858
X1651Y-07874
X1651Y-08636
X1651Y-09652
X1651Y-10414
X1651Y-11684
X1651Y-12446
X16764Y-04318
X16764Y-0508
X16764Y-06096
X16764Y-06858
X16764Y-07874
X16764Y-08636
X16764Y-09652
X16764Y-10414
X16764Y-11684
X16764Y-12446
X169164Y-11176
X17018Y-04318
X17018Y-0508
X17018Y-06096
X17018Y-06858
X17018Y-07874
X17018Y-08636
X17018Y-09652
X17018Y-10414
X17018Y-11684
X17018Y-12446
X17018Y-12954
X171664Y-11176
X17268Y-12954
X17526Y-04572
X17526Y-05072
X17526Y-0635
X17526Y-0685
X17526Y-08128
X17526Y-08628
X17526Y-09906
X17526Y-10406
X17526Y-11938
X17526Y-12438
X18034Y-10414
X18288Y-04318
X18288Y-0508
X18288Y-11684
X18288Y-12446
X18542Y-04318
X18542Y-0508
X18542Y-11684
X18542Y-12446
X18796Y-04318
X18796Y-0508
X18796Y-0635
X18796Y-066
X18796Y-11684
X18796Y-12446
X1905Y-04318
X1905Y-0508
X1905Y-10414
X1905Y-11684
X1905Y-12446
X19304Y-04318
X19304Y-0508
X19304Y-0762
X19304Y-08636
X19304Y-09652
X19304Y-11684
X19304Y-12446
X19558Y-04318
X19558Y-0508
X19558Y-10922
X19558Y-11176
X19558Y-11684
X19558Y-12446
X19808Y-10922
X19808Y-11176
X19812Y-04318
X19812Y-0508
X19812Y-11684
X19812Y-12446
X20066Y-07112
X20066Y-08128
X20066Y-09144
X20066Y-11684
X20066Y-12446
X20316Y-07112
X20316Y-08128
X20316Y-09144
X2032Y-04318
X2032Y-04818
X2032Y-0762
X2032Y-08636
X2032Y-09652
X2032Y-1016
X2032Y-11176
X20574Y-11938
X20574Y-12438
T4
X0762Y-04826
X0762Y-0508
X0762Y-05334
X0762Y-07112
X0762Y-07366
X0762Y-0762
X0762Y-09652
X0762Y-09906
X0762Y-1016
X11684Y-04826
X11684Y-0508
X11684Y-05334
X11684Y-07112
X11684Y-07366
X11684Y-0762
X11684Y-09652
X11684Y-09906
X11684Y-1016
X11684Y-12192
X11684Y-12446
X11684Y-127
X18288Y-08636
X18542Y-08636
T5
X20574Y-05334
X20574Y-05588
X20574Y-05842
X20574Y-06096
X20574Y-0635
X21336Y-05334
X21336Y-0635
T6
X20886Y-07112
X20886Y-07762
X20886Y-08382
X20886Y-09032
X20886Y-09652
X20886Y-10302
X21336Y-07112
X21336Y-07762
X21336Y-08382
X21336Y-09032
X21336Y-09652
X21336Y-10302
T7
X07366Y-040386
X07366Y-12954
X21336Y-04064
X21336Y-12954
T0
M30
